<svg width="110" height="30" viewBox="0 0 110 30" fill="none" xmlns="http://www.w3.org/2000/svg">
<path d="M77.696 8.412C77.744 7.668 78.028 7.088 78.548 6.672C79.076 6.256 79.748 6.048 80.564 6.048C81.124 6.048 81.608 6.148 82.016 6.348C82.424 6.548 82.732 6.82 82.94 7.164C83.148 7.508 83.252 7.896 83.252 8.328C83.252 8.824 83.12 9.248 82.856 9.6C82.592 9.952 82.276 10.188 81.908 10.308V10.356C82.38 10.5 82.748 10.764 83.012 11.148C83.276 11.524 83.408 12.008 83.408 12.6C83.408 13.072 83.3 13.492 83.084 13.86C82.868 14.228 82.548 14.52 82.124 14.736C81.7 14.944 81.192 15.048 80.6 15.048C79.736 15.048 79.024 14.828 78.464 14.388C77.912 13.94 77.616 13.3 77.576 12.468H78.896C78.928 12.892 79.092 13.24 79.388 13.512C79.684 13.776 80.084 13.908 80.588 13.908C81.076 13.908 81.452 13.776 81.716 13.512C81.98 13.24 82.112 12.892 82.112 12.468C82.112 11.908 81.932 11.512 81.572 11.28C81.22 11.04 80.676 10.92 79.94 10.92H79.628V9.792H79.952C80.6 9.784 81.092 9.676 81.428 9.468C81.772 9.26 81.944 8.932 81.944 8.484C81.944 8.1 81.82 7.796 81.572 7.572C81.324 7.34 80.972 7.224 80.516 7.224C80.068 7.224 79.72 7.34 79.472 7.572C79.224 7.796 79.076 8.076 79.028 8.412H77.696ZM85.577 15.084C85.329 15.084 85.121 15 84.953 14.832C84.785 14.664 84.701 14.456 84.701 14.208C84.701 13.96 84.785 13.752 84.953 13.584C85.121 13.416 85.329 13.332 85.577 13.332C85.817 13.332 86.021 13.416 86.189 13.584C86.357 13.752 86.441 13.96 86.441 14.208C86.441 14.456 86.357 14.664 86.189 14.832C86.021 15 85.817 15.084 85.577 15.084ZM93.2835 7.308L89.9475 15H88.5675L91.9395 7.452H87.4995V6.288H93.2835V7.308ZM103.418 6.66V15H102.05V9.288L99.5064 15H98.5584L96.0024 9.288V15H94.6344V6.66H96.1104L99.0384 13.2L101.954 6.66H103.418Z" fill="black"/>
<path d="M13.387 17.756C13.2677 17.7565 13.1513 17.7151 13.0544 17.6377L8.49911 13.9626L3.94385 17.6377C3.84653 17.7163 3.72929 17.7583 3.60906 17.7579C3.48884 17.7574 3.37187 17.7144 3.27507 17.635C3.17826 17.5557 3.10664 17.4441 3.07055 17.3165C3.03446 17.1889 3.03578 17.0518 3.07431 16.9251L4.85094 11.0691L0.246445 7.55514C0.146709 7.47911 0.0714334 7.36958 0.0316176 7.24255C-0.00819815 7.11552 -0.0104677 6.97765 0.0251406 6.84909C0.0607489 6.72052 0.132369 6.608 0.229536 6.52795C0.326704 6.44791 0.444326 6.40454 0.565218 6.40419H6.24575L7.96004 0.533193C7.99696 0.406441 8.06902 0.295962 8.16587 0.217606C8.26272 0.139251 8.37938 0.0970459 8.49911 0.0970459C8.61885 0.0970459 8.73551 0.139251 8.83236 0.217606C8.92921 0.295962 9.00127 0.406441 9.0382 0.533193L10.7525 6.40616H16.433C16.5541 6.4061 16.6719 6.44916 16.7694 6.52905C16.8669 6.60894 16.9388 6.72145 16.9746 6.85012C17.0104 6.97878 17.0083 7.11683 16.9685 7.24405C16.9288 7.37128 16.8534 7.48098 16.7536 7.55711L12.1473 11.0691L13.9229 16.9235C13.9516 17.0183 13.9597 17.1193 13.9465 17.2183C13.9332 17.3172 13.899 17.4113 13.8466 17.4926C13.7943 17.5739 13.7253 17.6402 13.6454 17.686C13.5654 17.7318 13.4769 17.7558 13.387 17.756Z" fill="#F7FF00"/>
<path d="M8.49902 0.597046C8.49983 0.597046 8.50142 0.597159 8.50391 0.598022L8.51758 0.605835C8.52393 0.61097 8.53187 0.619261 8.53906 0.630249L8.55859 0.673218L10.2725 6.54626L10.3779 6.90662H16.4336C16.4345 6.90665 16.4361 6.90671 16.4385 6.90759L16.4521 6.91541C16.4587 6.92074 16.4664 6.92942 16.4736 6.9408L16.4932 6.98474C16.4981 7.00272 16.5003 7.02164 16.5 7.04041L16.4912 7.09509C16.4858 7.11245 16.479 7.12649 16.4717 7.13708L16.4502 7.15955L11.8438 10.6713L11.5684 10.8822L11.6689 11.2142L13.4443 17.0687C13.4482 17.0815 13.451 17.0949 13.4521 17.1088L13.4512 17.1517C13.4473 17.1803 13.4371 17.2045 13.4258 17.222C13.4146 17.2393 13.4034 17.2484 13.3965 17.2523L13.3857 17.2562H13.3848C13.3839 17.2562 13.3824 17.2561 13.3799 17.2552C13.3775 17.2544 13.3734 17.2523 13.3682 17.2484L8.81348 13.5736L8.49902 13.3197L8.18555 13.5736L3.62988 17.2484C3.62372 17.2534 3.61892 17.2562 3.61621 17.2572C3.61383 17.258 3.61221 17.2582 3.61133 17.2582L3.60547 17.2572L3.5918 17.2484C3.58537 17.2431 3.5775 17.2352 3.57031 17.224L3.55176 17.1801C3.54681 17.1624 3.54378 17.1439 3.54395 17.1254L3.55273 17.0707L5.3291 11.2142L5.42969 10.8822L5.1543 10.6713L0.549805 7.15759C0.543687 7.15293 0.535612 7.14569 0.52832 7.13513L0.508789 7.09314C0.503346 7.07577 0.500334 7.05711 0.5 7.03845L0.506836 6.98279C0.516757 6.94697 0.534837 6.92417 0.547852 6.91345C0.553896 6.90855 0.558774 6.90666 0.561523 6.90564L0.566406 6.90466H6.62109L6.72559 6.54431L8.44043 0.673218C8.44553 0.655708 8.45179 0.641262 8.45898 0.630249L8.48047 0.605835C8.48647 0.601029 8.49146 0.598993 8.49414 0.598022C8.49663 0.597138 8.49818 0.597054 8.49902 0.597046Z" stroke="black" stroke-opacity="0.32"/>
<path d="M32.387 17.756C32.2677 17.7565 32.1513 17.7151 32.0544 17.6377L27.4991 13.9626L22.9439 17.6377C22.8465 17.7163 22.7293 17.7583 22.6091 17.7579C22.4888 17.7574 22.3719 17.7144 22.2751 17.635C22.1783 17.5557 22.1066 17.4441 22.0706 17.3165C22.0345 17.1889 22.0358 17.0518 22.0743 16.9251L23.8509 11.0691L19.2464 7.55514C19.1467 7.47911 19.0714 7.36958 19.0316 7.24255C18.9918 7.11552 18.9895 6.97765 19.0251 6.84909C19.0607 6.72052 19.1324 6.608 19.2295 6.52795C19.3267 6.44791 19.4443 6.40454 19.5652 6.40419H25.2457L26.96 0.533193C26.997 0.406441 27.069 0.295962 27.1659 0.217606C27.2627 0.139251 27.3794 0.0970459 27.4991 0.0970459C27.6189 0.0970459 27.7355 0.139251 27.8324 0.217606C27.9292 0.295962 28.0013 0.406441 28.0382 0.533193L29.7525 6.40616H35.433C35.5541 6.4061 35.6719 6.44916 35.7694 6.52905C35.8669 6.60894 35.9388 6.72145 35.9746 6.85012C36.0104 6.97878 36.0083 7.11683 35.9685 7.24405C35.9288 7.37128 35.8534 7.48098 35.7536 7.55711L31.1473 11.0691L32.9229 16.9235C32.9516 17.0183 32.9597 17.1193 32.9465 17.2183C32.9332 17.3172 32.899 17.4113 32.8466 17.4926C32.7943 17.5739 32.7253 17.6402 32.6454 17.686C32.5654 17.7318 32.4769 17.7558 32.387 17.756Z" fill="#F7FF00"/>
<path d="M27.499 0.597046C27.4998 0.597046 27.5014 0.597159 27.5039 0.598022L27.5176 0.605835C27.5239 0.61097 27.5319 0.619261 27.5391 0.630249L27.5586 0.673218L29.2725 6.54626L29.3779 6.90662H35.4336C35.4345 6.90665 35.4361 6.90671 35.4385 6.90759L35.4521 6.91541C35.4587 6.92074 35.4664 6.92942 35.4736 6.9408L35.4932 6.98474C35.4981 7.00272 35.5003 7.02164 35.5 7.04041L35.4912 7.09509C35.4858 7.11245 35.479 7.12649 35.4717 7.13708L35.4502 7.15955L30.8438 10.6713L30.5684 10.8822L30.6689 11.2142L32.4443 17.0687C32.4482 17.0815 32.451 17.0949 32.4521 17.1088L32.4512 17.1517C32.4473 17.1803 32.4371 17.2045 32.4258 17.222C32.4146 17.2393 32.4034 17.2484 32.3965 17.2523L32.3857 17.2562H32.3848C32.3839 17.2562 32.3824 17.2561 32.3799 17.2552C32.3775 17.2544 32.3734 17.2523 32.3682 17.2484L27.8135 13.5736L27.499 13.3197L27.1855 13.5736L22.6299 17.2484C22.6237 17.2534 22.6189 17.2562 22.6162 17.2572C22.6138 17.258 22.6122 17.2582 22.6113 17.2582L22.6055 17.2572L22.5918 17.2484C22.5854 17.2431 22.5775 17.2352 22.5703 17.224L22.5518 17.1801C22.5468 17.1624 22.5438 17.1439 22.5439 17.1254L22.5527 17.0707L24.3291 11.2142L24.4297 10.8822L24.1543 10.6713L19.5498 7.15759C19.5437 7.15293 19.5356 7.14569 19.5283 7.13513L19.5088 7.09314C19.5033 7.07577 19.5003 7.05711 19.5 7.03845L19.5068 6.98279C19.5168 6.94697 19.5348 6.92417 19.5479 6.91345C19.5539 6.90855 19.5588 6.90666 19.5615 6.90564L19.5664 6.90466H25.6211L25.7256 6.54431L27.4404 0.673218C27.4455 0.655708 27.4518 0.641262 27.459 0.630249L27.4805 0.605835C27.4865 0.601029 27.4915 0.598993 27.4941 0.598022C27.4966 0.597138 27.4982 0.597054 27.499 0.597046Z" stroke="black" stroke-opacity="0.32"/>
<path d="M51.387 17.756C51.2677 17.7565 51.1513 17.7151 51.0544 17.6377L46.4991 13.9626L41.9439 17.6377C41.8465 17.7163 41.7293 17.7583 41.6091 17.7579C41.4888 17.7574 41.3719 17.7144 41.2751 17.635C41.1783 17.5557 41.1066 17.4441 41.0706 17.3165C41.0345 17.1889 41.0358 17.0518 41.0743 16.9251L42.8509 11.0691L38.2464 7.55514C38.1467 7.47911 38.0714 7.36958 38.0316 7.24255C37.9918 7.11552 37.9895 6.97765 38.0251 6.84909C38.0607 6.72052 38.1324 6.608 38.2295 6.52795C38.3267 6.44791 38.4443 6.40454 38.5652 6.40419H44.2457L45.96 0.533193C45.997 0.406441 46.069 0.295962 46.1659 0.217606C46.2627 0.139251 46.3794 0.0970459 46.4991 0.0970459C46.6189 0.0970459 46.7355 0.139251 46.8324 0.217606C46.9292 0.295962 47.0013 0.406441 47.0382 0.533193L48.7525 6.40616H54.433C54.5541 6.4061 54.6719 6.44916 54.7694 6.52905C54.8669 6.60894 54.9388 6.72145 54.9746 6.85012C55.0104 6.97878 55.0083 7.11683 54.9685 7.24405C54.9288 7.37128 54.8534 7.48098 54.7536 7.55711L50.1473 11.0691L51.9229 16.9235C51.9516 17.0183 51.9597 17.1193 51.9465 17.2183C51.9332 17.3172 51.899 17.4113 51.8466 17.4926C51.7943 17.5739 51.7253 17.6402 51.6454 17.686C51.5654 17.7318 51.4769 17.7558 51.387 17.756Z" fill="#F7FF00"/>
<path d="M46.499 0.597046C46.4998 0.597046 46.5014 0.597159 46.5039 0.598022L46.5176 0.605835C46.5239 0.61097 46.5319 0.619261 46.5391 0.630249L46.5586 0.673218L48.2725 6.54626L48.3779 6.90662H54.4336C54.4345 6.90665 54.4361 6.90671 54.4385 6.90759L54.4521 6.91541C54.4587 6.92074 54.4664 6.92942 54.4736 6.9408L54.4932 6.98474C54.4981 7.00272 54.5003 7.02164 54.5 7.04041L54.4912 7.09509C54.4858 7.11245 54.479 7.12649 54.4717 7.13708L54.4502 7.15955L49.8438 10.6713L49.5684 10.8822L49.6689 11.2142L51.4443 17.0687C51.4482 17.0815 51.451 17.0949 51.4521 17.1088L51.4512 17.1517C51.4473 17.1803 51.4371 17.2045 51.4258 17.222C51.4146 17.2393 51.4034 17.2484 51.3965 17.2523L51.3857 17.2562H51.3848C51.3839 17.2562 51.3824 17.2561 51.3799 17.2552C51.3775 17.2544 51.3734 17.2523 51.3682 17.2484L46.8135 13.5736L46.499 13.3197L46.1855 13.5736L41.6299 17.2484C41.6237 17.2534 41.6189 17.2562 41.6162 17.2572C41.6138 17.258 41.6122 17.2582 41.6113 17.2582L41.6055 17.2572L41.5918 17.2484C41.5854 17.2431 41.5775 17.2352 41.5703 17.224L41.5518 17.1801C41.5468 17.1624 41.5438 17.1439 41.5439 17.1254L41.5527 17.0707L43.3291 11.2142L43.4297 10.8822L43.1543 10.6713L38.5498 7.15759C38.5437 7.15293 38.5356 7.14569 38.5283 7.13513L38.5088 7.09314C38.5033 7.07577 38.5003 7.05711 38.5 7.03845L38.5068 6.98279C38.5168 6.94697 38.5348 6.92417 38.5479 6.91345C38.5539 6.90855 38.5588 6.90666 38.5615 6.90564L38.5664 6.90466H44.6211L44.7256 6.54431L46.4404 0.673218C46.4455 0.655708 46.4518 0.641262 46.459 0.630249L46.4805 0.605835C46.4865 0.601029 46.4915 0.598993 46.4941 0.598022C46.4966 0.597138 46.4982 0.597054 46.499 0.597046Z" stroke="black" stroke-opacity="0.32"/>
<path d="M70.387 17.756C70.2677 17.7565 70.1513 17.7151 70.0544 17.6377L65.4991 13.9626L60.9439 17.6377C60.8465 17.7163 60.7293 17.7584 60.6091 17.7579C60.4888 17.7574 60.3719 17.7144 60.2751 17.635C60.1783 17.5557 60.1066 17.4441 60.0706 17.3165C60.0345 17.1889 60.0358 17.0518 60.0743 16.9251L61.8509 11.0691L57.2464 7.55514C57.1467 7.47911 57.0714 7.36958 57.0316 7.24255C56.9918 7.11552 56.9895 6.97765 57.0251 6.84909C57.0607 6.72052 57.1324 6.608 57.2295 6.52795C57.3267 6.44791 57.4443 6.40455 57.5652 6.40419H63.2457L64.96 0.533193C64.997 0.406441 65.069 0.295962 65.1659 0.217606C65.2627 0.139251 65.3794 0.0970459 65.4991 0.0970459C65.6189 0.0970459 65.7355 0.139251 65.8324 0.217606C65.9292 0.295962 66.0013 0.406441 66.0382 0.533193L67.7525 6.40616H73.433C73.5541 6.4061 73.6719 6.44916 73.7694 6.52905C73.8669 6.60894 73.9388 6.72146 73.9746 6.85012C74.0104 6.97878 74.0083 7.11683 73.9685 7.24406C73.9288 7.37128 73.8534 7.48098 73.7536 7.55711L69.1473 11.0691L70.9229 16.9235C70.9516 17.0183 70.9597 17.1193 70.9465 17.2183C70.9332 17.3172 70.899 17.4113 70.8466 17.4926C70.7943 17.5739 70.7253 17.6402 70.6454 17.686C70.5654 17.7318 70.4769 17.7558 70.387 17.756Z" fill="#F7FF00"/>
<path d="M65.499 0.597046C65.4998 0.597046 65.5014 0.597159 65.5039 0.598022L65.5176 0.605835C65.5239 0.610971 65.5319 0.619262 65.5391 0.630249L65.5586 0.673218L67.2725 6.54626L67.3779 6.90662H73.4336C73.4345 6.90665 73.4361 6.90671 73.4385 6.90759L73.4521 6.91541C73.4587 6.92074 73.4664 6.92942 73.4736 6.9408L73.4932 6.98474C73.4981 7.00272 73.5003 7.02164 73.5 7.04041L73.4912 7.09509C73.4858 7.11246 73.479 7.12649 73.4717 7.13708L73.4502 7.15955L68.8438 10.6713L68.5684 10.8822L68.6689 11.2142L70.4443 17.0687C70.4482 17.0814 70.451 17.0949 70.4521 17.1088L70.4512 17.1517C70.4493 17.1659 70.4456 17.1791 70.4414 17.1908L70.4258 17.222L70.3965 17.2523L70.3857 17.2562H70.3848C70.3839 17.2562 70.3824 17.2561 70.3799 17.2552C70.3775 17.2544 70.3734 17.2523 70.3682 17.2484L65.8135 13.5736L65.499 13.3197L65.1855 13.5736L60.6299 17.2484C60.6237 17.2534 60.6189 17.2562 60.6162 17.2572C60.6138 17.258 60.6122 17.2582 60.6113 17.2582C60.6105 17.2582 60.6082 17.2582 60.6055 17.2572L60.5918 17.2484C60.5854 17.2431 60.5775 17.2352 60.5703 17.224L60.5518 17.1801C60.5468 17.1624 60.5438 17.1439 60.5439 17.1254L60.5527 17.0707L62.3291 11.2142L62.4297 10.8822L62.1543 10.6713L57.5498 7.15759C57.5437 7.15293 57.5356 7.14569 57.5283 7.13513L57.5088 7.09314C57.5033 7.07577 57.5003 7.05711 57.5 7.03845L57.5068 6.98279C57.5168 6.94697 57.5348 6.92417 57.5479 6.91345C57.5539 6.90855 57.5588 6.90666 57.5615 6.90564L57.5664 6.90466H63.6211L63.7256 6.54431L65.4404 0.673218C65.4455 0.655709 65.4518 0.641262 65.459 0.630249L65.4805 0.605835C65.4865 0.601028 65.4915 0.598993 65.4941 0.598022C65.4966 0.597138 65.4982 0.597054 65.499 0.597046Z" stroke="black" stroke-opacity="0.32"/>
<path d="M65.5 2.12122V12.665L69.5921 15.9741V15.928L67.877 10.4313V11.4059V10.9186L72.3457 7.50753H71.8492H66.884H67.3805L65.5 2.12122Z" fill="white"/>
</svg>
