<svg width="25" height="22" viewBox="0 0 25 22" fill="none" xmlns="http://www.w3.org/2000/svg">
<path d="M0.0136719 9.83951C1.01795 11.5264 2.02619 13.1383 2.93917 14.7975C3.34008 15.5284 3.7926 15.7022 4.57459 15.4849C10.6439 13.8099 16.7251 12.1743 22.7944 10.5032C24.2631 10.1003 24.8943 9.13235 24.5569 7.95902C24.1758 6.63556 23.1676 6.12198 21.6671 6.51704C20.1111 6.92791 18.5789 7.45334 17.003 7.74568C16.3957 7.8563 15.5383 7.65087 15.0659 7.26371C12.8708 5.45828 10.6518 3.64889 8.67902 1.61433C7.39688 0.290869 6.36482 0.804449 5.0152 1.33778C6.65856 4.13087 8.23444 6.80939 9.9294 9.68939C8.00818 10.1911 6.2894 10.6928 4.54283 11.0563C4.17764 11.1314 3.59413 10.8232 3.30436 10.5111C2.4152 9.55902 1.45459 9.14815 0.0136719 9.83951ZM1.25215 21.8257C8.73062 21.8257 16.0344 21.8257 23.3938 21.8257C23.3938 20.9684 23.3938 20.2138 23.3938 19.4435C15.955 19.4435 8.6155 19.4435 1.25215 19.4435C1.25215 20.2849 1.25215 21 1.25215 21.8257Z" fill="white"/>
<path d="M0.0136719 9.83949C1.45459 9.14813 2.4152 9.55504 3.30039 10.515C3.59016 10.8271 4.17367 11.1353 4.53886 11.0602C6.28543 10.6928 8.00421 10.195 9.92543 9.69331C8.23047 6.81331 6.65459 4.1348 5.01123 1.34171C6.36085 0.808376 7.39291 0.298746 8.67505 1.61825C10.6479 3.65282 12.8668 5.4622 15.0619 7.26763C15.5343 7.6548 16.3957 7.86418 16.999 7.74961C18.5749 7.45726 20.1071 6.93183 21.6631 6.52097C23.1636 6.12591 24.1718 6.63949 24.5529 7.96294C24.8903 9.13628 24.2631 10.1042 22.7905 10.5071C16.7212 12.1783 10.6399 13.8138 4.57062 15.4889C3.78863 15.7062 3.34008 15.5323 2.9352 14.8015C2.03016 13.1383 1.01795 11.5264 0.0136719 9.83949Z" fill="black"/>
<path d="M1.2522 21.8257C1.2522 21 1.2522 20.281 1.2522 19.4435C8.61556 19.4435 15.9551 19.4435 23.3939 19.4435C23.3939 20.2139 23.3939 20.9684 23.3939 21.8257C16.0345 21.8257 8.73067 21.8257 1.2522 21.8257Z" fill="black"/>
</svg>
