<svg width="153" height="40" viewBox="0 0 153 40" fill="none" xmlns="http://www.w3.org/2000/svg">
<rect x="1" y="1" width="151" height="38" rx="13" fill="white" stroke="black" stroke-width="2"/>
<path d="M49.835 14.575V25H48.125V14.575H49.835ZM56.2501 16.6C56.9001 16.6 57.4801 16.735 57.9901 17.005C58.5101 17.275 58.9151 17.675 59.2051 18.205C59.4951 18.735 59.6401 19.375 59.6401 20.125V25H57.9451V20.38C57.9451 19.64 57.7601 19.075 57.3901 18.685C57.0201 18.285 56.5151 18.085 55.8751 18.085C55.2351 18.085 54.7251 18.285 54.3451 18.685C53.9751 19.075 53.7901 19.64 53.7901 20.38V25H52.0801V16.735H53.7901V17.68C54.0701 17.34 54.4251 17.075 54.8551 16.885C55.2951 16.695 55.7601 16.6 56.2501 16.6ZM62.6913 15.64C62.3813 15.64 62.1213 15.535 61.9113 15.325C61.7013 15.115 61.5963 14.855 61.5963 14.545C61.5963 14.235 61.7013 13.975 61.9113 13.765C62.1213 13.555 62.3813 13.45 62.6913 13.45C62.9913 13.45 63.2463 13.555 63.4563 13.765C63.6663 13.975 63.7713 14.235 63.7713 14.545C63.7713 14.855 63.6663 15.115 63.4563 15.325C63.2463 15.535 62.9913 15.64 62.6913 15.64ZM63.5313 16.735V25H61.8213V16.735H63.5313ZM65.2064 20.86C65.2064 20.01 65.3764 19.265 65.7164 18.625C66.0664 17.975 66.5464 17.475 67.1564 17.125C67.7664 16.775 68.4664 16.6 69.2564 16.6C70.2564 16.6 71.0814 16.84 71.7314 17.32C72.3914 17.79 72.8364 18.465 73.0664 19.345H71.2214C71.0714 18.935 70.8314 18.615 70.5014 18.385C70.1714 18.155 69.7564 18.04 69.2564 18.04C68.5564 18.04 67.9964 18.29 67.5764 18.79C67.1664 19.28 66.9614 19.97 66.9614 20.86C66.9614 21.75 67.1664 22.445 67.5764 22.945C67.9964 23.445 68.5564 23.695 69.2564 23.695C70.2464 23.695 70.9014 23.26 71.2214 22.39H73.0664C72.8264 23.23 72.3764 23.9 71.7164 24.4C71.0564 24.89 70.2364 25.135 69.2564 25.135C68.4664 25.135 67.7664 24.96 67.1564 24.61C66.5464 24.25 66.0664 23.75 65.7164 23.11C65.3764 22.46 65.2064 21.71 65.2064 20.86ZM75.6405 15.64C75.3305 15.64 75.0705 15.535 74.8605 15.325C74.6505 15.115 74.5455 14.855 74.5455 14.545C74.5455 14.235 74.6505 13.975 74.8605 13.765C75.0705 13.555 75.3305 13.45 75.6405 13.45C75.9405 13.45 76.1955 13.555 76.4055 13.765C76.6155 13.975 76.7205 14.235 76.7205 14.545C76.7205 14.855 76.6155 15.115 76.4055 15.325C76.1955 15.535 75.9405 15.64 75.6405 15.64ZM76.4805 16.735V25H74.7705V16.735H76.4805ZM78.1556 20.83C78.1556 20 78.3256 19.265 78.6656 18.625C79.0156 17.985 79.4856 17.49 80.0756 17.14C80.6756 16.78 81.3356 16.6 82.0556 16.6C82.7056 16.6 83.2706 16.73 83.7506 16.99C84.2406 17.24 84.6306 17.555 84.9206 17.935V16.735H86.6456V25H84.9206V23.77C84.6306 24.16 84.2356 24.485 83.7356 24.745C83.2356 25.005 82.6656 25.135 82.0256 25.135C81.3156 25.135 80.6656 24.955 80.0756 24.595C79.4856 24.225 79.0156 23.715 78.6656 23.065C78.3256 22.405 78.1556 21.66 78.1556 20.83ZM84.9206 20.86C84.9206 20.29 84.8006 19.795 84.5606 19.375C84.3306 18.955 84.0256 18.635 83.6456 18.415C83.2656 18.195 82.8556 18.085 82.4156 18.085C81.9756 18.085 81.5656 18.195 81.1856 18.415C80.8056 18.625 80.4956 18.94 80.2556 19.36C80.0256 19.77 79.9106 20.26 79.9106 20.83C79.9106 21.4 80.0256 21.9 80.2556 22.33C80.4956 22.76 80.8056 23.09 81.1856 23.32C81.5756 23.54 81.9856 23.65 82.4156 23.65C82.8556 23.65 83.2656 23.54 83.6456 23.32C84.0256 23.1 84.3306 22.78 84.5606 22.36C84.8006 21.93 84.9206 21.43 84.9206 20.86ZM90.6016 17.935C90.8516 17.515 91.1816 17.19 91.5916 16.96C92.0116 16.72 92.5066 16.6 93.0766 16.6V18.37H92.6416C91.9716 18.37 91.4616 18.54 91.1116 18.88C90.7716 19.22 90.6016 19.81 90.6016 20.65V25H88.8916V16.735H90.6016V17.935ZM101.545 25.135C100.895 25.135 100.31 25.02 99.7899 24.79C99.2799 24.55 98.8749 24.23 98.5749 23.83C98.2749 23.42 98.1149 22.965 98.0949 22.465H99.8649C99.8949 22.815 100.06 23.11 100.36 23.35C100.67 23.58 101.055 23.695 101.515 23.695C101.995 23.695 102.365 23.605 102.625 23.425C102.895 23.235 103.03 22.995 103.03 22.705C103.03 22.395 102.88 22.165 102.58 22.015C102.29 21.865 101.825 21.7 101.185 21.52C100.565 21.35 100.06 21.185 99.6699 21.025C99.2799 20.865 98.9399 20.62 98.6499 20.29C98.3699 19.96 98.2299 19.525 98.2299 18.985C98.2299 18.545 98.3599 18.145 98.6199 17.785C98.8799 17.415 99.2499 17.125 99.7299 16.915C100.22 16.705 100.78 16.6 101.41 16.6C102.35 16.6 103.105 16.84 103.675 17.32C104.255 17.79 104.565 18.435 104.605 19.255H102.895C102.865 18.885 102.715 18.59 102.445 18.37C102.175 18.15 101.81 18.04 101.35 18.04C100.9 18.04 100.555 18.125 100.315 18.295C100.075 18.465 99.9549 18.69 99.9549 18.97C99.9549 19.19 100.035 19.375 100.195 19.525C100.355 19.675 100.55 19.795 100.78 19.885C101.01 19.965 101.35 20.07 101.8 20.2C102.4 20.36 102.89 20.525 103.27 20.695C103.66 20.855 103.995 21.095 104.275 21.415C104.555 21.735 104.7 22.16 104.71 22.69C104.71 23.16 104.58 23.58 104.32 23.95C104.06 24.32 103.69 24.61 103.21 24.82C102.74 25.03 102.185 25.135 101.545 25.135ZM114.133 20.665C114.133 20.975 114.113 21.255 114.073 21.505H107.758C107.808 22.165 108.053 22.695 108.493 23.095C108.933 23.495 109.473 23.695 110.113 23.695C111.033 23.695 111.683 23.31 112.063 22.54H113.908C113.658 23.3 113.203 23.925 112.543 24.415C111.893 24.895 111.083 25.135 110.113 25.135C109.323 25.135 108.613 24.96 107.983 24.61C107.363 24.25 106.873 23.75 106.513 23.11C106.163 22.46 105.988 21.71 105.988 20.86C105.988 20.01 106.158 19.265 106.498 18.625C106.848 17.975 107.333 17.475 107.953 17.125C108.583 16.775 109.303 16.6 110.113 16.6C110.893 16.6 111.588 16.77 112.198 17.11C112.808 17.45 113.283 17.93 113.623 18.55C113.963 19.16 114.133 19.865 114.133 20.665ZM112.348 20.125C112.338 19.495 112.113 18.99 111.673 18.61C111.233 18.23 110.688 18.04 110.038 18.04C109.448 18.04 108.943 18.23 108.523 18.61C108.103 18.98 107.853 19.485 107.773 20.125H112.348ZM118.815 25.135C118.165 25.135 117.58 25.02 117.06 24.79C116.55 24.55 116.145 24.23 115.845 23.83C115.545 23.42 115.385 22.965 115.365 22.465H117.135C117.165 22.815 117.33 23.11 117.63 23.35C117.94 23.58 118.325 23.695 118.785 23.695C119.265 23.695 119.635 23.605 119.895 23.425C120.165 23.235 120.3 22.995 120.3 22.705C120.3 22.395 120.15 22.165 119.85 22.015C119.56 21.865 119.095 21.7 118.455 21.52C117.835 21.35 117.33 21.185 116.94 21.025C116.55 20.865 116.21 20.62 115.92 20.29C115.64 19.96 115.5 19.525 115.5 18.985C115.5 18.545 115.63 18.145 115.89 17.785C116.15 17.415 116.52 17.125 117 16.915C117.49 16.705 118.05 16.6 118.68 16.6C119.62 16.6 120.375 16.84 120.945 17.32C121.525 17.79 121.835 18.435 121.875 19.255H120.165C120.135 18.885 119.985 18.59 119.715 18.37C119.445 18.15 119.08 18.04 118.62 18.04C118.17 18.04 117.825 18.125 117.585 18.295C117.345 18.465 117.225 18.69 117.225 18.97C117.225 19.19 117.305 19.375 117.465 19.525C117.625 19.675 117.82 19.795 118.05 19.885C118.28 19.965 118.62 20.07 119.07 20.2C119.67 20.36 120.16 20.525 120.54 20.695C120.93 20.855 121.265 21.095 121.545 21.415C121.825 21.735 121.97 22.16 121.98 22.69C121.98 23.16 121.85 23.58 121.59 23.95C121.33 24.32 120.96 24.61 120.48 24.82C120.01 25.03 119.455 25.135 118.815 25.135ZM124.698 15.64C124.388 15.64 124.128 15.535 123.918 15.325C123.708 15.115 123.603 14.855 123.603 14.545C123.603 14.235 123.708 13.975 123.918 13.765C124.128 13.555 124.388 13.45 124.698 13.45C124.998 13.45 125.253 13.555 125.463 13.765C125.673 13.975 125.778 14.235 125.778 14.545C125.778 14.855 125.673 15.115 125.463 15.325C125.253 15.535 124.998 15.64 124.698 15.64ZM125.538 16.735V25H123.828V16.735H125.538ZM131.368 25.135C130.588 25.135 129.883 24.96 129.253 24.61C128.623 24.25 128.128 23.75 127.768 23.11C127.408 22.46 127.228 21.71 127.228 20.86C127.228 20.02 127.413 19.275 127.783 18.625C128.153 17.975 128.658 17.475 129.298 17.125C129.938 16.775 130.653 16.6 131.443 16.6C132.233 16.6 132.948 16.775 133.588 17.125C134.228 17.475 134.733 17.975 135.103 18.625C135.473 19.275 135.658 20.02 135.658 20.86C135.658 21.7 135.468 22.445 135.088 23.095C134.708 23.745 134.188 24.25 133.528 24.61C132.878 24.96 132.158 25.135 131.368 25.135ZM131.368 23.65C131.808 23.65 132.218 23.545 132.598 23.335C132.988 23.125 133.303 22.81 133.543 22.39C133.783 21.97 133.903 21.46 133.903 20.86C133.903 20.26 133.788 19.755 133.558 19.345C133.328 18.925 133.023 18.61 132.643 18.4C132.263 18.19 131.853 18.085 131.413 18.085C130.973 18.085 130.563 18.19 130.183 18.4C129.813 18.61 129.518 18.925 129.298 19.345C129.078 19.755 128.968 20.26 128.968 20.86C128.968 21.75 129.193 22.44 129.643 22.93C130.103 23.41 130.678 23.65 131.368 23.65ZM132.988 14.38L129.673 16.015V14.755L132.988 12.925V14.38ZM141.519 16.6C142.169 16.6 142.749 16.735 143.259 17.005C143.779 17.275 144.184 17.675 144.474 18.205C144.764 18.735 144.909 19.375 144.909 20.125V25H143.214V20.38C143.214 19.64 143.029 19.075 142.659 18.685C142.289 18.285 141.784 18.085 141.144 18.085C140.504 18.085 139.994 18.285 139.614 18.685C139.244 19.075 139.059 19.64 139.059 20.38V25H137.349V16.735H139.059V17.68C139.339 17.34 139.694 17.075 140.124 16.885C140.564 16.695 141.029 16.6 141.519 16.6Z" fill="black"/>
<path d="M15.0059 30.9057C14.941 30.8542 14.8694 30.8061 14.8113 30.7512C14.5861 30.5382 14.3643 30.3219 14.1459 30.1021C13.9787 29.9338 13.8184 29.7586 13.6614 29.5766C13.3475 29.216 13.0472 28.8416 12.7708 28.4535C12.5217 28.0998 12.2828 27.7392 12.0644 27.3683C11.8495 27.0042 11.6481 26.6299 11.4639 26.2487C11.2899 25.8915 11.1329 25.5309 10.993 25.1599C10.8906 24.8886 10.7917 24.6139 10.7029 24.3357C10.546 23.848 10.4129 23.3569 10.3139 22.8555C10.2662 22.6013 10.215 22.3472 10.1706 22.0896C10.1433 21.9282 10.1297 21.7668 10.1092 21.6053C10.0853 21.389 10.058 21.1726 10.0375 20.9528C10.0239 20.8257 10.0205 20.6952 10.0171 20.5681C10.0102 20.211 10 19.8538 10 19.4932C10 19.2734 10.0205 19.057 10.0341 18.8372C10.0409 18.7445 10.0478 18.6483 10.0546 18.5556C10.0682 18.3942 10.0717 18.2293 10.0955 18.0679C10.1399 17.7588 10.1911 17.4497 10.2389 17.1406C10.3003 16.7319 10.4027 16.3301 10.505 15.9317C10.5596 15.7291 10.621 15.5299 10.6825 15.3273C10.8087 14.9083 10.9657 14.4961 11.1295 14.0909C11.2011 13.9157 11.2762 13.744 11.3581 13.5757C11.44 13.4006 11.5219 13.222 11.6106 13.0502C11.8051 12.6793 12.0064 12.3118 12.2316 11.9547C12.4739 11.5666 12.7298 11.1888 13.0062 10.8247C13.1461 10.6393 13.2929 10.4607 13.443 10.2855C13.5829 10.1173 13.7262 9.95241 13.8764 9.79443C14.1425 9.51281 14.4121 9.23118 14.6919 8.95987C14.8898 8.76754 15.1082 8.59239 15.3232 8.4138C15.5143 8.25238 15.7088 8.0944 15.9067 7.94328C16.0671 7.81964 16.2377 7.70974 16.4015 7.58954C16.6745 7.39034 16.9577 7.20832 17.2511 7.04004C17.4661 6.9164 17.6845 6.79276 17.9063 6.67599C18.0872 6.57983 18.2646 6.48366 18.4523 6.40124C18.7935 6.25012 19.1382 6.09901 19.4862 5.96163C19.7387 5.86204 19.9946 5.77274 20.2506 5.68688C20.3768 5.64223 20.5065 5.61132 20.6362 5.57355C20.858 5.51173 21.0798 5.44647 21.3016 5.39496C21.5472 5.33657 21.7929 5.29192 22.042 5.24384C22.1649 5.2198 22.2843 5.19233 22.4071 5.17172C22.5163 5.15455 22.6289 5.14425 22.7381 5.13051C22.8849 5.11334 23.035 5.09273 23.1817 5.07556C23.2705 5.06525 23.3626 5.06182 23.4513 5.05495C23.5673 5.04465 23.6799 5.03091 23.7959 5.02061C23.8608 5.01717 23.9256 5.01717 23.9939 5.01717C24.3556 5.0103 24.7173 5 25.079 5C25.2564 5 25.4339 5.02061 25.6079 5.03434C25.6249 5.03434 25.6386 5.03434 25.6557 5.03434C25.8604 5.04808 26.0651 5.05152 26.2699 5.07556C26.5156 5.10303 26.7612 5.15111 27.0069 5.18202C27.2731 5.21293 27.5324 5.27819 27.7952 5.32283C27.9897 5.35718 28.1842 5.40526 28.3753 5.45678C28.7097 5.55294 29.0441 5.65254 29.3751 5.759C29.7538 5.87921 30.1224 6.02345 30.4841 6.18487C30.8526 6.34972 31.2177 6.52144 31.576 6.7069C31.9889 6.91983 32.3881 7.16024 32.7737 7.42125C32.9477 7.54146 33.1286 7.65479 33.2992 7.78187C33.5312 7.95359 33.7599 8.13218 33.9851 8.31763C34.1728 8.47218 34.3536 8.63703 34.5379 8.79502C34.804 9.01825 35.0497 9.26553 35.2886 9.51624C35.4694 9.70513 35.6435 9.90089 35.8175 10.1001C36.0018 10.3165 36.186 10.5328 36.3566 10.7595C36.517 10.969 36.6637 11.1854 36.8173 11.3983C37.0425 11.7074 37.237 12.0371 37.4315 12.3668C37.4998 12.4836 37.568 12.6003 37.6294 12.7205C37.7386 12.93 37.8512 13.1361 37.9502 13.349C38.0833 13.6375 38.2061 13.9329 38.3358 14.2282C38.4962 14.5957 38.6224 14.9769 38.7418 15.3616C38.8886 15.8252 39.0148 16.2923 39.1035 16.7697C39.1445 16.9861 39.1923 17.2059 39.2298 17.4222C39.2639 17.6317 39.2844 17.8447 39.3083 18.0542C39.3288 18.2499 39.3458 18.4457 39.3663 18.6414C39.3902 18.8716 39.4004 19.1051 39.4038 19.3352C39.4072 19.5481 39.4209 19.7611 39.4209 19.974C39.4209 20.1698 39.4106 20.3621 39.4038 20.5578C39.3936 20.7261 39.3834 20.8944 39.3663 21.0627C39.3458 21.2653 39.3219 21.4645 39.2946 21.6672C39.2707 21.8492 39.2469 22.0312 39.2161 22.2132C39.182 22.4193 39.1479 22.6254 39.1035 22.8314C39.0421 23.1199 38.9739 23.405 38.8988 23.69C38.8067 24.0472 38.6975 24.4009 38.5678 24.7478C38.4654 25.0157 38.3733 25.2836 38.2607 25.5446C38.1106 25.888 37.9502 26.2246 37.7864 26.5577C37.6124 26.9115 37.4179 27.2549 37.2063 27.5915C37.0698 27.8079 36.9299 28.0242 36.7832 28.2337C36.6057 28.4844 36.4249 28.7317 36.2372 28.9721C36.0768 29.1782 35.9028 29.3774 35.7322 29.5766C35.5855 29.7449 35.4319 29.9063 35.2818 30.0677C35.2135 30.1433 35.1453 30.2257 35.0702 30.2944C34.8757 30.4798 34.6778 30.6619 34.4799 30.8439C34.456 30.8645 34.4287 30.8782 34.4014 30.8954C34.1898 30.5897 33.9885 30.2841 33.7701 29.9853C33.6166 29.7724 33.4459 29.5732 33.2787 29.3671C33.1832 29.2503 33.0842 29.1404 32.9819 29.0271C32.8283 28.8588 32.6748 28.6871 32.5144 28.5257C32.3677 28.378 32.2141 28.2406 32.0605 28.1032C31.9445 27.9968 31.8319 27.8903 31.7091 27.7941C31.5043 27.6293 31.2962 27.4713 31.088 27.3133C30.6786 27.0042 30.2452 26.7329 29.7914 26.4891C29.4535 26.307 29.1089 26.1353 28.7506 25.9911C28.307 25.809 27.8532 25.6476 27.3857 25.5309C27.1025 25.4622 26.8158 25.4004 26.5292 25.342C26.2562 25.287 25.9764 25.2458 25.6966 25.2286C25.6045 25.2218 25.5089 25.2149 25.4168 25.208C25.2428 25.1977 25.0687 25.1806 24.8947 25.1737C24.5774 25.1668 24.26 25.184 23.9427 25.2046C23.7038 25.2218 23.465 25.2492 23.2295 25.2802C22.9224 25.3214 22.6153 25.3797 22.3116 25.4519C21.7895 25.5755 21.2777 25.7335 20.7795 25.9361C20.4109 26.0872 20.0492 26.2418 19.7012 26.441C19.4316 26.5955 19.1552 26.7466 18.8925 26.9149C18.5 27.1622 18.1247 27.4404 17.7664 27.7392C17.5037 27.9556 17.2511 28.1857 17.0055 28.4192C16.7222 28.6939 16.4493 28.979 16.2002 29.2847C16.0432 29.4736 15.8794 29.6624 15.7327 29.8582C15.5211 30.1467 15.3232 30.4421 15.1185 30.734C15.0809 30.8061 15.0434 30.8542 15.0059 30.9057ZM24.7139 22.7215C26.3415 22.694 27.7508 22.1239 28.9008 20.9665C30.0507 19.8126 30.6376 18.3976 30.6444 16.7628C30.6513 15.1109 30.0678 13.6822 28.9076 12.511C27.7542 11.3468 26.3415 10.7561 24.7139 10.7526C23.0896 10.7492 21.6735 11.333 20.5201 12.487C19.3565 13.6513 18.7628 15.0765 18.7662 16.7319C18.7662 18.3804 19.3531 19.7988 20.5099 20.9631C21.6667 22.1308 23.0794 22.694 24.7139 22.7215Z" fill="#DCDBE0"/>
<path d="M15.0061 30.9057C15.0437 30.8542 15.0778 30.8061 15.1153 30.7546C15.3201 30.4626 15.518 30.1673 15.7296 29.8788C15.8763 29.6796 16.0401 29.4941 16.197 29.3052C16.4496 28.9996 16.7191 28.7145 17.0023 28.4398C17.248 28.2028 17.5005 27.9761 17.7633 27.7598C18.1216 27.461 18.4969 27.1828 18.8894 26.9355C19.1521 26.7672 19.4251 26.6161 19.6981 26.4616C20.0427 26.2624 20.4078 26.1078 20.7764 25.9567C21.2746 25.7541 21.7864 25.5927 22.3085 25.4725C22.6122 25.4003 22.9159 25.3419 23.2264 25.3007C23.4653 25.2698 23.7007 25.2389 23.9396 25.2252C24.2569 25.2046 24.5742 25.184 24.8916 25.1943C25.0656 25.1977 25.2396 25.2149 25.4137 25.2286C25.5058 25.2355 25.6014 25.2423 25.6935 25.2492C25.9733 25.2664 26.2497 25.3042 26.5261 25.3626C26.8127 25.4209 27.0994 25.4793 27.3826 25.5514C27.8501 25.6682 28.3005 25.8296 28.7475 26.0117C29.1024 26.1593 29.4504 26.3276 29.7882 26.5096C30.2387 26.7535 30.672 27.0248 31.0849 27.3339C31.2931 27.4919 31.5012 27.6499 31.706 27.8147C31.8288 27.9109 31.9414 28.0208 32.0574 28.1238C32.211 28.2646 32.3645 28.3986 32.5113 28.5462C32.6716 28.7077 32.8252 28.8794 32.9788 29.0477C33.0811 29.1576 33.1801 29.2709 33.2756 29.3877C33.4428 29.5903 33.61 29.7929 33.767 30.0059C33.9854 30.3047 34.1901 30.6138 34.3983 30.916C34.3983 30.9641 34.3642 30.9881 34.3334 31.0156C34.098 31.2079 33.866 31.4037 33.6271 31.5891C33.1425 31.9703 32.6273 32.3104 32.095 32.6229C31.5899 32.9182 31.0679 33.1827 30.5321 33.4162C30.0681 33.6189 29.5972 33.794 29.116 33.9451C28.7543 34.0585 28.3926 34.1649 28.0207 34.2405C27.8705 34.2714 27.7204 34.3092 27.5668 34.3401C27.3962 34.3744 27.2256 34.3985 27.055 34.4294C26.9697 34.4431 26.8844 34.4603 26.7991 34.474C26.6762 34.4912 26.5534 34.5084 26.4305 34.5221C26.294 34.5358 26.1576 34.5496 26.0245 34.5599C25.9801 34.5668 25.9358 34.5702 25.8914 34.5771C25.8539 34.5771 25.8163 34.5805 25.7822 34.5805C25.7378 34.5839 25.6935 34.5908 25.6491 34.5942C25.5945 34.5942 25.5365 34.5977 25.4819 34.5977C25.4137 34.6011 25.342 34.608 25.2738 34.6114C25.2567 34.6114 25.2362 34.6148 25.2192 34.6148C24.8814 34.6148 24.5435 34.6148 24.2057 34.6148C24.1989 34.6114 24.1955 34.6114 24.1887 34.6114C24.0999 34.608 24.0112 34.6011 23.9259 34.5942C23.8816 34.5942 23.8406 34.5908 23.7962 34.5908C23.7382 34.5839 23.6836 34.5805 23.6256 34.5736C23.5881 34.5736 23.5506 34.5702 23.5164 34.5702C23.4789 34.5668 23.4414 34.5599 23.4004 34.5565C23.3697 34.5565 23.339 34.553 23.3083 34.553C23.2707 34.5496 23.2332 34.5427 23.1957 34.5393C23.0387 34.5221 22.8817 34.5049 22.7248 34.4843C22.6326 34.474 22.5405 34.4569 22.4484 34.4431C22.3187 34.4225 22.1925 34.4088 22.0628 34.3847C21.8512 34.3435 21.6363 34.3057 21.4281 34.2508C21.1005 34.1684 20.7729 34.0791 20.4488 33.9863C20.2201 33.9211 19.9915 33.8421 19.7663 33.7631C19.5718 33.6944 19.3841 33.6154 19.193 33.5399C18.7153 33.351 18.2547 33.1277 17.8008 32.8873C17.1081 32.5164 16.4461 32.094 15.8217 31.6132C15.5624 31.414 15.3133 31.1976 15.0607 30.9881C15.03 30.9606 15.0027 30.9435 15.0061 30.9057Z" fill="#AAAAB2"/>
<path d="M24.7138 22.7215C23.0793 22.6975 21.6632 22.1308 20.5064 20.9665C19.3496 19.8023 18.7661 18.3839 18.7627 16.7353C18.7627 15.08 19.3564 13.6547 20.5166 12.4904C21.67 11.3365 23.0861 10.7492 24.7103 10.756C26.338 10.7595 27.7507 11.3502 28.9041 12.5145C30.0677 13.6856 30.6478 15.1177 30.6409 16.7662C30.6341 18.401 30.0472 19.816 28.8972 20.97C27.7507 22.1239 26.3414 22.694 24.7138 22.7215Z" fill="#AAAAB2"/>
</svg>
