<svg width="416" height="260" viewBox="0 0 416 260" fill="none" xmlns="http://www.w3.org/2000/svg">
<path d="M352.215 234.22C348.241 220.074 344.313 205.882 340.384 191.69L272.554 216.052C273.467 219.011 274.472 222.57 275.66 226.824C282.1 250.354 291.282 257.381 315.399 257.427C325.174 257.658 334.446 255.439 343.49 251.88C351.621 248.644 354.818 243.605 352.215 234.22Z" fill="#FF0000"/>
<path d="M411.139 140.052C402.552 131.037 392.457 128.217 380.581 132.332C363.498 138.249 346.369 143.982 329.377 150.084C329.286 150.13 329.24 150.13 329.149 150.176L328.829 150.269C317.547 110.003 305.945 69.8304 292.973 30.0735C288.633 16.8059 280.183 9.0394 267.393 4.97126C243.778 -2.51782 220.483 -1.13095 197.142 6.35813C192.803 7.74499 189.377 9.64038 186.682 12.3217C183.074 15.9275 181.658 19.9494 181.064 21.7061C175.171 38.7184 166.127 65.115 155.119 97.8913C155.074 98.03 155.028 98.2612 154.8 98.5385C154.571 98.8159 154.297 98.9084 154.16 98.9546C139.543 105.196 124.927 111.483 110.31 117.724L135.341 114.118C186.956 109.957 213.495 129.096 214.454 129.836H214.499L216.189 124.288C216.418 123.548 216.601 122.855 216.829 122.069C217.24 120.59 217.697 119.157 218.108 117.677L218.473 116.429C219.889 111.714 221.397 107.045 222.904 102.329C226.512 91.3268 230.349 80.3706 234.004 69.3681C234.871 69.3681 235.739 69.3681 236.607 69.3681C241.449 86.4266 246.336 103.439 251.041 120.497C255.746 137.51 257.025 142.271 248.483 143.612C247.341 143.242 246.199 142.918 245.057 142.548C234.552 139.266 224.092 136.03 213.586 132.748C203.217 129.512 192.803 126.23 182.434 122.947C171.7 119.526 160.783 118.694 149.912 121.514C148.77 121.792 147.674 122.115 146.532 122.393C133.194 125.952 119.948 129.928 106.656 133.765C105.423 134.135 103.413 134.135 103.23 135.938C103.002 138.018 105.057 138.48 106.382 139.174C116.202 144.444 126.069 149.714 135.935 154.938C151.465 163.213 167.041 171.534 182.48 179.994C190.291 184.293 198.649 187.668 206.369 193.4C186.134 205.096 166.127 215.405 144.568 222.432C135.204 225.483 125.84 228.072 116.385 230.06C100.261 233.388 83.9087 234.868 67.0539 233.527C45.54 231.816 25.1681 226.639 5.75531 217.116C4.11093 216.33 2.46656 214.712 0 216.145C0.411093 216.977 0.593802 217.902 1.14193 218.503C13.8858 232.602 28.6852 243.79 46.4079 250.632C65.8663 258.121 85.8272 261.31 106.793 259.508C117.801 258.583 128.672 257.335 139.452 255.254C141.233 254.931 142.969 254.561 144.751 254.145C159.641 250.817 174.075 246.101 188.372 240.97C204.816 235.006 221.077 228.442 237.475 222.432C248.483 218.41 259.491 214.342 270.499 210.274C293.201 201.86 315.857 193.308 338.467 184.802C354.043 178.931 369.573 173.06 385.149 167.188C392.731 164.322 400.725 162.473 407.85 158.405C416.712 153.412 417.808 147.033 411.139 140.052Z" fill="#FF0000"/>
</svg>
