<svg width="87" height="18" viewBox="0 0 87 18" fill="none" xmlns="http://www.w3.org/2000/svg">
<path d="M60.54 8.5V7.252H63.036V16H61.656V8.5H60.54ZM65.6473 16.084C65.3993 16.084 65.1913 16 65.0233 15.832C64.8553 15.664 64.7713 15.456 64.7713 15.208C64.7713 14.96 64.8553 14.752 65.0233 14.584C65.1913 14.416 65.3993 14.332 65.6473 14.332C65.8873 14.332 66.0913 14.416 66.2593 14.584C66.4273 14.752 66.5113 14.96 66.5113 15.208C66.5113 15.456 66.4273 15.664 66.2593 15.832C66.0913 16 65.8873 16.084 65.6473 16.084ZM69.5138 13.624C69.5938 14.024 69.7658 14.328 70.0298 14.536C70.2938 14.744 70.6498 14.848 71.0978 14.848C71.6658 14.848 72.0818 14.624 72.3458 14.176C72.6098 13.728 72.7418 12.964 72.7418 11.884C72.5498 12.156 72.2778 12.368 71.9258 12.52C71.5818 12.664 71.2058 12.736 70.7978 12.736C70.2778 12.736 69.8058 12.632 69.3818 12.424C68.9578 12.208 68.6218 11.892 68.3738 11.476C68.1338 11.052 68.0138 10.54 68.0138 9.94C68.0138 9.06 68.2698 8.36 68.7818 7.84C69.3018 7.312 70.0138 7.048 70.9178 7.048C72.0058 7.048 72.7778 7.412 73.2338 8.14C73.6978 8.86 73.9298 9.968 73.9298 11.464C73.9298 12.496 73.8418 13.34 73.6658 13.996C73.4978 14.652 73.2018 15.148 72.7778 15.484C72.3538 15.82 71.7658 15.988 71.0138 15.988C70.1578 15.988 69.4978 15.764 69.0338 15.316C68.5698 14.868 68.3098 14.304 68.2538 13.624H69.5138ZM71.0378 11.584C71.5178 11.584 71.8938 11.436 72.1658 11.14C72.4458 10.836 72.5858 10.436 72.5858 9.94C72.5858 9.388 72.4378 8.96 72.1418 8.656C71.8538 8.344 71.4578 8.188 70.9538 8.188C70.4498 8.188 70.0498 8.348 69.7538 8.668C69.4658 8.98 69.3218 9.392 69.3218 9.904C69.3218 10.392 69.4618 10.796 69.7418 11.116C70.0298 11.428 70.4618 11.584 71.0378 11.584ZM84.391 7.66V16H83.023V10.288L80.479 16H79.531L76.975 10.288V16H75.607V7.66H77.083L80.011 14.2L82.927 7.66H84.391Z" fill="black"/>
<path d="M13.387 17.7439C13.2677 17.7444 13.1513 17.703 13.0544 17.6256L8.49911 13.9505L3.94385 17.6256C3.84653 17.7042 3.72929 17.7463 3.60906 17.7458C3.48884 17.7453 3.37187 17.7023 3.27507 17.6229C3.17826 17.5436 3.10664 17.4321 3.07055 17.3044C3.03446 17.1768 3.03578 17.0397 3.07431 16.913L4.85094 11.057L0.246445 7.54305C0.146709 7.46702 0.0714334 7.35749 0.0316176 7.23046C-0.00819815 7.10344 -0.0104677 6.96557 0.0251406 6.837C0.0607489 6.70844 0.132369 6.59591 0.229536 6.51587C0.326704 6.43583 0.444326 6.39246 0.565218 6.39211H6.24575L7.96004 0.521108C7.99696 0.394356 8.06902 0.283877 8.16587 0.205521C8.26272 0.127166 8.37938 0.0849609 8.49911 0.0849609C8.61885 0.0849609 8.73551 0.127166 8.83236 0.205521C8.92921 0.283877 9.00127 0.394356 9.0382 0.521108L10.7525 6.39408H16.433C16.5541 6.39401 16.6719 6.43708 16.7694 6.51696C16.8669 6.59685 16.9388 6.70937 16.9746 6.83803C17.0104 6.9667 17.0083 7.10475 16.9685 7.23197C16.9288 7.35919 16.8534 7.4689 16.7536 7.54502L12.1473 11.057L13.9229 16.9114C13.9516 17.0062 13.9597 17.1072 13.9465 17.2062C13.9332 17.3052 13.899 17.3992 13.8466 17.4805C13.7943 17.5618 13.7253 17.6281 13.6454 17.6739C13.5654 17.7197 13.4769 17.7437 13.387 17.7439Z" fill="#F7FF00"/>
<path d="M8.49902 0.584961C8.49983 0.584961 8.50142 0.585074 8.50391 0.585938L8.51758 0.59375C8.52393 0.598885 8.53187 0.607176 8.53906 0.618164L8.55859 0.661133L10.2725 6.53418L10.3779 6.89453H16.4336C16.4345 6.89456 16.4361 6.89463 16.4385 6.89551L16.4521 6.90332C16.4587 6.90866 16.4664 6.91734 16.4736 6.92871L16.4932 6.97266C16.4981 6.99064 16.5003 7.00956 16.5 7.02832L16.4912 7.08301C16.4858 7.10037 16.479 7.1144 16.4717 7.125L16.4502 7.14746L11.8438 10.6592L11.5684 10.8701L11.6689 11.2021L13.4443 17.0566C13.4482 17.0694 13.451 17.0828 13.4521 17.0967L13.4512 17.1396C13.4473 17.1682 13.4371 17.1924 13.4258 17.21C13.4146 17.2272 13.4034 17.2363 13.3965 17.2402L13.3857 17.2441H13.3848C13.3839 17.2441 13.3824 17.244 13.3799 17.2432C13.3775 17.2423 13.3734 17.2402 13.3682 17.2363L8.81348 13.5615L8.49902 13.3076L8.18555 13.5615L3.62988 17.2363C3.62372 17.2413 3.61892 17.2441 3.61621 17.2451C3.61383 17.246 3.61221 17.2461 3.61133 17.2461L3.60547 17.2451L3.5918 17.2363C3.58537 17.231 3.5775 17.2231 3.57031 17.2119L3.55176 17.168C3.54681 17.1503 3.54378 17.1318 3.54395 17.1133L3.55273 17.0586L5.3291 11.2021L5.42969 10.8701L5.1543 10.6592L0.549805 7.14551C0.543687 7.14084 0.535612 7.1336 0.52832 7.12305L0.508789 7.08105C0.503346 7.06369 0.500334 7.04503 0.5 7.02637L0.506836 6.9707C0.516757 6.93488 0.534837 6.91209 0.547852 6.90137C0.553896 6.89647 0.558774 6.89457 0.561523 6.89355L0.566406 6.89258H6.62109L6.72559 6.53223L8.44043 0.661133C8.44553 0.643623 8.45179 0.629177 8.45898 0.618164L8.48047 0.59375C8.48647 0.588944 8.49146 0.586908 8.49414 0.585938C8.49663 0.585053 8.49818 0.584969 8.49902 0.584961Z" stroke="black" stroke-opacity="0.32"/>
<path d="M32.387 17.7439C32.2677 17.7444 32.1513 17.703 32.0544 17.6256L27.4991 13.9505L22.9439 17.6256C22.8465 17.7042 22.7293 17.7463 22.6091 17.7458C22.4888 17.7453 22.3719 17.7023 22.2751 17.6229C22.1783 17.5436 22.1066 17.4321 22.0706 17.3044C22.0345 17.1768 22.0358 17.0397 22.0743 16.913L23.8509 11.057L19.2464 7.54305C19.1467 7.46702 19.0714 7.35749 19.0316 7.23046C18.9918 7.10344 18.9895 6.96557 19.0251 6.837C19.0607 6.70844 19.1324 6.59591 19.2295 6.51587C19.3267 6.43583 19.4443 6.39246 19.5652 6.39211H25.2457L26.96 0.521108C26.997 0.394356 27.069 0.283877 27.1659 0.205521C27.2627 0.127166 27.3794 0.0849609 27.4991 0.0849609C27.6189 0.0849609 27.7355 0.127166 27.8324 0.205521C27.9292 0.283877 28.0013 0.394356 28.0382 0.521108L29.7525 6.39408H35.433C35.5541 6.39401 35.6719 6.43708 35.7694 6.51696C35.8669 6.59685 35.9388 6.70937 35.9746 6.83803C36.0104 6.9667 36.0083 7.10475 35.9685 7.23197C35.9288 7.35919 35.8534 7.4689 35.7536 7.54502L31.1473 11.057L32.9229 16.9114C32.9516 17.0062 32.9597 17.1072 32.9465 17.2062C32.9332 17.3052 32.899 17.3992 32.8466 17.4805C32.7943 17.5618 32.7253 17.6281 32.6454 17.6739C32.5654 17.7197 32.4769 17.7437 32.387 17.7439Z" fill="#F7FF00"/>
<path d="M27.499 0.584961C27.4998 0.584961 27.5014 0.585074 27.5039 0.585938L27.5176 0.59375C27.5239 0.598886 27.5319 0.607177 27.5391 0.618164L27.5586 0.661133L29.2725 6.53418L29.3779 6.89453H35.4336C35.4345 6.89456 35.4361 6.89463 35.4385 6.89551L35.4521 6.90332C35.4587 6.90866 35.4664 6.91734 35.4736 6.92871L35.4932 6.97266C35.4981 6.99064 35.5003 7.00956 35.5 7.02832L35.4912 7.08301C35.4858 7.10037 35.479 7.1144 35.4717 7.125L35.4502 7.14746L30.8438 10.6592L30.5684 10.8701L30.6689 11.2021L32.4443 17.0566C32.4482 17.0694 32.451 17.0828 32.4521 17.0967L32.4512 17.1396C32.4493 17.1538 32.4456 17.167 32.4414 17.1787L32.4258 17.21C32.4146 17.2272 32.4033 17.2363 32.3965 17.2402L32.3857 17.2441H32.3848C32.3839 17.2441 32.3823 17.244 32.3799 17.2432C32.3775 17.2423 32.3734 17.2402 32.3682 17.2363L27.8135 13.5615L27.499 13.3076L27.1855 13.5615L22.6299 17.2363C22.6237 17.2413 22.6189 17.2441 22.6162 17.2451C22.6138 17.246 22.6122 17.2461 22.6113 17.2461C22.6105 17.2461 22.6082 17.2461 22.6055 17.2451L22.5918 17.2363C22.5854 17.231 22.5775 17.2231 22.5703 17.2119L22.5518 17.168C22.5468 17.1503 22.5438 17.1318 22.5439 17.1133L22.5527 17.0586L24.3291 11.2021L24.4297 10.8701L24.1543 10.6592L19.5498 7.14551C19.5437 7.14084 19.5356 7.1336 19.5283 7.12305L19.5088 7.08105C19.5033 7.06369 19.5003 7.04503 19.5 7.02637L19.5068 6.9707C19.5168 6.93488 19.5348 6.91209 19.5479 6.90137C19.5539 6.89647 19.5588 6.89457 19.5615 6.89355L19.5664 6.89258H25.6211L25.7256 6.53223L27.4404 0.661133C27.4455 0.643624 27.4518 0.629177 27.459 0.618164L27.4805 0.59375C27.4865 0.588943 27.4915 0.586908 27.4941 0.585938C27.4966 0.585053 27.4982 0.584969 27.499 0.584961Z" stroke="black" stroke-opacity="0.32"/>
<path d="M51.387 17.7438C51.2677 17.7443 51.1513 17.7029 51.0544 17.6255L46.4991 13.9504L41.9439 17.6255C41.8465 17.7041 41.7293 17.7461 41.6091 17.7457C41.4888 17.7452 41.3719 17.7022 41.2751 17.6228C41.1783 17.5435 41.1066 17.4319 41.0706 17.3043C41.0345 17.1767 41.0358 17.0396 41.0743 16.9129L42.8509 11.0569L38.2464 7.543C38.1467 7.46697 38.0714 7.35744 38.0316 7.23042C37.9918 7.10339 37.9895 6.96552 38.0251 6.83696C38.0607 6.70839 38.1324 6.59587 38.2295 6.51583C38.3267 6.43579 38.4443 6.39242 38.5652 6.39207H44.2457L45.96 0.521105C45.997 0.394354 46.069 0.283876 46.1659 0.205521C46.2627 0.127166 46.3794 0.0849609 46.4991 0.0849609C46.6189 0.0849609 46.7355 0.127166 46.8324 0.205521C46.9292 0.283876 47.0013 0.394354 47.0382 0.521105L48.7525 6.39404H54.433C54.5541 6.39397 54.6719 6.43704 54.7694 6.51692C54.8669 6.59681 54.9388 6.70933 54.9746 6.83799C55.0104 6.96665 55.0083 7.1047 54.9685 7.23192C54.9288 7.35914 54.8534 7.46885 54.7536 7.54497L50.1473 11.0569L51.9229 16.9113C51.9516 17.0061 51.9597 17.1071 51.9465 17.2061C51.9332 17.305 51.899 17.3991 51.8466 17.4804C51.7943 17.5617 51.7253 17.628 51.6454 17.6738C51.5654 17.7196 51.4769 17.7436 51.387 17.7438Z" fill="#F7FF00"/>
<path d="M46.499 0.584961C46.4998 0.584961 46.5014 0.585074 46.5039 0.585938L46.5176 0.59375C46.5239 0.598886 46.5319 0.607177 46.5391 0.618164L46.5586 0.661133L48.2725 6.53418L48.3779 6.89355H54.4336C54.4345 6.89358 54.436 6.89462 54.4385 6.89551L54.4521 6.90332C54.4651 6.91393 54.4832 6.93607 54.4932 6.97168C54.4981 6.98951 54.5002 7.00871 54.5 7.02734L54.4912 7.08301C54.4858 7.10037 54.479 7.11441 54.4717 7.125L54.4502 7.14746L49.8438 10.6592L49.5684 10.8701L49.6689 11.2021L51.4443 17.0566C51.4482 17.0694 51.451 17.0828 51.4521 17.0967L51.4512 17.1396C51.4493 17.1539 51.4457 17.167 51.4414 17.1787L51.4258 17.21L51.3965 17.2402L51.3857 17.2441H51.3848C51.3839 17.2441 51.3823 17.244 51.3799 17.2432L51.3662 17.2344L46.8135 13.5615L46.499 13.3076L46.1855 13.5615L41.6299 17.2363C41.6239 17.2412 41.619 17.2431 41.6162 17.2441C41.6138 17.245 41.6122 17.2461 41.6113 17.2461C41.6105 17.2461 41.6082 17.2451 41.6055 17.2441L41.5918 17.2363C41.5854 17.2311 41.5775 17.2231 41.5703 17.2119L41.5518 17.168C41.5468 17.1503 41.5438 17.1318 41.5439 17.1133L41.5527 17.0586V17.0576L43.3291 11.2021L43.4297 10.8701L43.1543 10.6592L38.5498 7.14551C38.5437 7.14085 38.5356 7.13359 38.5283 7.12305L38.5088 7.08105C38.5034 7.0637 38.5003 7.04501 38.5 7.02637L38.5068 6.9707C38.5168 6.93488 38.5348 6.91209 38.5479 6.90137C38.5539 6.89646 38.5588 6.89458 38.5615 6.89355L38.5664 6.8916H44.6211L44.7256 6.53223L46.4404 0.661133C46.4455 0.643624 46.4518 0.629176 46.459 0.618164L46.4805 0.59375C46.4865 0.588944 46.4915 0.586908 46.4941 0.585938C46.4966 0.585054 46.4982 0.584969 46.499 0.584961Z" stroke="black" stroke-opacity="0.32"/>
<path d="M46.5 2.16296L46.4509 12.6956L49.5 15.1488L50.75 16.1876L50.5 15.6682L50.7271 16.14L49 10.4739V11.5127V10.9933L53.5 7.35729H53H48H48.5L46.5 2.16296Z" fill="white"/>
</svg>
