<svg width="134" height="18" viewBox="0 0 134 18" fill="none" xmlns="http://www.w3.org/2000/svg">
<path d="M13.387 17.7515C13.2677 17.7521 13.1513 17.7107 13.0544 17.6333L8.49911 13.9591L3.94385 17.6333C3.84653 17.7119 3.72929 17.7539 3.60906 17.7534C3.48884 17.7529 3.37187 17.7099 3.27507 17.6306C3.17826 17.5513 3.10664 17.4398 3.07055 17.3122C3.03446 17.1846 3.03578 17.0476 3.07431 16.9209L4.85094 11.0663L0.246445 7.55327C0.146709 7.47726 0.0714334 7.36775 0.0316176 7.24076C-0.00819815 7.11376 -0.0104677 6.97593 0.0251406 6.84739C0.0607489 6.71886 0.132369 6.60636 0.229536 6.52634C0.326704 6.44632 0.444326 6.40296 0.565218 6.40261H6.24575L7.96004 0.533084C7.99696 0.406363 8.06902 0.295912 8.16587 0.217576C8.26272 0.13924 8.37938 0.0970459 8.49911 0.0970459C8.61885 0.0970459 8.73551 0.13924 8.83236 0.217576C8.92921 0.295912 9.00127 0.406363 9.0382 0.533084L10.7525 6.40458H16.433C16.5541 6.40451 16.6719 6.44757 16.7694 6.52744C16.8669 6.60731 16.9388 6.71979 16.9746 6.84843C17.0104 6.97706 17.0083 7.11507 16.9685 7.24226C16.9288 7.36945 16.8534 7.47913 16.7536 7.55524L12.1473 11.0663L13.9229 16.9193C13.9516 17.014 13.9597 17.1151 13.9465 17.214C13.9332 17.3129 13.899 17.4069 13.8466 17.4882C13.7943 17.5695 13.7253 17.6358 13.6454 17.6816C13.5654 17.7274 13.4769 17.7514 13.387 17.7515Z" fill="#F7FF00"/>
<path d="M8.49902 0.597046C8.49984 0.597046 8.50143 0.597167 8.50391 0.598022L8.51758 0.606812C8.52392 0.611944 8.53189 0.619294 8.53906 0.630249L8.55859 0.673218L10.2725 6.54431L10.3779 6.90466H16.4336C16.4345 6.90469 16.4361 6.90477 16.4385 6.90564L16.4521 6.91443C16.4651 6.92507 16.4832 6.94702 16.4932 6.98279C16.4981 7.00076 16.5003 7.01969 16.5 7.03845L16.4912 7.09314C16.4858 7.11051 16.479 7.12453 16.4717 7.13513L16.4502 7.15759L11.8438 10.6683L11.5684 10.8793L11.6689 11.2113L13.4443 17.0648C13.4482 17.0776 13.451 17.091 13.4521 17.1049L13.4512 17.1478C13.4473 17.1763 13.437 17.1997 13.4258 17.2172L13.3965 17.2474L13.3857 17.2513H13.3848C13.3839 17.2513 13.3824 17.2513 13.3799 17.2504L13.3662 17.2426L8.81348 13.5697L8.49902 13.3168L8.18555 13.5697L3.62988 17.2445C3.6238 17.2494 3.61892 17.2513 3.61621 17.2523C3.61379 17.2532 3.61224 17.2533 3.61133 17.2533L3.60547 17.2523L3.5918 17.2435C3.58535 17.2382 3.57749 17.2303 3.57031 17.2191L3.55176 17.1761C3.54677 17.1585 3.54381 17.1399 3.54395 17.1215L3.55273 17.0668V17.0658L5.3291 11.2113L5.43066 10.8793L5.1543 10.6683L0.549805 7.15564C0.543682 7.15097 0.535611 7.14374 0.52832 7.13318L0.508789 7.09119C0.49786 7.05633 0.49689 7.01673 0.506836 6.98083C0.511844 6.96276 0.519044 6.94828 0.526367 6.93689L0.547852 6.91248C0.554047 6.90741 0.558731 6.90472 0.561523 6.90369L0.566406 6.90271H6.62012L6.72559 6.54236L8.44043 0.673218C8.44553 0.655734 8.45179 0.641248 8.45898 0.630249L8.48047 0.606812C8.48662 0.601839 8.4914 0.599013 8.49414 0.598022C8.49662 0.597146 8.49817 0.597054 8.49902 0.597046Z" stroke="black" stroke-opacity="0.32"/>
<path d="M32.387 17.7515C32.2677 17.7521 32.1513 17.7107 32.0544 17.6333L27.4991 13.9591L22.9439 17.6333C22.8465 17.7119 22.7293 17.7539 22.6091 17.7534C22.4888 17.7529 22.3719 17.7099 22.2751 17.6306C22.1783 17.5513 22.1066 17.4398 22.0706 17.3122C22.0345 17.1846 22.0358 17.0476 22.0743 16.9209L23.8509 11.0663L19.2464 7.55327C19.1467 7.47726 19.0714 7.36775 19.0316 7.24076C18.9918 7.11376 18.9895 6.97593 19.0251 6.84739C19.0607 6.71886 19.1324 6.60636 19.2295 6.52634C19.3267 6.44632 19.4443 6.40296 19.5652 6.40261H25.2457L26.96 0.533084C26.997 0.406363 27.069 0.295912 27.1659 0.217576C27.2627 0.13924 27.3794 0.0970459 27.4991 0.0970459C27.6189 0.0970459 27.7355 0.13924 27.8324 0.217576C27.9292 0.295912 28.0013 0.406363 28.0382 0.533084L29.7525 6.40458H35.433C35.5541 6.40451 35.6719 6.44757 35.7694 6.52744C35.8669 6.60731 35.9388 6.71979 35.9746 6.84843C36.0104 6.97706 36.0083 7.11507 35.9685 7.24226C35.9288 7.36945 35.8534 7.47913 35.7536 7.55524L31.1473 11.0663L32.9229 16.9193C32.9516 17.014 32.9597 17.1151 32.9465 17.214C32.9332 17.3129 32.899 17.4069 32.8466 17.4882C32.7943 17.5695 32.7253 17.6358 32.6454 17.6816C32.5654 17.7274 32.4769 17.7514 32.387 17.7515Z" fill="#F7FF00"/>
<path d="M27.499 0.597046C27.4998 0.597046 27.5014 0.597167 27.5039 0.598022L27.5176 0.606812C27.5239 0.611944 27.5319 0.619294 27.5391 0.630249L27.5586 0.673218L29.2725 6.54431L29.3779 6.90466H35.4336C35.4345 6.90469 35.4361 6.90477 35.4385 6.90564L35.4521 6.91443C35.4651 6.92507 35.4832 6.94702 35.4932 6.98279C35.4981 7.00076 35.5003 7.01969 35.5 7.03845L35.4912 7.09314C35.4858 7.11051 35.479 7.12453 35.4717 7.13513L35.4502 7.15759L30.8438 10.6683L30.5684 10.8793L30.6689 11.2113L32.4443 17.0648C32.4482 17.0776 32.451 17.091 32.4521 17.1049L32.4512 17.1478C32.4473 17.1763 32.437 17.1997 32.4258 17.2172L32.3965 17.2474L32.3857 17.2513H32.3848C32.3839 17.2513 32.3824 17.2513 32.3799 17.2504L32.3662 17.2426L27.8135 13.5697L27.499 13.3168L27.1855 13.5697L22.6299 17.2445C22.6238 17.2494 22.6189 17.2513 22.6162 17.2523C22.6138 17.2532 22.6122 17.2533 22.6113 17.2533L22.6055 17.2523L22.5918 17.2435C22.5853 17.2382 22.5775 17.2303 22.5703 17.2191L22.5518 17.1761C22.5468 17.1585 22.5438 17.1399 22.5439 17.1215L22.5527 17.0668V17.0658L24.3291 11.2113L24.4307 10.8793L24.1543 10.6683L19.5498 7.15564C19.5437 7.15097 19.5356 7.14374 19.5283 7.13318L19.5088 7.09119C19.4979 7.05633 19.4969 7.01673 19.5068 6.98083C19.5118 6.96276 19.519 6.94828 19.5264 6.93689L19.5479 6.91248C19.554 6.90741 19.5587 6.90472 19.5615 6.90369L19.5664 6.90271H25.6201L25.7256 6.54236L27.4404 0.673218C27.4455 0.655734 27.4518 0.641248 27.459 0.630249L27.4805 0.606812C27.4866 0.601839 27.4914 0.599013 27.4941 0.598022C27.4966 0.597146 27.4982 0.597054 27.499 0.597046Z" stroke="black" stroke-opacity="0.32"/>
<path d="M51.387 17.7515C51.2677 17.7521 51.1513 17.7107 51.0544 17.6333L46.4991 13.9591L41.9439 17.6333C41.8465 17.7119 41.7293 17.7539 41.6091 17.7534C41.4888 17.7529 41.3719 17.7099 41.2751 17.6306C41.1783 17.5513 41.1066 17.4398 41.0706 17.3122C41.0345 17.1846 41.0358 17.0476 41.0743 16.9209L42.8509 11.0663L38.2464 7.55327C38.1467 7.47726 38.0714 7.36775 38.0316 7.24076C37.9918 7.11376 37.9895 6.97593 38.0251 6.84739C38.0607 6.71886 38.1324 6.60636 38.2295 6.52634C38.3267 6.44632 38.4443 6.40296 38.5652 6.40261H44.2457L45.96 0.533084C45.997 0.406363 46.069 0.295912 46.1659 0.217576C46.2627 0.13924 46.3794 0.0970459 46.4991 0.0970459C46.6189 0.0970459 46.7355 0.13924 46.8324 0.217576C46.9292 0.295912 47.0013 0.406363 47.0382 0.533084L48.7525 6.40458H54.433C54.5541 6.40451 54.6719 6.44757 54.7694 6.52744C54.8669 6.60731 54.9388 6.71979 54.9746 6.84843C55.0104 6.97706 55.0083 7.11507 54.9685 7.24226C54.9288 7.36945 54.8534 7.47913 54.7536 7.55524L50.1473 11.0663L51.9229 16.9193C51.9516 17.014 51.9597 17.1151 51.9465 17.214C51.9332 17.3129 51.899 17.4069 51.8466 17.4882C51.7943 17.5695 51.7253 17.6358 51.6454 17.6816C51.5654 17.7274 51.4769 17.7514 51.387 17.7515Z" fill="#F7FF00"/>
<path d="M46.499 0.597046C46.4998 0.597046 46.5014 0.597167 46.5039 0.598022L46.5176 0.606812C46.5239 0.611944 46.5319 0.619294 46.5391 0.630249L46.5586 0.673218L48.2725 6.54431L48.3779 6.90466H54.4336C54.4345 6.90469 54.4361 6.90477 54.4385 6.90564L54.4521 6.91443C54.4651 6.92507 54.4832 6.94702 54.4932 6.98279C54.4981 7.00076 54.5003 7.01969 54.5 7.03845L54.4912 7.09314C54.4858 7.11051 54.479 7.12453 54.4717 7.13513L54.4502 7.15759L49.8438 10.6683L49.5684 10.8793L49.6689 11.2113L51.4443 17.0648C51.4482 17.0776 51.451 17.091 51.4521 17.1049L51.4512 17.1478C51.4473 17.1763 51.437 17.1997 51.4258 17.2172L51.3965 17.2474L51.3857 17.2513H51.3848C51.3839 17.2513 51.3824 17.2513 51.3799 17.2504L51.3662 17.2426L46.8135 13.5697L46.499 13.3168L46.1855 13.5697L41.6299 17.2445C41.6238 17.2494 41.6189 17.2513 41.6162 17.2523C41.6138 17.2532 41.6122 17.2533 41.6113 17.2533L41.6055 17.2523L41.5918 17.2435C41.5853 17.2382 41.5775 17.2303 41.5703 17.2191L41.5518 17.1761C41.5468 17.1585 41.5438 17.1399 41.5439 17.1215L41.5527 17.0668V17.0658L43.3291 11.2113L43.4307 10.8793L43.1543 10.6683L38.5498 7.15564C38.5437 7.15097 38.5356 7.14374 38.5283 7.13318L38.5088 7.09119C38.4979 7.05633 38.4969 7.01673 38.5068 6.98083C38.5118 6.96276 38.519 6.94828 38.5264 6.93689L38.5479 6.91248C38.554 6.90741 38.5587 6.90472 38.5615 6.90369L38.5664 6.90271H44.6201L44.7256 6.54236L46.4404 0.673218C46.4455 0.655734 46.4518 0.641248 46.459 0.630249L46.4805 0.606812C46.4866 0.601839 46.4914 0.599013 46.4941 0.598022C46.4966 0.597146 46.4982 0.597054 46.499 0.597046Z" stroke="black" stroke-opacity="0.32"/>
<path d="M70.387 17.7515C70.2677 17.7521 70.1513 17.7107 70.0544 17.6333L65.4991 13.9591L60.9439 17.6333C60.8465 17.7119 60.7293 17.7539 60.6091 17.7534C60.4888 17.7529 60.3719 17.7099 60.2751 17.6306C60.1783 17.5513 60.1066 17.4398 60.0706 17.3122C60.0345 17.1846 60.0358 17.0476 60.0743 16.9209L61.8509 11.0663L57.2464 7.55327C57.1467 7.47726 57.0714 7.36775 57.0316 7.24076C56.9918 7.11376 56.9895 6.97593 57.0251 6.84739C57.0607 6.71886 57.1324 6.60636 57.2295 6.52634C57.3267 6.44632 57.4443 6.40296 57.5652 6.40261H63.2457L64.96 0.533084C64.997 0.406363 65.069 0.295912 65.1659 0.217576C65.2627 0.13924 65.3794 0.0970459 65.4991 0.0970459C65.6189 0.0970459 65.7355 0.13924 65.8324 0.217576C65.9292 0.295912 66.0013 0.406363 66.0382 0.533084L67.7525 6.40458H73.433C73.5541 6.40451 73.6719 6.44757 73.7694 6.52744C73.8669 6.60731 73.9388 6.71979 73.9746 6.84843C74.0104 6.97706 74.0083 7.11507 73.9685 7.24226C73.9288 7.36945 73.8534 7.47913 73.7536 7.55524L69.1473 11.0663L70.9229 16.9193C70.9516 17.014 70.9597 17.1151 70.9465 17.214C70.9332 17.3129 70.899 17.4069 70.8466 17.4882C70.7943 17.5695 70.7253 17.6358 70.6454 17.6816C70.5654 17.7274 70.4769 17.7514 70.387 17.7515Z" fill="#F7FF00"/>
<path d="M65.499 0.597046C65.4998 0.597046 65.5014 0.597167 65.5039 0.598022L65.5176 0.606812C65.5239 0.611944 65.5319 0.619294 65.5391 0.630249L65.5586 0.673218L67.2725 6.54431L67.3779 6.90466H73.4336C73.4345 6.90469 73.4361 6.90477 73.4385 6.90564L73.4521 6.91443C73.4651 6.92507 73.4832 6.94702 73.4932 6.98279C73.4981 7.00076 73.5003 7.01969 73.5 7.03845L73.4912 7.09314C73.4858 7.11051 73.479 7.12453 73.4717 7.13513L73.4502 7.15759L68.8438 10.6683L68.5684 10.8793L68.6689 11.2113L70.4443 17.0648C70.4482 17.0776 70.451 17.091 70.4521 17.1049L70.4512 17.1478C70.4473 17.1763 70.437 17.1997 70.4258 17.2172L70.3965 17.2474L70.3857 17.2513H70.3848C70.3839 17.2513 70.3824 17.2513 70.3799 17.2504L70.3662 17.2426L65.8135 13.5697L65.499 13.3168L65.1855 13.5697L60.6299 17.2445C60.6238 17.2494 60.6189 17.2513 60.6162 17.2523C60.6138 17.2532 60.6122 17.2533 60.6113 17.2533L60.6055 17.2523L60.5918 17.2435C60.5853 17.2382 60.5775 17.2303 60.5703 17.2191L60.5518 17.1761C60.5468 17.1585 60.5438 17.1399 60.5439 17.1215L60.5527 17.0668V17.0658L62.3291 11.2113L62.4307 10.8793L62.1543 10.6683L57.5498 7.15564C57.5437 7.15097 57.5356 7.14374 57.5283 7.13318L57.5088 7.09119C57.4979 7.05633 57.4969 7.01673 57.5068 6.98083C57.5118 6.96276 57.519 6.94828 57.5264 6.93689L57.5479 6.91248C57.554 6.90741 57.5587 6.90472 57.5615 6.90369L57.5664 6.90271H63.6201L63.7256 6.54236L65.4404 0.673218C65.4455 0.655734 65.4518 0.641248 65.459 0.630249L65.4805 0.606812C65.4866 0.601839 65.4914 0.599013 65.4941 0.598022C65.4966 0.597146 65.4982 0.597054 65.499 0.597046Z" stroke="black" stroke-opacity="0.32"/>
<path d="M89.387 17.7515C89.2677 17.7521 89.1513 17.7107 89.0544 17.6333L84.4991 13.9591L79.9439 17.6333C79.8465 17.7119 79.7293 17.7539 79.6091 17.7534C79.4888 17.753 79.3719 17.7099 79.2751 17.6306C79.1783 17.5513 79.1066 17.4398 79.0706 17.3122C79.0345 17.1846 79.0358 17.0476 79.0743 16.9209L80.8509 11.0663L76.2464 7.55327C76.1467 7.47726 76.0714 7.36775 76.0316 7.24076C75.9918 7.11376 75.9895 6.97593 76.0251 6.84739C76.0607 6.71886 76.1324 6.60637 76.2295 6.52634C76.3267 6.44632 76.4443 6.40296 76.5652 6.40261H82.2457L83.96 0.533084C83.997 0.406363 84.069 0.295912 84.1659 0.217576C84.2627 0.13924 84.3794 0.0970459 84.4991 0.0970459C84.6189 0.0970459 84.7355 0.13924 84.8324 0.217576C84.9292 0.295912 85.0013 0.406363 85.0382 0.533084L86.7525 6.40458H92.433C92.5541 6.40451 92.6719 6.44757 92.7694 6.52744C92.8669 6.60731 92.9388 6.71979 92.9746 6.84843C93.0104 6.97706 93.0083 7.11507 92.9685 7.24226C92.9288 7.36945 92.8534 7.47913 92.7536 7.55524L88.1473 11.0663L89.9229 16.9193C89.9516 17.014 89.9597 17.1151 89.9465 17.214C89.9332 17.3129 89.899 17.4069 89.8466 17.4882C89.7943 17.5695 89.7253 17.6358 89.6454 17.6816C89.5654 17.7274 89.4769 17.7514 89.387 17.7515Z" fill="#F7FF00"/>
<path d="M84.499 0.597046C84.4998 0.597046 84.5014 0.597167 84.5039 0.598022L84.5176 0.606812C84.5239 0.611944 84.5319 0.619295 84.5391 0.630249L84.5586 0.673218L86.2725 6.54431L86.3779 6.90466H92.4336C92.4345 6.90469 92.4361 6.90477 92.4385 6.90564L92.4521 6.91443C92.4651 6.92506 92.4832 6.94701 92.4932 6.98279C92.4981 7.00076 92.5003 7.01969 92.5 7.03845L92.4912 7.09314C92.4858 7.11051 92.479 7.12453 92.4717 7.13513L92.4502 7.15759L87.8438 10.6683L87.5684 10.8793L87.6689 11.2113L89.4443 17.0648C89.4482 17.0776 89.451 17.091 89.4521 17.1049L89.4512 17.1478C89.4492 17.1621 89.4457 17.1752 89.4414 17.1869L89.4258 17.2172L89.3965 17.2474L89.3857 17.2513H89.3848C89.3839 17.2513 89.3824 17.2513 89.3799 17.2504L89.3662 17.2426L84.8135 13.5697L84.499 13.3168L84.1855 13.5697L79.6299 17.2445C79.6238 17.2494 79.6189 17.2513 79.6162 17.2523C79.6138 17.2532 79.6122 17.2533 79.6113 17.2533L79.6055 17.2523L79.5918 17.2435C79.5853 17.2382 79.5775 17.2303 79.5703 17.2191L79.5518 17.1761C79.5468 17.1585 79.5438 17.1399 79.5439 17.1215L79.5527 17.0668V17.0658L81.3291 11.2113L81.4307 10.8793L81.1543 10.6683L76.5498 7.15564C76.5437 7.15097 76.5356 7.14374 76.5283 7.13318L76.5088 7.09119C76.5033 7.07378 76.5003 7.0552 76.5 7.0365L76.5068 6.98083C76.5167 6.94507 76.5348 6.92319 76.5479 6.91248C76.554 6.90741 76.5587 6.90472 76.5615 6.90369L76.5664 6.90271H82.6201L82.7256 6.54236L84.4404 0.673218C84.4455 0.655734 84.4518 0.641248 84.459 0.630249L84.4805 0.606812C84.4866 0.601838 84.4914 0.599012 84.4941 0.598022C84.4966 0.597146 84.4982 0.597054 84.499 0.597046Z" stroke="black" stroke-opacity="0.32"/>
<path d="M107.36 8.428H103.34V10.816C103.508 10.592 103.756 10.404 104.084 10.252C104.42 10.1 104.776 10.024 105.152 10.024C105.824 10.024 106.368 10.168 106.784 10.456C107.208 10.744 107.508 11.108 107.684 11.548C107.868 11.988 107.96 12.452 107.96 12.94C107.96 13.532 107.844 14.06 107.612 14.524C107.388 14.98 107.048 15.34 106.592 15.604C106.144 15.868 105.592 16 104.936 16C104.064 16 103.364 15.784 102.836 15.352C102.308 14.92 101.992 14.348 101.888 13.636H103.22C103.308 14.012 103.504 14.312 103.808 14.536C104.112 14.752 104.492 14.86 104.948 14.86C105.516 14.86 105.94 14.688 106.22 14.344C106.508 14 106.652 13.544 106.652 12.976C106.652 12.4 106.508 11.96 106.22 11.656C105.932 11.344 105.508 11.188 104.948 11.188C104.556 11.188 104.224 11.288 103.952 11.488C103.688 11.68 103.496 11.944 103.376 12.28H102.08V7.228H107.36V8.428ZM110.116 16.084C109.868 16.084 109.66 16 109.492 15.832C109.324 15.664 109.24 15.456 109.24 15.208C109.24 14.96 109.324 14.752 109.492 14.584C109.66 14.416 109.868 14.332 110.116 14.332C110.356 14.332 110.56 14.416 110.728 14.584C110.896 14.752 110.98 14.96 110.98 15.208C110.98 15.456 110.896 15.664 110.728 15.832C110.56 16 110.356 16.084 110.116 16.084ZM113.035 14.14C113.803 13.476 114.407 12.932 114.847 12.508C115.295 12.076 115.667 11.628 115.963 11.164C116.259 10.7 116.407 10.236 116.407 9.772C116.407 9.292 116.291 8.916 116.059 8.644C115.835 8.372 115.479 8.236 114.991 8.236C114.519 8.236 114.151 8.388 113.887 8.692C113.631 8.988 113.495 9.388 113.479 9.892H112.159C112.183 8.98 112.455 8.284 112.975 7.804C113.503 7.316 114.171 7.072 114.979 7.072C115.851 7.072 116.531 7.312 117.019 7.792C117.515 8.272 117.763 8.912 117.763 9.712C117.763 10.288 117.615 10.844 117.319 11.38C117.031 11.908 116.683 12.384 116.275 12.808C115.875 13.224 115.363 13.708 114.739 14.26L114.199 14.74H118.003V15.88H112.171V14.884L113.035 14.14ZM128.168 7.66V16H126.8V10.288L124.256 16H123.308L120.752 10.288V16H119.384V7.66H120.86L123.788 14.2L126.704 7.66H128.168Z" fill="black"/>
<path d="M84.0491 2.12122L84 12.6513L87.0491 15.1039L88.2991 16.1425L88.0491 15.6232L88.2762 16.0949L86.5491 10.4301V11.4687V10.9494L91.0491 7.31427H90.5491H85.5491H86.0491L84.0491 2.12122Z" fill="white"/>
</svg>
