<svg width="134" height="18" viewBox="0 0 134 18" fill="none" xmlns="http://www.w3.org/2000/svg">
<path d="M13.387 17.7032C13.2677 17.7037 13.1513 17.6623 13.0544 17.585L8.49911 13.9108L3.94385 17.585C3.84653 17.6635 3.72929 17.7056 3.60906 17.7051C3.48884 17.7046 3.37187 17.6616 3.27507 17.5823C3.17826 17.503 3.10664 17.3914 3.07055 17.2639C3.03446 17.1363 3.03578 16.9992 3.07431 16.8725L4.85094 11.018L0.246445 7.50493C0.146709 7.42892 0.0714334 7.31941 0.0316176 7.19242C-0.00819815 7.06542 -0.0104677 6.92759 0.0251406 6.79905C0.0607489 6.67052 0.132369 6.55802 0.229536 6.478C0.326704 6.39798 0.444326 6.35462 0.565218 6.35427H6.24575L7.96004 0.484744C7.99696 0.358023 8.06902 0.247572 8.16587 0.169236C8.26272 0.0909006 8.37938 0.0487061 8.49911 0.0487061C8.61885 0.0487061 8.73551 0.0909006 8.83236 0.169236C8.92921 0.247572 9.00127 0.358023 9.0382 0.484744L10.7525 6.35624H16.433C16.5541 6.35617 16.6719 6.39923 16.7694 6.4791C16.8669 6.55897 16.9388 6.67145 16.9746 6.80009C17.0104 6.92872 17.0083 7.06673 16.9685 7.19392C16.9288 7.32111 16.8534 7.43079 16.7536 7.5069L12.1473 11.018L13.9229 16.8709C13.9516 16.9657 13.9597 17.0667 13.9465 17.1657C13.9332 17.2646 13.899 17.3586 13.8466 17.4399C13.7943 17.5212 13.7253 17.5875 13.6454 17.6333C13.5654 17.6791 13.4769 17.703 13.387 17.7032Z" fill="#F7FF00"/>
<path d="M8.49902 0.548706C8.49984 0.548706 8.50143 0.548827 8.50391 0.549683L8.51758 0.558472C8.52392 0.563604 8.53189 0.570954 8.53906 0.581909L8.55859 0.624878L10.2725 6.49597L10.3779 6.85632H16.4336C16.4345 6.85635 16.4361 6.85643 16.4385 6.8573L16.4521 6.86609C16.4651 6.87673 16.4832 6.89868 16.4932 6.93445C16.4981 6.95242 16.5003 6.97135 16.5 6.99011L16.4912 7.0448C16.4858 7.06217 16.479 7.07619 16.4717 7.08679L16.4502 7.10925L11.8438 10.62L11.5684 10.8309L11.6689 11.163L13.4443 17.0165C13.4482 17.0292 13.451 17.0427 13.4521 17.0565L13.4512 17.0995C13.4473 17.1279 13.437 17.1513 13.4258 17.1688L13.3965 17.1991L13.3857 17.203H13.3848C13.3839 17.203 13.3824 17.2029 13.3799 17.202L13.3662 17.1942L8.81348 13.5214L8.49902 13.2684L8.18555 13.5214L3.62988 17.1962C3.6238 17.201 3.61892 17.203 3.61621 17.204C3.61379 17.2048 3.61224 17.2049 3.61133 17.205L3.60547 17.204L3.5918 17.1952C3.58535 17.1899 3.57749 17.182 3.57031 17.1708L3.55176 17.1278C3.54677 17.1102 3.54381 17.0916 3.54395 17.0731L3.55273 17.0184V17.0175L5.3291 11.163L5.43066 10.8309L5.1543 10.62L0.549805 7.1073C0.543682 7.10263 0.535611 7.0954 0.52832 7.08484L0.508789 7.04285C0.49786 7.00799 0.49689 6.96839 0.506836 6.9325C0.511844 6.91442 0.519044 6.89994 0.526367 6.88855L0.547852 6.86414C0.554047 6.85907 0.558731 6.85638 0.561523 6.85535L0.566406 6.85437H6.62012L6.72559 6.49402L8.44043 0.624878C8.44553 0.607394 8.45179 0.592908 8.45898 0.581909L8.48047 0.558472C8.48662 0.553499 8.4914 0.550673 8.49414 0.549683C8.49662 0.548806 8.49817 0.548714 8.49902 0.548706Z" stroke="black" stroke-opacity="0.32"/>
<path d="M32.387 17.7032C32.2677 17.7037 32.1513 17.6623 32.0544 17.585L27.4991 13.9108L22.9439 17.585C22.8465 17.6635 22.7293 17.7056 22.6091 17.7051C22.4888 17.7046 22.3719 17.6616 22.2751 17.5823C22.1783 17.503 22.1066 17.3914 22.0706 17.2639C22.0345 17.1363 22.0358 16.9992 22.0743 16.8725L23.8509 11.018L19.2464 7.50493C19.1467 7.42892 19.0714 7.31941 19.0316 7.19242C18.9918 7.06542 18.9895 6.92759 19.0251 6.79905C19.0607 6.67052 19.1324 6.55802 19.2295 6.478C19.3267 6.39798 19.4443 6.35462 19.5652 6.35427H25.2457L26.96 0.484744C26.997 0.358023 27.069 0.247572 27.1659 0.169236C27.2627 0.0909006 27.3794 0.0487061 27.4991 0.0487061C27.6189 0.0487061 27.7355 0.0909006 27.8324 0.169236C27.9292 0.247572 28.0013 0.358023 28.0382 0.484744L29.7525 6.35624H35.433C35.5541 6.35617 35.6719 6.39923 35.7694 6.4791C35.8669 6.55897 35.9388 6.67145 35.9746 6.80009C36.0104 6.92872 36.0083 7.06673 35.9685 7.19392C35.9288 7.32111 35.8534 7.43079 35.7536 7.5069L31.1473 11.018L32.9229 16.8709C32.9516 16.9657 32.9597 17.0667 32.9465 17.1657C32.9332 17.2646 32.899 17.3586 32.8466 17.4399C32.7943 17.5212 32.7253 17.5875 32.6454 17.6333C32.5654 17.6791 32.4769 17.703 32.387 17.7032Z" fill="#F7FF00"/>
<path d="M27.499 0.548706C27.4998 0.548706 27.5014 0.548827 27.5039 0.549683L27.5176 0.558472C27.5239 0.563604 27.5319 0.570954 27.5391 0.581909L27.5586 0.624878L29.2725 6.49597L29.3779 6.85632H35.4336C35.4345 6.85635 35.4361 6.85643 35.4385 6.8573L35.4521 6.86609C35.4651 6.87673 35.4832 6.89868 35.4932 6.93445C35.4981 6.95242 35.5003 6.97135 35.5 6.99011L35.4912 7.0448C35.4858 7.06217 35.479 7.07619 35.4717 7.08679L35.4502 7.10925L30.8438 10.62L30.5684 10.8309L30.6689 11.163L32.4443 17.0165C32.4482 17.0292 32.451 17.0427 32.4521 17.0565L32.4512 17.0995C32.4473 17.1279 32.437 17.1513 32.4258 17.1688L32.3965 17.1991L32.3857 17.203H32.3848C32.3839 17.203 32.3824 17.2029 32.3799 17.202L32.3662 17.1942L27.8135 13.5214L27.499 13.2684L27.1855 13.5214L22.6299 17.1962C22.6238 17.201 22.6189 17.203 22.6162 17.204C22.6138 17.2048 22.6122 17.2049 22.6113 17.205L22.6055 17.204L22.5918 17.1952C22.5853 17.1899 22.5775 17.182 22.5703 17.1708L22.5518 17.1278C22.5468 17.1102 22.5438 17.0916 22.5439 17.0731L22.5527 17.0184V17.0175L24.3291 11.163L24.4307 10.8309L24.1543 10.62L19.5498 7.1073C19.5437 7.10263 19.5356 7.0954 19.5283 7.08484L19.5088 7.04285C19.4979 7.00799 19.4969 6.96839 19.5068 6.9325C19.5118 6.91442 19.519 6.89994 19.5264 6.88855L19.5479 6.86414C19.554 6.85907 19.5587 6.85638 19.5615 6.85535L19.5664 6.85437H25.6201L25.7256 6.49402L27.4404 0.624878C27.4455 0.607394 27.4518 0.592908 27.459 0.581909L27.4805 0.558472C27.4866 0.553499 27.4914 0.550673 27.4941 0.549683C27.4966 0.548806 27.4982 0.548714 27.499 0.548706Z" stroke="black" stroke-opacity="0.32"/>
<path d="M51.387 17.7032C51.2677 17.7037 51.1513 17.6623 51.0544 17.585L46.4991 13.9108L41.9439 17.585C41.8465 17.6635 41.7293 17.7056 41.6091 17.7051C41.4888 17.7046 41.3719 17.6616 41.2751 17.5823C41.1783 17.503 41.1066 17.3914 41.0706 17.2639C41.0345 17.1363 41.0358 16.9992 41.0743 16.8725L42.8509 11.018L38.2464 7.50493C38.1467 7.42892 38.0714 7.31941 38.0316 7.19242C37.9918 7.06542 37.9895 6.92759 38.0251 6.79905C38.0607 6.67052 38.1324 6.55802 38.2295 6.478C38.3267 6.39798 38.4443 6.35462 38.5652 6.35427H44.2457L45.96 0.484744C45.997 0.358023 46.069 0.247572 46.1659 0.169236C46.2627 0.0909006 46.3794 0.0487061 46.4991 0.0487061C46.6189 0.0487061 46.7355 0.0909006 46.8324 0.169236C46.9292 0.247572 47.0013 0.358023 47.0382 0.484744L48.7525 6.35624H54.433C54.5541 6.35617 54.6719 6.39923 54.7694 6.4791C54.8669 6.55897 54.9388 6.67145 54.9746 6.80009C55.0104 6.92872 55.0083 7.06673 54.9685 7.19392C54.9288 7.32111 54.8534 7.43079 54.7536 7.5069L50.1473 11.018L51.9229 16.8709C51.9516 16.9657 51.9597 17.0667 51.9465 17.1657C51.9332 17.2646 51.899 17.3586 51.8466 17.4399C51.7943 17.5212 51.7253 17.5875 51.6454 17.6333C51.5654 17.6791 51.4769 17.703 51.387 17.7032Z" fill="#F7FF00"/>
<path d="M46.499 0.548706C46.4998 0.548706 46.5014 0.548827 46.5039 0.549683L46.5176 0.558472C46.5239 0.563604 46.5319 0.570954 46.5391 0.581909L46.5586 0.624878L48.2725 6.49597L48.3779 6.85632H54.4336C54.4345 6.85635 54.4361 6.85643 54.4385 6.8573L54.4521 6.86609C54.4651 6.87673 54.4832 6.89868 54.4932 6.93445C54.4981 6.95242 54.5003 6.97135 54.5 6.99011L54.4912 7.0448C54.4858 7.06217 54.479 7.07619 54.4717 7.08679L54.4502 7.10925L49.8438 10.62L49.5684 10.8309L49.6689 11.163L51.4443 17.0165C51.4482 17.0292 51.451 17.0427 51.4521 17.0565L51.4512 17.0995C51.4473 17.1279 51.437 17.1513 51.4258 17.1688L51.3965 17.1991L51.3857 17.203H51.3848C51.3839 17.203 51.3824 17.2029 51.3799 17.202L51.3662 17.1942L46.8135 13.5214L46.499 13.2684L46.1855 13.5214L41.6299 17.1962C41.6238 17.201 41.6189 17.203 41.6162 17.204C41.6138 17.2048 41.6122 17.2049 41.6113 17.205L41.6055 17.204L41.5918 17.1952C41.5853 17.1899 41.5775 17.182 41.5703 17.1708L41.5518 17.1278C41.5468 17.1102 41.5438 17.0916 41.5439 17.0731L41.5527 17.0184V17.0175L43.3291 11.163L43.4307 10.8309L43.1543 10.62L38.5498 7.1073C38.5437 7.10263 38.5356 7.0954 38.5283 7.08484L38.5088 7.04285C38.4979 7.00799 38.4969 6.96839 38.5068 6.9325C38.5118 6.91442 38.519 6.89994 38.5264 6.88855L38.5479 6.86414C38.554 6.85907 38.5587 6.85638 38.5615 6.85535L38.5664 6.85437H44.6201L44.7256 6.49402L46.4404 0.624878C46.4455 0.607394 46.4518 0.592908 46.459 0.581909L46.4805 0.558472C46.4866 0.553499 46.4914 0.550673 46.4941 0.549683C46.4966 0.548806 46.4982 0.548714 46.499 0.548706Z" stroke="black" stroke-opacity="0.32"/>
<path d="M70.387 17.7032C70.2677 17.7037 70.1513 17.6623 70.0544 17.585L65.4991 13.9108L60.9439 17.585C60.8465 17.6635 60.7293 17.7056 60.6091 17.7051C60.4888 17.7046 60.3719 17.6616 60.2751 17.5823C60.1783 17.503 60.1066 17.3914 60.0706 17.2639C60.0345 17.1363 60.0358 16.9992 60.0743 16.8725L61.8509 11.018L57.2464 7.50493C57.1467 7.42892 57.0714 7.31941 57.0316 7.19242C56.9918 7.06542 56.9895 6.92759 57.0251 6.79905C57.0607 6.67052 57.1324 6.55802 57.2295 6.478C57.3267 6.39798 57.4443 6.35462 57.5652 6.35427H63.2457L64.96 0.484744C64.997 0.358023 65.069 0.247572 65.1659 0.169236C65.2627 0.0909006 65.3794 0.0487061 65.4991 0.0487061C65.6189 0.0487061 65.7355 0.0909006 65.8324 0.169236C65.9292 0.247572 66.0013 0.358023 66.0382 0.484744L67.7525 6.35624H73.433C73.5541 6.35617 73.6719 6.39923 73.7694 6.4791C73.8669 6.55897 73.9388 6.67145 73.9746 6.80009C74.0104 6.92872 74.0083 7.06673 73.9685 7.19392C73.9288 7.32111 73.8534 7.43079 73.7536 7.5069L69.1473 11.018L70.9229 16.8709C70.9516 16.9657 70.9597 17.0667 70.9465 17.1657C70.9332 17.2646 70.899 17.3586 70.8466 17.4399C70.7943 17.5212 70.7253 17.5875 70.6454 17.6333C70.5654 17.6791 70.4769 17.703 70.387 17.7032Z" fill="#F7FF00"/>
<path d="M65.499 0.548706C65.4998 0.548706 65.5014 0.548827 65.5039 0.549683L65.5176 0.558472C65.5239 0.563604 65.5319 0.570954 65.5391 0.581909L65.5586 0.624878L67.2725 6.49597L67.3779 6.85632H73.4336C73.4345 6.85635 73.4361 6.85643 73.4385 6.8573L73.4521 6.86609C73.4651 6.87673 73.4832 6.89868 73.4932 6.93445C73.4981 6.95242 73.5003 6.97135 73.5 6.99011L73.4912 7.0448C73.4858 7.06217 73.479 7.07619 73.4717 7.08679L73.4502 7.10925L68.8438 10.62L68.5684 10.8309L68.6689 11.163L70.4443 17.0165C70.4482 17.0292 70.451 17.0427 70.4521 17.0565L70.4512 17.0995C70.4473 17.1279 70.437 17.1513 70.4258 17.1688L70.3965 17.1991L70.3857 17.203H70.3848C70.3839 17.203 70.3824 17.2029 70.3799 17.202L70.3662 17.1942L65.8135 13.5214L65.499 13.2684L65.1855 13.5214L60.6299 17.1962C60.6238 17.201 60.6189 17.203 60.6162 17.204C60.6138 17.2048 60.6122 17.2049 60.6113 17.205L60.6055 17.204L60.5918 17.1952C60.5853 17.1899 60.5775 17.182 60.5703 17.1708L60.5518 17.1278C60.5468 17.1102 60.5438 17.0916 60.5439 17.0731L60.5527 17.0184V17.0175L62.3291 11.163L62.4307 10.8309L62.1543 10.62L57.5498 7.1073C57.5437 7.10263 57.5356 7.0954 57.5283 7.08484L57.5088 7.04285C57.4979 7.00799 57.4969 6.96839 57.5068 6.9325C57.5118 6.91442 57.519 6.89994 57.5264 6.88855L57.5479 6.86414C57.554 6.85907 57.5587 6.85638 57.5615 6.85535L57.5664 6.85437H63.6201L63.7256 6.49402L65.4404 0.624878C65.4455 0.607394 65.4518 0.592908 65.459 0.581909L65.4805 0.558472C65.4866 0.553499 65.4914 0.550673 65.4941 0.549683C65.4966 0.548806 65.4982 0.548714 65.499 0.548706Z" stroke="black" stroke-opacity="0.32"/>
<path d="M89.387 17.7032C89.2677 17.7037 89.1513 17.6623 89.0544 17.585L84.4991 13.9108L79.9439 17.585C79.8465 17.6635 79.7293 17.7056 79.6091 17.7051C79.4888 17.7046 79.3719 17.6616 79.2751 17.5823C79.1783 17.503 79.1066 17.3914 79.0706 17.2639C79.0345 17.1363 79.0358 16.9992 79.0743 16.8725L80.8509 11.018L76.2464 7.50493C76.1467 7.42892 76.0714 7.31941 76.0316 7.19242C75.9918 7.06542 75.9895 6.92759 76.0251 6.79905C76.0607 6.67052 76.1324 6.55802 76.2295 6.478C76.3267 6.39798 76.4443 6.35462 76.5652 6.35427H82.2457L83.96 0.484744C83.997 0.358023 84.069 0.247572 84.1659 0.169236C84.2627 0.0909006 84.3794 0.0487061 84.4991 0.0487061C84.6189 0.0487061 84.7355 0.0909006 84.8324 0.169236C84.9292 0.247572 85.0013 0.358023 85.0382 0.484744L86.7525 6.35624H92.433C92.5541 6.35617 92.6719 6.39923 92.7694 6.4791C92.8669 6.55897 92.9388 6.67145 92.9746 6.80009C93.0104 6.92872 93.0083 7.06673 92.9685 7.19392C92.9288 7.32111 92.8534 7.43079 92.7536 7.5069L88.1473 11.018L89.9229 16.8709C89.9516 16.9657 89.9597 17.0667 89.9465 17.1657C89.9332 17.2646 89.899 17.3586 89.8466 17.4399C89.7943 17.5212 89.7253 17.5875 89.6454 17.6333C89.5654 17.6791 89.4769 17.703 89.387 17.7032Z" fill="#F7FF00"/>
<path d="M84.499 0.548706C84.4998 0.548706 84.5014 0.548827 84.5039 0.549683L84.5176 0.558472C84.5239 0.563604 84.5319 0.570954 84.5391 0.581909L84.5586 0.624878L86.2725 6.49597L86.3779 6.85632H92.4336C92.4345 6.85635 92.4361 6.85643 92.4385 6.8573L92.4521 6.86609C92.4651 6.87673 92.4832 6.89868 92.4932 6.93445C92.4981 6.95242 92.5003 6.97135 92.5 6.99011L92.4912 7.0448C92.4858 7.06217 92.479 7.07619 92.4717 7.08679L92.4502 7.10925L87.8438 10.62L87.5684 10.8309L87.6689 11.163L89.4443 17.0165C89.4482 17.0292 89.451 17.0427 89.4521 17.0565L89.4512 17.0995C89.4473 17.1279 89.437 17.1513 89.4258 17.1688L89.3965 17.1991L89.3857 17.203H89.3848C89.3839 17.203 89.3824 17.2029 89.3799 17.202L89.3662 17.1942L84.8135 13.5214L84.499 13.2684L84.1855 13.5214L79.6299 17.1962C79.6238 17.201 79.6189 17.203 79.6162 17.204C79.6138 17.2048 79.6122 17.2049 79.6113 17.205L79.6055 17.204L79.5918 17.1952C79.5853 17.1899 79.5775 17.182 79.5703 17.1708L79.5518 17.1278C79.5468 17.1102 79.5438 17.0916 79.5439 17.0731L79.5527 17.0184V17.0175L81.3291 11.163L81.4307 10.8309L81.1543 10.62L76.5498 7.1073C76.5437 7.10263 76.5356 7.0954 76.5283 7.08484L76.5088 7.04285C76.4979 7.00799 76.4969 6.96839 76.5068 6.9325C76.5118 6.91442 76.519 6.89994 76.5264 6.88855L76.5479 6.86414C76.554 6.85907 76.5587 6.85638 76.5615 6.85535L76.5664 6.85437H82.6201L82.7256 6.49402L84.4404 0.624878C84.4455 0.607394 84.4518 0.592908 84.459 0.581909L84.4805 0.558472C84.4866 0.553499 84.4914 0.550673 84.4941 0.549683C84.4966 0.548806 84.4982 0.548714 84.499 0.548706Z" stroke="black" stroke-opacity="0.32"/>
<path d="M103.196 10.428C102.364 10.012 101.948 9.356 101.948 8.46C101.948 8.028 102.056 7.632 102.272 7.272C102.488 6.912 102.812 6.628 103.244 6.42C103.676 6.204 104.204 6.096 104.828 6.096C105.444 6.096 105.968 6.204 106.4 6.42C106.84 6.628 107.168 6.912 107.384 7.272C107.6 7.632 107.708 8.028 107.708 8.46C107.708 8.908 107.592 9.304 107.36 9.648C107.136 9.984 106.836 10.244 106.46 10.428C106.916 10.596 107.276 10.872 107.54 11.256C107.804 11.632 107.936 12.076 107.936 12.588C107.936 13.108 107.804 13.568 107.54 13.968C107.276 14.368 106.908 14.676 106.436 14.892C105.964 15.108 105.428 15.216 104.828 15.216C104.228 15.216 103.692 15.108 103.22 14.892C102.756 14.676 102.392 14.368 102.128 13.968C101.864 13.568 101.732 13.108 101.732 12.588C101.732 12.068 101.864 11.62 102.128 11.244C102.392 10.868 102.748 10.596 103.196 10.428ZM106.4 8.628C106.4 8.18 106.26 7.836 105.98 7.596C105.7 7.356 105.316 7.236 104.828 7.236C104.348 7.236 103.968 7.356 103.688 7.596C103.408 7.836 103.268 8.184 103.268 8.64C103.268 9.04 103.412 9.368 103.7 9.624C103.996 9.872 104.372 9.996 104.828 9.996C105.284 9.996 105.66 9.868 105.956 9.612C106.252 9.356 106.4 9.028 106.4 8.628ZM104.828 11.028C104.3 11.028 103.868 11.16 103.532 11.424C103.204 11.68 103.04 12.052 103.04 12.54C103.04 12.996 103.2 13.368 103.52 13.656C103.84 13.936 104.276 14.076 104.828 14.076C105.372 14.076 105.8 13.932 106.112 13.644C106.432 13.356 106.592 12.988 106.592 12.54C106.592 12.06 106.428 11.688 106.1 11.424C105.78 11.16 105.356 11.028 104.828 11.028ZM110.104 15.084C109.856 15.084 109.648 15 109.48 14.832C109.312 14.664 109.228 14.456 109.228 14.208C109.228 13.96 109.312 13.752 109.48 13.584C109.648 13.416 109.856 13.332 110.104 13.332C110.344 13.332 110.548 13.416 110.716 13.584C110.884 13.752 110.968 13.96 110.968 14.208C110.968 14.456 110.884 14.664 110.716 14.832C110.548 15 110.344 15.084 110.104 15.084ZM112.243 8.412C112.291 7.668 112.575 7.088 113.095 6.672C113.623 6.256 114.295 6.048 115.111 6.048C115.671 6.048 116.155 6.148 116.563 6.348C116.971 6.548 117.279 6.82 117.487 7.164C117.695 7.508 117.799 7.896 117.799 8.328C117.799 8.824 117.667 9.248 117.403 9.6C117.139 9.952 116.823 10.188 116.455 10.308V10.356C116.927 10.5 117.295 10.764 117.559 11.148C117.823 11.524 117.955 12.008 117.955 12.6C117.955 13.072 117.847 13.492 117.631 13.86C117.415 14.228 117.095 14.52 116.671 14.736C116.247 14.944 115.739 15.048 115.147 15.048C114.283 15.048 113.571 14.828 113.011 14.388C112.459 13.94 112.163 13.3 112.123 12.468H113.443C113.475 12.892 113.639 13.24 113.935 13.512C114.231 13.776 114.631 13.908 115.135 13.908C115.623 13.908 115.999 13.776 116.263 13.512C116.527 13.24 116.659 12.892 116.659 12.468C116.659 11.908 116.479 11.512 116.119 11.28C115.767 11.04 115.223 10.92 114.487 10.92H114.175V9.792H114.499C115.147 9.784 115.639 9.676 115.975 9.468C116.319 9.26 116.491 8.932 116.491 8.484C116.491 8.1 116.367 7.796 116.119 7.572C115.871 7.34 115.519 7.224 115.063 7.224C114.615 7.224 114.267 7.34 114.019 7.572C113.771 7.796 113.623 8.076 113.575 8.412H112.243ZM128.356 6.66V15H126.988V9.288L124.444 15H123.496L120.94 9.288V15H119.572V6.66H121.048L123.976 13.2L126.892 6.66H128.356Z" fill="black"/>
</svg>
