<svg width="12" height="13" viewBox="0 0 12 13" fill="none" xmlns="http://www.w3.org/2000/svg">
<path d="M8.08569 11.9213C8.05667 11.9213 8.04008 11.9053 8.0235 11.8973C7.73739 11.7409 7.45128 11.5845 7.16102 11.4281C6.90809 11.2918 6.65515 11.1515 6.40636 11.0151C6.38563 11.0031 6.36489 10.9911 6.34001 10.987C6.32757 11.0111 6.33172 11.0352 6.33172 11.0592C6.33172 11.2637 6.33172 11.4642 6.33172 11.6687C6.33172 12.0857 6.33172 12.5028 6.33172 12.9198C6.33172 12.9439 6.33587 12.9719 6.32757 12.996C6.31514 12.996 6.30684 13 6.2944 13C6.08293 13 5.8756 13 5.65999 13C5.65584 12.984 5.65584 12.9719 5.65169 12.9599C5.65169 12.9399 5.65169 12.9158 5.65169 12.8957C5.65169 12.2822 5.65169 11.6727 5.65169 11.0592C5.65169 11.0352 5.65584 11.0071 5.6434 10.983C5.61437 10.987 5.59779 11.0031 5.57706 11.0111C5.30339 11.1595 5.02557 11.3118 4.7519 11.4602C4.48652 11.6046 4.22529 11.7489 3.95992 11.8933C3.93918 11.9053 3.9226 11.9173 3.90187 11.9173C3.89772 11.9093 3.89357 11.9093 3.89357 11.9053C3.89357 11.6647 3.89357 11.4241 3.89357 11.1755C3.91431 11.1635 3.93504 11.1515 3.95577 11.1394C4.49482 10.8467 5.03386 10.55 5.57291 10.2572C5.59779 10.2452 5.62267 10.2292 5.6434 10.2171C5.64755 10.2091 5.64755 10.2091 5.64755 10.2051L5.65169 10.2011C5.65169 9.82819 5.65169 9.45527 5.65169 9.08637C5.65169 9.07033 5.65169 9.0583 5.65169 9.04226C5.65169 9.03825 5.64755 9.03424 5.64755 9.03023C5.63511 9.02221 5.62681 9.02622 5.61852 9.03424C5.56047 9.06632 5.50657 9.09439 5.45266 9.12646C4.96337 9.39914 4.47408 9.6678 3.9848 9.94047C3.95992 9.9525 3.93918 9.96854 3.90601 9.98057C3.89357 9.9525 3.89772 9.93245 3.89772 9.90839C3.89772 9.59562 3.89772 9.27884 3.89772 8.96607C3.89772 8.68137 3.89357 8.39266 3.89357 8.10796C3.89357 8.08791 3.88943 8.07187 3.88943 8.05182C3.87699 8.05182 3.87284 8.05182 3.86455 8.05583C3.51624 8.2483 3.16793 8.44479 2.81963 8.63726C2.81133 8.72147 2.81963 8.80167 2.81963 8.88186C2.81963 8.96206 2.81963 9.04627 2.81963 9.12646C2.81963 9.20666 2.81963 9.29087 2.82377 9.37107C2.82377 9.45126 2.82792 9.53547 2.82792 9.61567C2.82792 9.69587 2.83207 9.78007 2.83207 9.86027C2.83207 9.94047 2.83207 10.0247 2.83621 10.1049C2.83621 10.1851 2.83621 10.2693 2.83621 10.3495C2.83621 10.4297 2.83621 10.5099 2.83621 10.5901C2.79475 10.6221 2.24326 10.9309 2.17692 10.963C2.16033 10.955 2.16448 10.9389 2.16448 10.9229C2.16448 10.7304 2.16033 10.5379 2.16033 10.3455C2.15619 9.92042 2.15204 9.49938 2.14789 9.07434C2.14789 9.06231 2.14789 9.05028 2.14375 9.03825C2.12716 9.02622 2.11472 9.03825 2.10228 9.04627C1.96959 9.11845 1.8369 9.19463 1.70422 9.26681C1.26883 9.51141 0.829302 9.75601 0.393918 9.99661C0.373186 10.0086 0.3566 10.0167 0.335867 10.0287C0.327574 10.0207 0.323428 10.0167 0.319281 10.0126C0.215618 9.83621 0.107809 9.65978 0.00414645 9.48334C-6.33299e-08 9.47933 0 9.47532 0 9.47131C0.0124395 9.44725 0.0373185 9.44324 0.058051 9.43122C0.389772 9.24676 0.721493 9.06231 1.05321 8.87785C1.28127 8.74954 1.51348 8.62122 1.74153 8.49291C1.76227 8.48088 1.77885 8.47286 1.79959 8.46083C1.78715 8.43677 1.76227 8.42875 1.74153 8.41672C1.43884 8.24429 1.13614 8.07187 0.833448 7.89944C0.601244 7.76712 0.373186 7.63479 0.140981 7.50648C0.120249 7.49445 0.0995162 7.48643 0.0829302 7.46638C0.124395 7.4343 0.671735 7.12554 0.746372 7.09346C0.771251 7.09747 0.791983 7.11351 0.812716 7.12955C1.33932 7.43029 1.86593 7.73103 2.39668 8.03177C2.42571 8.04781 2.45473 8.06385 2.48376 8.07989C2.54596 8.05182 2.60401 8.01573 2.66206 7.98365C2.72011 7.95157 2.78231 7.91548 2.84036 7.8834C2.89841 7.85133 2.96061 7.81524 3.01866 7.78316C3.07671 7.75108 3.13891 7.71499 3.19696 7.68291C3.25501 7.65083 3.31721 7.61875 3.37526 7.58266C3.43331 7.55059 3.49551 7.51851 3.55356 7.47841C3.47892 7.43029 3.40843 7.39019 3.33379 7.35009C3.2633 7.30999 3.19281 7.2699 3.12232 7.2298C3.05183 7.1897 2.97719 7.14559 2.9067 7.10549C2.83207 7.06539 2.76158 7.02529 2.68694 6.98519C2.61645 6.9451 2.54596 6.905 2.47547 6.8649C2.40083 6.8248 2.33034 6.7847 2.2557 6.7446C2.18521 6.7045 2.11472 6.6644 2.04423 6.62431C1.96959 6.58421 1.8991 6.54411 1.82446 6.50401C1.83276 6.47995 1.85349 6.47594 1.87008 6.46792C2.16862 6.29951 2.46717 6.1351 2.76572 5.96669C3.01037 5.82634 3.25916 5.686 3.5038 5.54966C3.52039 5.54164 3.53283 5.52961 3.54527 5.52159C3.54527 5.51357 3.54527 5.51357 3.54527 5.51357L3.54112 5.50956C3.20111 5.31709 2.86109 5.12862 2.52108 4.93615C2.50864 4.92813 2.4962 4.92412 2.48376 4.9161C2.1935 5.08051 1.90739 5.24491 1.61714 5.40932C1.32688 5.57372 1.04077 5.73812 0.746372 5.90654C0.52246 5.78223 0.302695 5.65793 0.0829302 5.53362C0.0953697 5.50956 0.111956 5.50555 0.128542 5.49753C0.340014 5.37724 0.555632 5.25293 0.767104 5.13263C1.09468 4.94818 1.41811 4.75972 1.74568 4.57526C1.76641 4.56323 1.783 4.5512 1.80788 4.53917C1.6047 4.42289 1.40152 4.31061 1.20249 4.19833C1.00346 4.08606 0.804423 3.97779 0.60539 3.86551C0.406358 3.75324 0.203179 3.64096 0.00414645 3.52869C0.00829296 3.52067 0.00829289 3.51265 0.00829289 3.50864C0.111956 3.3322 0.219765 3.15577 0.323428 2.97933C0.327574 2.97532 0.331721 2.97131 0.340014 2.96329C0.381479 2.98334 0.422944 3.0074 0.464409 3.03146C0.510021 3.05552 0.551486 3.07958 0.597098 3.10364C0.638563 3.1277 0.680028 3.15176 0.725639 3.17582C0.771251 3.19988 0.812716 3.22394 0.858327 3.248C0.899793 3.27205 0.941258 3.29611 0.982723 3.32017C1.02833 3.34423 1.0698 3.36829 1.11541 3.39235C1.15688 3.41641 1.19834 3.44047 1.23981 3.46453C1.28127 3.48859 1.32274 3.51265 1.3642 3.53671C1.40981 3.56076 1.45128 3.58482 1.49689 3.60888C1.53836 3.63294 1.57982 3.657 1.62129 3.68106C1.6669 3.70512 1.70836 3.72918 1.75397 3.75324C1.79544 3.7773 1.8369 3.80136 1.87837 3.82542C1.92398 3.84948 1.96545 3.87353 2.01106 3.89759C2.05252 3.92165 2.09399 3.94571 2.14375 3.96576C2.14789 3.87754 2.14789 3.79735 2.14789 3.71715C2.14789 3.63695 2.14789 3.56077 2.15204 3.48057C2.15204 3.40037 2.15619 3.31616 2.15619 3.23597C2.15619 3.15577 2.16033 3.07958 2.16033 2.99938C2.16033 2.91919 2.16033 2.83498 2.16448 2.75478C2.16448 2.67458 2.16448 2.5984 2.16448 2.5182C2.16448 2.438 2.16448 2.35379 2.16448 2.2736C2.16448 2.1934 2.16448 2.11721 2.16862 2.04102C2.1935 2.02498 2.20594 2.04102 2.21838 2.04904C2.37595 2.13726 2.53352 2.22548 2.69109 2.3137C2.74084 2.34176 2.7906 2.36983 2.84036 2.3979C2.84036 3.0475 2.82377 3.6971 2.82377 4.35071C3.18037 4.54719 3.53283 4.74769 3.88528 4.94417C3.90601 4.92813 3.89772 4.90808 3.89772 4.89605C3.90187 4.71962 3.90187 4.53917 3.90187 4.36274C3.90187 3.93368 3.90187 3.50864 3.90187 3.07958C3.90187 3.05552 3.89772 3.03146 3.91016 3.0074C3.9848 3.0475 4.05529 3.0876 4.12992 3.1277C4.20041 3.1678 4.27091 3.2079 4.3414 3.248C4.41603 3.28809 4.48652 3.32819 4.56116 3.36829C4.63165 3.40839 4.70214 3.44849 4.77263 3.48859C4.84727 3.52869 4.91776 3.56878 4.9924 3.60888C5.06289 3.64898 5.13338 3.68507 5.20387 3.72517C5.27851 3.76527 5.349 3.80537 5.42363 3.84547C5.49413 3.88556 5.56462 3.92165 5.63925 3.96576C5.6434 3.94972 5.64755 3.9417 5.65169 3.93368C5.65169 3.91764 5.65169 3.90561 5.65169 3.88957C5.65169 3.54072 5.65169 3.18785 5.65169 2.83899C5.65169 2.81894 5.65169 2.79488 5.65169 2.77483C5.45681 2.66656 5.26192 2.56231 5.06704 2.45404C4.87215 2.34577 4.67312 2.23751 4.47823 2.13325C4.28334 2.02899 4.08846 1.92073 3.89772 1.81647C3.88943 1.75231 3.88943 1.12677 3.89772 1.07465C3.91845 1.06663 3.93504 1.08267 3.95162 1.09469C4.11748 1.18291 4.28334 1.27514 4.4492 1.36737C4.82654 1.57187 5.20387 1.78038 5.5812 1.98489C5.60194 1.99692 5.61852 2.00494 5.6434 2.01696C5.64755 2.00494 5.65169 1.99291 5.65169 1.98489C5.65169 1.96484 5.65169 1.94078 5.65169 1.92073C5.65169 1.31123 5.65169 0.701727 5.65169 0.092227C5.65169 0.0641579 5.65169 0.0360889 5.65169 0.00801977C5.66413 0.0040099 5.67657 0 5.68487 0C5.88804 0 6.09122 0 6.2944 0C6.30269 0 6.31099 0.00400996 6.32343 0.00400996C6.32757 0.0160396 6.32757 0.0280691 6.33172 0.0400987C6.33172 0.0601481 6.33172 0.0801975 6.33172 0.096237C6.33172 0.709747 6.33172 1.31925 6.33172 1.93276C6.33172 1.95682 6.33172 1.98489 6.33172 2.00895C6.36489 2.01296 6.38148 1.99692 6.40221 1.98489C6.64686 1.85256 6.88735 1.72023 7.132 1.58791C7.4264 1.42751 7.7208 1.26712 8.0152 1.10672C8.03594 1.09469 8.05667 1.08667 8.0774 1.07465C8.09399 1.08267 8.08984 1.09469 8.08984 1.10271C8.08984 1.33128 8.08984 1.55583 8.08984 1.78439C8.08984 1.79642 8.08984 1.80444 8.08569 1.82048C7.50518 2.13726 6.92052 2.45805 6.33587 2.77483C6.33172 2.843 6.33587 2.90716 6.33587 2.97532C6.33587 3.04349 6.33587 3.10765 6.33587 3.17582C6.33587 3.24399 6.33587 3.30814 6.33587 3.37631C6.33587 3.44448 6.33587 3.50864 6.33587 3.5768C6.33587 3.64497 6.33587 3.70913 6.33587 3.7773C6.33587 3.84146 6.33172 3.90962 6.34001 3.97779C6.4105 3.94972 6.4727 3.90962 6.5349 3.87754C6.60124 3.84146 6.66759 3.80537 6.72979 3.76928C6.79198 3.73319 6.85833 3.70111 6.92053 3.66502C6.98687 3.62893 7.04907 3.59284 7.11541 3.55676C7.17761 3.52067 7.23981 3.48458 7.30615 3.4525C7.3725 3.41641 7.43469 3.38032 7.50104 3.34423C7.56323 3.30814 7.62543 3.27205 7.69178 3.23998C7.75812 3.20389 7.82032 3.1678 7.88666 3.13171C7.94886 3.09963 8.01106 3.05953 8.07326 3.03146C8.08984 3.03948 8.08569 3.05151 8.08569 3.06354C8.08569 3.08359 8.08569 3.10765 8.08569 3.1277C8.08569 3.71314 8.08984 4.29858 8.08984 4.88402C8.08984 4.90808 8.08984 4.93615 8.09399 4.96021C8.11887 4.96422 8.13545 4.94818 8.14789 4.94016C8.33863 4.83189 8.52937 4.72764 8.72426 4.61937C8.8528 4.54719 8.98134 4.47502 9.10988 4.40284C9.13062 4.39081 9.1472 4.38279 9.16793 4.36675C9.16379 4.04195 9.16379 3.71715 9.15964 3.39235C9.15549 3.06755 9.1472 2.74275 9.15135 2.41795C9.36697 2.29766 9.58258 2.17736 9.7982 2.05706C9.80235 2.05305 9.81064 2.05305 9.81894 2.05305C9.83138 2.06909 9.82723 2.08513 9.82723 2.10117C9.83138 2.3177 9.83138 2.53825 9.83138 2.75478C9.83552 3.14775 9.83967 3.54072 9.84381 3.93368C9.84381 3.94972 9.84381 3.96175 9.84796 3.97779C9.87699 3.97779 9.89357 3.96175 9.91016 3.95373C10.1133 3.84146 10.3124 3.72918 10.5114 3.6169C10.8721 3.41641 11.2329 3.21592 11.5895 3.01542C11.6102 3.00339 11.631 2.99537 11.6475 2.98334C11.6558 2.98735 11.6558 2.98735 11.66 2.98735L11.6641 2.99136C11.7636 3.15978 11.8673 3.32819 11.9668 3.49661C11.9751 3.50864 11.9793 3.52067 11.9834 3.52869C11.9834 3.5327 11.9834 3.53671 11.9876 3.54473C11.9254 3.58482 11.8549 3.62091 11.7885 3.657C11.7222 3.69309 11.6558 3.73319 11.5895 3.76928C11.5232 3.80537 11.4568 3.84547 11.3905 3.88155C11.3241 3.91764 11.2578 3.95774 11.1914 3.99383C11.1251 4.02992 11.0629 4.06601 10.9965 4.1021C10.9302 4.13819 10.8639 4.17828 10.7975 4.21437C10.7312 4.25046 10.6648 4.29056 10.5985 4.32665C10.5321 4.36274 10.4658 4.40284 10.3994 4.43893C10.3331 4.47502 10.2668 4.5111 10.1963 4.55521C10.2709 4.60333 10.3455 4.64343 10.416 4.68353C10.4865 4.72363 10.557 4.76373 10.6275 4.80382C10.698 4.84392 10.7726 4.88803 10.8431 4.92813C10.9136 4.96823 10.9883 5.01234 11.0587 5.05244C11.1292 5.09254 11.1997 5.13263 11.2702 5.17273C11.3407 5.21283 11.4153 5.25694 11.4858 5.29704C11.5563 5.33714 11.6268 5.37724 11.6973 5.41733C11.7678 5.45743 11.8424 5.49753 11.9171 5.54565C11.9088 5.55367 11.9046 5.56169 11.8963 5.5657C11.689 5.68199 11.4775 5.79827 11.2702 5.91456C11.2661 5.91857 11.2578 5.91857 11.2495 5.92258C10.6731 5.59377 10.0968 5.26496 9.52453 4.93615C9.52039 4.93615 9.51624 4.93615 9.51624 4.93615C9.51209 4.93615 9.51209 4.93615 9.50795 4.93615C9.49965 4.94016 9.48721 4.94417 9.47892 4.95219C9.13891 5.14065 8.80304 5.32912 8.46303 5.52159C8.45888 5.5256 8.45473 5.5256 8.45473 5.52961C8.46303 5.55367 8.48376 5.55768 8.50449 5.56971C8.81133 5.74213 9.11403 5.91456 9.42087 6.08698C9.65308 6.21931 9.88943 6.34762 10.1216 6.47995C10.1424 6.49198 10.1589 6.50401 10.1838 6.51604C10.0968 6.56817 10.0138 6.61228 9.93089 6.65638C9.84796 6.7045 9.76503 6.74861 9.6821 6.79272C9.59917 6.83683 9.51624 6.88495 9.43331 6.92906C9.35038 6.97316 9.26745 7.02128 9.18452 7.06539C9.10159 7.11351 9.01866 7.15762 8.93988 7.20574C8.85695 7.25386 8.77816 7.29796 8.69523 7.34608C8.6123 7.3942 8.53352 7.43831 8.45059 7.48643C8.45473 7.5145 8.47961 7.51851 8.4962 7.52653C8.69108 7.63479 8.88597 7.74306 9.08086 7.85534C9.20525 7.9235 9.32965 7.99568 9.45404 8.06385C9.47477 8.07588 9.49136 8.0839 9.51624 8.09593C9.66137 8.01573 9.8065 7.93152 9.95162 7.84732C10.0968 7.76311 10.2419 7.68291 10.387 7.5987C10.528 7.51851 10.6731 7.4343 10.8141 7.3541C10.9592 7.26989 11.1044 7.1897 11.2495 7.10549C11.2619 7.1095 11.2702 7.11351 11.2827 7.11752C11.4858 7.2298 11.6932 7.34608 11.8963 7.46237C11.9046 7.46638 11.9088 7.47039 11.9171 7.47841C11.9046 7.50247 11.8798 7.51049 11.859 7.52252C11.5646 7.69093 11.2744 7.85935 10.98 8.02375C10.7395 8.16009 10.499 8.29642 10.2585 8.43276C10.2377 8.44479 10.2211 8.45682 10.2004 8.46885C10.2087 8.4889 10.2294 8.49692 10.246 8.50494C10.4326 8.60919 10.6192 8.71345 10.8017 8.81771C11.179 9.03023 11.5563 9.23874 11.9337 9.45126C11.9544 9.46329 11.9751 9.47532 12 9.49136C11.9668 9.55953 11.9254 9.61968 11.8922 9.68384C11.8549 9.74398 11.8217 9.80814 11.7844 9.86829C11.7471 9.93245 11.7097 9.9926 11.6683 10.0608C11.6434 10.0487 11.6227 10.0367 11.6019 10.0247C11.0463 9.71592 10.4907 9.40315 9.93504 9.09439C9.91016 9.08236 9.88943 9.06231 9.85625 9.0583C9.84796 9.07434 9.84796 9.09439 9.84796 9.11043C9.84381 9.38711 9.84382 9.6678 9.83967 9.94448C9.83552 10.2773 9.83138 10.6101 9.82723 10.9469C9.82723 10.963 9.82723 10.975 9.82308 10.9911C9.81479 10.9911 9.81064 10.9951 9.8065 10.9911C9.736 10.959 9.19281 10.6502 9.15135 10.6221C9.15135 10.3014 9.15964 9.97656 9.15964 9.65176C9.16379 9.32696 9.16379 9.00617 9.16793 8.68939C9.16379 8.68137 9.16379 8.68137 9.16379 8.67736L9.15964 8.67335C8.82377 8.48489 8.48791 8.29642 8.14789 8.10796C8.13545 8.09994 8.12301 8.09593 8.11472 8.08791C8.11472 8.08791 8.11057 8.08791 8.10643 8.08791C8.10643 8.08791 8.10228 8.08791 8.09399 8.09192C8.0857 8.10796 8.08984 8.13202 8.08984 8.15207C8.08984 8.32449 8.08569 8.49291 8.08569 8.66533C8.08569 9.09439 8.08569 9.51943 8.08569 9.94849C8.08569 9.97255 8.08569 9.9926 8.08569 10.0207C8.05667 10.0207 8.04008 10.0046 8.0235 9.99661C7.84105 9.89636 7.65446 9.7921 7.47201 9.68785C7.11956 9.49136 6.7671 9.29889 6.4105 9.10241C6.38977 9.09038 6.36904 9.08236 6.34831 9.07033C6.33172 9.07835 6.33172 9.09038 6.33172 9.0984C6.33172 9.12647 6.33172 9.15854 6.33172 9.18661C6.33172 9.51943 6.33172 9.85225 6.33172 10.1891C6.33172 10.2131 6.33172 10.2372 6.33172 10.2613C6.91638 10.582 7.50104 10.8988 8.08569 11.2196C8.09399 11.2838 8.08984 11.3439 8.08984 11.4041C8.08984 11.4642 8.08984 11.5284 8.08984 11.5885C8.08984 11.6487 8.08984 11.7128 8.08984 11.773C8.08984 11.797 8.09399 11.8572 8.08569 11.9213ZM5.65584 8.25231C5.65584 8.22825 5.65584 8.21622 5.65584 8.20018C5.65584 7.8393 5.65584 7.48242 5.65584 7.12153C5.65584 7.1095 5.65584 7.10148 5.65584 7.08945C5.65584 7.08143 5.65169 7.0694 5.64755 7.05737C5.29095 7.25787 4.93849 7.45435 4.59019 7.64682C4.58189 7.70697 4.57775 8.62523 4.58604 8.80568C4.58604 8.81771 4.59019 8.82573 4.59019 8.83776C4.59848 8.83776 4.60677 8.83775 4.61092 8.83375C4.95923 8.64127 5.30339 8.4488 5.65584 8.25231ZM7.40567 4.11814C7.21907 4.21838 7.04492 4.31863 6.86662 4.41888C6.68832 4.51912 6.51002 4.61937 6.33172 4.71962C6.33172 5.10857 6.33172 5.49352 6.33172 5.88248C6.33172 5.8905 6.33587 5.89852 6.33587 5.91055C6.35245 5.90253 6.36489 5.89852 6.37319 5.89451C6.70491 5.71006 7.03663 5.5256 7.3642 5.34115C7.37664 5.33313 7.38908 5.32511 7.40152 5.31709C7.40567 4.9161 7.40567 4.52714 7.40567 4.11814ZM6.34001 7.06138C6.34001 7.07742 6.33587 7.08945 6.33587 7.10148C6.33587 7.47039 6.33587 7.8393 6.33587 8.21221C6.33587 8.22825 6.34001 8.24028 6.34001 8.25632C6.36075 8.26835 6.38148 8.28038 6.39806 8.29241C6.69247 8.45682 6.98272 8.62122 7.27712 8.78162C7.3103 8.80166 7.34347 8.81771 7.37664 8.83375C7.38493 8.83775 7.39737 8.83776 7.40567 8.83776C7.41396 8.75355 7.40981 7.70296 7.40152 7.65083C7.05736 7.45836 6.7132 7.26588 6.36489 7.07341C6.36075 7.06539 6.35245 7.06539 6.34001 7.06138ZM5.64755 5.90253C5.66413 5.88248 5.65584 5.85842 5.65584 5.83436C5.65584 5.4855 5.65584 5.13263 5.65584 4.78378C5.65584 4.77175 5.65584 4.75972 5.65584 4.74368C5.65584 4.72363 5.65169 4.7116 5.63096 4.70358C5.61852 4.69556 5.60608 4.68754 5.5895 4.67952C5.44022 4.59531 5.29509 4.51511 5.14582 4.43091C4.97167 4.33467 4.80166 4.23843 4.62751 4.1422C4.61507 4.13418 4.59848 4.11814 4.58189 4.13017C4.58189 4.13418 4.57775 4.13819 4.57775 4.1422C4.57775 4.51511 4.57775 4.88402 4.57775 5.25694C4.57775 5.27298 4.57775 5.28501 4.57775 5.30105C4.57775 5.30506 4.57775 5.30506 4.57775 5.30907C4.57775 5.30907 4.57775 5.31308 4.58189 5.31709C4.92605 5.50956 5.27021 5.70204 5.61852 5.89451C5.63096 5.90253 5.63925 5.90253 5.64755 5.90253ZM6.68003 6.48797C7.04077 6.68846 7.39323 6.88495 7.74568 7.08143C7.75812 7.07742 7.76641 7.07341 7.77471 7.0694C8.11472 6.88094 8.45059 6.69247 8.7906 6.50401C8.79889 6.5 8.81133 6.49599 8.81133 6.47594C8.45888 6.27946 8.10643 6.08297 7.75812 5.88649C7.68763 5.91456 6.72979 6.45188 6.68003 6.48797ZM3.17623 6.48797C3.53283 6.68445 3.88528 6.88495 4.24188 7.08143C4.59848 6.88495 4.95093 6.68445 5.30339 6.48797C5.29924 6.47995 5.29924 6.47995 5.29924 6.47594L5.29509 6.47193C5.29095 6.46792 5.28265 6.46391 5.27851 6.4599C4.93435 6.26743 4.59433 6.07896 4.25017 5.88649C4.25017 5.88649 4.24603 5.88649 4.24188 5.88649C4.23773 5.88649 4.23773 5.88649 4.22944 5.88649C3.88528 6.07896 3.53697 6.27144 3.18867 6.46792C3.18867 6.47193 3.18452 6.47995 3.17623 6.48797Z" fill="black"/>
</svg>
