<svg width="132" height="28" viewBox="0 0 132 28" fill="none" xmlns="http://www.w3.org/2000/svg">
<path d="M7.76 3.48C8.21333 3.21333 8.89333 2.96 9.8 2.72C10.7333 2.48 11.6667 2.36 12.6 2.36C13.9333 2.36 15.1067 2.56 16.12 2.96C17.16 3.33333 17.8267 3.93333 18.12 4.76C18.6 6.14667 19.12 7.76 19.68 9.6C20.24 11.44 20.8 13.3467 21.36 15.32C21.92 17.2667 22.4667 19.2 23 21.12C23.5333 23.0133 24 24.6933 24.4 26.16C24.08 26.5333 23.6 26.8267 22.96 27.04C22.32 27.28 21.56 27.4 20.68 27.4C20.04 27.4 19.4933 27.3467 19.04 27.24C18.6133 27.1333 18.2533 26.9733 17.96 26.76C17.6933 26.5467 17.4667 26.2667 17.28 25.92C17.12 25.5733 16.9733 25.1733 16.84 24.72L16.12 21.96H8.88C8.66667 22.76 8.45333 23.5867 8.24 24.44C8.02667 25.2933 7.81333 26.12 7.6 26.92C7.22667 27.0533 6.82667 27.16 6.4 27.24C6 27.3467 5.50667 27.4 4.92 27.4C3.56 27.4 2.54667 27.1733 1.88 26.72C1.24 26.24 0.92 25.5867 0.92 24.76C0.92 24.3867 0.973333 24.0133 1.08 23.64C1.18667 23.2667 1.30667 22.8267 1.44 22.32C1.62667 21.6 1.88 20.7067 2.2 19.64C2.54667 18.5733 2.92 17.4267 3.32 16.2C3.72 14.9467 4.14667 13.6667 4.6 12.36C5.05333 11.0533 5.48 9.82667 5.88 8.68C6.28 7.50667 6.64 6.46667 6.96 5.56C7.30667 4.65333 7.57333 3.96 7.76 3.48ZM12.56 8.64C12.1867 9.76 11.76 11.0133 11.28 12.4C10.8267 13.76 10.4133 15.1467 10.04 16.56H15C14.6267 15.12 14.24 13.72 13.84 12.36C13.4667 10.9733 13.12 9.73333 12.8 8.64H12.56ZM46.9656 17.28C46.9656 18.9333 46.7123 20.4133 46.2056 21.72C45.699 23 44.979 24.08 44.0456 24.96C43.139 25.84 42.0456 26.5067 40.7656 26.96C39.4856 27.4133 38.059 27.64 36.4856 27.64C34.9123 27.64 33.4856 27.4 32.2056 26.92C30.9256 26.44 29.819 25.76 28.8856 24.88C27.979 23.9733 27.2723 22.88 26.7656 21.6C26.259 20.32 26.0056 18.88 26.0056 17.28C26.0056 15.7067 26.259 14.28 26.7656 13C27.2723 11.72 27.979 10.64 28.8856 9.76C29.819 8.85333 30.9256 8.16 32.2056 7.68C33.4856 7.2 34.9123 6.96 36.4856 6.96C38.059 6.96 39.4856 7.21333 40.7656 7.72C42.0456 8.2 43.139 8.89333 44.0456 9.8C44.979 10.68 45.699 11.76 46.2056 13.04C46.7123 14.32 46.9656 15.7333 46.9656 17.28ZM32.9656 17.28C32.9656 18.9067 33.2723 20.16 33.8856 21.04C34.5256 21.8933 35.4056 22.32 36.5256 22.32C37.6456 22.32 38.499 21.88 39.0856 21C39.699 20.12 40.0056 18.88 40.0056 17.28C40.0056 15.68 39.699 14.4533 39.0856 13.6C38.4723 12.72 37.6056 12.28 36.4856 12.28C35.3656 12.28 34.499 12.72 33.8856 13.6C33.2723 14.4533 32.9656 15.68 32.9656 17.28ZM66.6831 21.2C66.6831 23.2267 65.9231 24.8133 64.4031 25.96C62.8831 27.1067 60.6431 27.68 57.6831 27.68C56.5631 27.68 55.5231 27.6 54.5631 27.44C53.6031 27.28 52.7765 27.04 52.0831 26.72C51.4165 26.3733 50.8831 25.9467 50.4831 25.44C50.1098 24.9333 49.9231 24.3333 49.9231 23.64C49.9231 23 50.0565 22.4667 50.3231 22.04C50.5898 21.5867 50.9098 21.2133 51.2831 20.92C52.0565 21.3467 52.9365 21.7333 53.9231 22.08C54.9365 22.4 56.0965 22.56 57.4031 22.56C58.2298 22.56 58.8565 22.44 59.2831 22.2C59.7365 21.96 59.9631 21.64 59.9631 21.24C59.9631 20.8667 59.8031 20.5733 59.4831 20.36C59.1631 20.1467 58.6298 19.9733 57.8831 19.84L56.6831 19.6C54.3631 19.1467 52.6298 18.44 51.4831 17.48C50.3631 16.4933 49.8031 15.0933 49.8031 13.28C49.8031 12.2933 50.0165 11.4 50.4431 10.6C50.8698 9.8 51.4698 9.13333 52.2431 8.6C53.0165 8.06667 53.9365 7.65333 55.0031 7.36C56.0965 7.06667 57.2965 6.92 58.6031 6.92C59.5898 6.92 60.5098 7 61.3631 7.16C62.2431 7.29333 63.0031 7.50667 63.6431 7.8C64.2831 8.09333 64.7898 8.48 65.1631 8.96C65.5365 9.41333 65.7231 9.96 65.7231 10.6C65.7231 11.2133 65.6031 11.7467 65.3631 12.2C65.1498 12.6267 64.8698 12.9867 64.5231 13.28C64.3098 13.1467 63.9898 13.0133 63.5631 12.88C63.1365 12.72 62.6698 12.5867 62.1631 12.48C61.6565 12.3467 61.1365 12.24 60.6031 12.16C60.0965 12.08 59.6298 12.04 59.2031 12.04C58.3231 12.04 57.6431 12.1467 57.1631 12.36C56.6831 12.5467 56.4431 12.8533 56.4431 13.28C56.4431 13.5733 56.5765 13.8133 56.8431 14C57.1098 14.1867 57.6165 14.36 58.3631 14.52L59.6031 14.8C62.1631 15.3867 63.9765 16.2 65.0431 17.24C66.1365 18.2533 66.6831 19.5733 66.6831 21.2ZM78.6813 22.68C79.1346 22.68 79.6279 22.64 80.1613 22.56C80.7213 22.4533 81.1346 22.32 81.4013 22.16V18.96L78.5213 19.2C77.7746 19.2533 77.1613 19.4133 76.6813 19.68C76.2013 19.9467 75.9613 20.3467 75.9613 20.88C75.9613 21.4133 76.1613 21.8533 76.5613 22.2C76.9879 22.52 77.6946 22.68 78.6813 22.68ZM78.3613 6.96C79.8013 6.96 81.1079 7.10667 82.2813 7.4C83.4813 7.69333 84.4946 8.14667 85.3213 8.76C86.1746 9.34667 86.8279 10.1067 87.2813 11.04C87.7346 11.9467 87.9613 13.0267 87.9613 14.28V23.24C87.9613 23.9333 87.7613 24.5067 87.3613 24.96C86.9879 25.3867 86.5346 25.76 86.0013 26.08C84.2679 27.12 81.8279 27.64 78.6813 27.64C77.2679 27.64 75.9879 27.5067 74.8413 27.24C73.7213 26.9733 72.7479 26.5733 71.9213 26.04C71.1213 25.5067 70.4946 24.8267 70.0413 24C69.6146 23.1733 69.4013 22.2133 69.4013 21.12C69.4013 19.28 69.9479 17.8667 71.0413 16.88C72.1346 15.8933 73.8279 15.28 76.1213 15.04L81.3613 14.48V14.2C81.3613 13.4267 81.0146 12.88 80.3213 12.56C79.6546 12.2133 78.6813 12.04 77.4013 12.04C76.3879 12.04 75.4013 12.1467 74.4413 12.36C73.4813 12.5733 72.6146 12.84 71.8413 13.16C71.4946 12.92 71.2013 12.56 70.9613 12.08C70.7213 11.5733 70.6013 11.0533 70.6013 10.52C70.6013 9.82667 70.7613 9.28 71.0813 8.88C71.4279 8.45333 71.9479 8.09333 72.6413 7.8C73.4146 7.50667 74.3213 7.29333 75.3613 7.16C76.4279 7.02667 77.4279 6.96 78.3613 6.96ZM111.119 23.48C110.986 24.7333 110.612 25.6933 109.999 26.36C109.412 27.0267 108.546 27.36 107.399 27.36C106.546 27.36 105.786 27.16 105.119 26.76C104.452 26.3333 103.732 25.6267 102.959 24.64L98.9991 19.68V26.96C98.7057 27.0133 98.2657 27.08 97.6791 27.16C97.1191 27.2667 96.5457 27.32 95.9591 27.32C95.3724 27.32 94.8391 27.28 94.3591 27.2C93.9057 27.12 93.5191 26.96 93.1991 26.72C92.8791 26.48 92.6257 26.16 92.4391 25.76C92.2791 25.3333 92.1991 24.7867 92.1991 24.12V0.959999C92.4924 0.879999 92.9191 0.799999 93.4791 0.72C94.0657 0.613333 94.6524 0.559999 95.2391 0.559999C95.8257 0.559999 96.3457 0.599999 96.7991 0.679998C97.2791 0.759998 97.6791 0.919999 97.9991 1.16C98.3191 1.4 98.5591 1.73333 98.7191 2.16C98.9057 2.56 98.9991 3.09333 98.9991 3.76V14.32L105.879 7.28C107.266 7.28 108.372 7.58667 109.199 8.2C110.052 8.81333 110.479 9.58667 110.479 10.52C110.479 10.92 110.412 11.2933 110.279 11.64C110.146 11.96 109.932 12.2933 109.639 12.64C109.372 12.9867 109.012 13.36 108.559 13.76C108.132 14.1333 107.626 14.5733 107.039 15.08L104.719 17.08L111.119 23.48ZM122.705 22.68C123.158 22.68 123.651 22.64 124.185 22.56C124.745 22.4533 125.158 22.32 125.425 22.16V18.96L122.545 19.2C121.798 19.2533 121.185 19.4133 120.705 19.68C120.225 19.9467 119.985 20.3467 119.985 20.88C119.985 21.4133 120.185 21.8533 120.585 22.2C121.011 22.52 121.718 22.68 122.705 22.68ZM122.385 6.96C123.825 6.96 125.131 7.10667 126.305 7.4C127.505 7.69333 128.518 8.14667 129.345 8.76C130.198 9.34667 130.851 10.1067 131.305 11.04C131.758 11.9467 131.985 13.0267 131.985 14.28V23.24C131.985 23.9333 131.785 24.5067 131.385 24.96C131.011 25.3867 130.558 25.76 130.025 26.08C128.291 27.12 125.851 27.64 122.705 27.64C121.291 27.64 120.011 27.5067 118.865 27.24C117.745 26.9733 116.771 26.5733 115.945 26.04C115.145 25.5067 114.518 24.8267 114.065 24C113.638 23.1733 113.425 22.2133 113.425 21.12C113.425 19.28 113.971 17.8667 115.065 16.88C116.158 15.8933 117.851 15.28 120.145 15.04L125.385 14.48V14.2C125.385 13.4267 125.038 12.88 124.345 12.56C123.678 12.2133 122.705 12.04 121.425 12.04C120.411 12.04 119.425 12.1467 118.465 12.36C117.505 12.5733 116.638 12.84 115.865 13.16C115.518 12.92 115.225 12.56 114.985 12.08C114.745 11.5733 114.625 11.0533 114.625 10.52C114.625 9.82667 114.785 9.28 115.105 8.88C115.451 8.45333 115.971 8.09333 116.665 7.8C117.438 7.50667 118.345 7.29333 119.385 7.16C120.451 7.02667 121.451 6.96 122.385 6.96Z" fill="black"/>
</svg>
