<svg width="175" height="53" viewBox="0 0 175 53" fill="none" xmlns="http://www.w3.org/2000/svg">
<mask id="mask0_210_129" style="mask-type:luminance" maskUnits="userSpaceOnUse" x="0" y="0" width="175" height="53">
<path d="M174.9 0H0V53H174.9V0Z" fill="white"/>
</mask>
<g mask="url(#mask0_210_129)">
<path d="M160.972 0.000172249H13.9358C13.3999 0.000172249 12.8703 0.000172249 12.3358 0.00282224C11.8883 0.00547224 11.4444 0.0131705 10.9926 0.0196497C10.0112 0.0301196 9.03206 0.108393 8.06375 0.253789C7.09679 0.402352 6.16012 0.682433 5.28544 1.08456C4.41181 1.4901 3.61355 2.01704 2.91964 2.64628C2.22206 3.27376 1.64059 3.99903 1.19755 4.79422C0.753305 5.58782 0.44526 6.43824 0.28406 7.31611C0.121328 8.19286 0.0337603 9.07974 0.0221431 9.96875C0.00857955 10.375 0.00714718 10.7826 0 11.1889V41.8152C0.00714718 42.2266 0.00857955 42.6251 0.0221431 43.0367C0.0337639 43.9256 0.121332 44.8125 0.28406 45.6892C0.444814 46.5676 0.752878 47.4185 1.19755 48.2124C1.64038 49.005 2.22195 49.7274 2.91964 50.3514C3.61093 50.9834 4.40969 51.5107 5.28544 51.9131C6.16012 52.3163 7.09669 52.598 8.06375 52.7489C9.03222 52.8931 10.0112 52.9714 10.9926 52.9832C11.4444 52.9922 11.8883 52.9974 12.3358 52.9974C12.8703 53 13.3999 53 13.9358 53H160.972C161.498 53 162.032 53 162.556 52.9974C163.001 52.9974 163.459 52.9922 163.904 52.9832C164.883 52.9721 165.861 52.8938 166.827 52.7489C167.797 52.597 168.737 52.3153 169.616 51.9131C170.49 51.5105 171.289 50.9831 171.98 50.3514C172.675 49.7249 173.258 49.003 173.706 48.2124C174.149 47.4179 174.453 46.567 174.611 45.6892C174.774 44.8123 174.866 43.9258 174.883 43.0367C174.888 42.6251 174.888 42.2266 174.888 41.8152C174.9 41.3338 174.9 40.8551 174.9 40.3659V12.6355C174.9 12.1503 174.9 11.6689 174.888 11.1889C174.888 10.7826 174.888 10.375 174.883 9.96869C174.866 9.07961 174.774 8.19293 174.611 7.31606C174.452 6.43869 174.147 5.58835 173.706 4.79417C172.805 3.2003 171.374 1.9029 169.616 1.08444C168.737 0.683297 167.797 0.403289 166.827 0.25367C165.861 0.107633 164.883 0.0293324 163.904 0.0194642C163.459 0.0129982 163.001 0.00523374 162.556 0.00264999C162.032 0 161.498 0.000172249 160.972 0.000172249Z" fill="black"/>
<path d="M12.304 51.7646C11.8585 51.7646 11.4237 51.7595 10.9817 51.7505C10.0659 51.7397 9.15231 51.6678 8.24833 51.535C7.40542 51.4038 6.58888 51.1599 5.82561 50.8112C5.06935 50.4653 4.37959 50.0119 3.78273 49.4681C3.17723 48.9309 2.67312 48.3077 2.29039 47.6232C1.90344 46.9345 1.63564 46.1961 1.49633 45.4339C1.34589 44.6149 1.2645 43.7869 1.25285 42.9568C1.24358 42.6782 1.23145 41.7506 1.23145 41.7506V11.2323C1.23145 11.2323 1.24437 10.3189 1.25293 10.0505C1.26408 9.22178 1.345 8.39499 1.49499 7.57734C1.63456 6.8131 1.90255 6.07261 2.28972 5.38152C2.67104 4.69761 3.17235 4.07393 3.77419 3.53468C4.37537 2.99032 5.06735 2.5345 5.8249 2.1839C6.5864 1.8363 7.40141 1.59405 8.24262 1.4653C9.14956 1.33129 10.0663 1.25884 10.9853 1.24855L12.3048 1.23242H162.588L163.923 1.2492C164.834 1.25897 165.741 1.33078 166.641 1.464C167.49 1.59438 168.313 1.8383 169.084 2.18777C170.601 2.89435 171.836 4.01224 172.615 5.38474C172.997 6.07108 173.261 6.80551 173.399 7.56314C173.55 8.38751 173.634 9.2208 173.652 10.0563C173.657 10.4305 173.657 10.8324 173.657 11.2323C173.668 11.7277 173.668 12.1993 173.668 12.6747V40.3237C173.668 40.8036 173.668 41.272 173.657 41.7441C173.657 42.1738 173.657 42.5673 173.65 42.9723C173.634 43.7929 173.55 44.6114 173.401 45.4209C173.265 46.1886 172.998 46.9328 172.611 47.6272C172.226 48.3041 171.725 48.922 171.126 49.4578C170.529 50.0045 169.838 50.4607 169.079 50.8087C168.312 51.1602 167.489 51.405 166.641 51.535C165.736 51.6684 164.823 51.7404 163.908 51.7505C163.478 51.7595 163.03 51.7646 162.594 51.7646L161.01 51.7673L12.304 51.7646Z" fill="black"/>
<path d="M32.7958 26.898C32.81 25.792 33.1036 24.7077 33.6491 23.7459C34.1947 22.7839 34.9745 21.9758 35.916 21.3965C35.3179 20.5417 34.5287 19.8382 33.6114 19.3419C32.6941 18.8456 31.6738 18.5703 30.6314 18.5375C28.408 18.3041 26.2525 19.869 25.1195 19.869C23.9645 19.869 22.22 18.5607 20.3416 18.5994C19.1265 18.6388 17.9424 18.9923 16.9044 19.6258C15.8665 20.2591 15.0103 21.1508 14.4191 22.2139C11.8584 26.6505 13.7685 33.171 16.2215 36.7572C17.4487 38.5132 18.8831 40.4749 20.7599 40.4053C22.5965 40.329 23.2824 39.2334 25.4993 39.2334C27.6956 39.2334 28.3391 40.4053 30.254 40.3611C32.2247 40.329 33.4664 38.5972 34.6505 36.8245C35.5323 35.5732 36.2108 34.1903 36.6611 32.7268C35.5161 32.2423 34.5391 31.4311 33.8517 30.3946C33.1644 29.358 32.7971 28.1419 32.7958 26.898Z" fill="white"/>
<path d="M29.179 16.1794C30.2536 14.8886 30.7829 13.2294 30.6548 11.5543C29.0131 11.7269 27.4968 12.512 26.4076 13.7534C25.8753 14.3597 25.4674 15.0652 25.2076 15.8294C24.9478 16.5936 24.841 17.4016 24.8933 18.2072C25.7144 18.2156 26.5268 18.0375 27.2692 17.6862C28.0116 17.3351 28.6645 16.8198 29.179 16.1794Z" fill="white"/>
<path d="M56.0109 35.96H49.7436L48.2385 40.4073H45.584L51.5203 23.9535H54.2782L60.2146 40.4073H57.5147L56.0109 35.96ZM50.3927 33.9078H55.3606L52.9116 26.6901H52.8431L50.3927 33.9078Z" fill="white"/>
<path d="M73.0347 34.4096C73.0347 38.1375 71.0409 40.5325 68.0321 40.5325C67.2698 40.5724 66.5118 40.3967 65.8447 40.0255C65.1777 39.6543 64.6285 39.1026 64.2603 38.4337H64.2033V44.3754H61.7427V28.4108H64.1245V30.4061H64.1697C64.555 29.7403 65.1133 29.1915 65.7855 28.8181C66.4577 28.4446 67.2184 28.2605 67.9867 28.2853C71.0292 28.2853 73.0347 30.692 73.0347 34.4096ZM70.5056 34.4096C70.5056 31.9808 69.2513 30.3841 67.3376 30.3841C65.4576 30.3841 64.193 32.0145 64.193 34.4096C64.193 36.8266 65.4576 38.4454 67.3376 38.4454C69.2513 38.4454 70.5056 36.8603 70.5056 34.4096Z" fill="white"/>
<path d="M86.2292 34.4096C86.2292 38.1373 84.2353 40.5325 81.2264 40.5325C80.4641 40.5724 79.7062 40.3967 79.0391 40.0255C78.3721 39.6543 77.8229 39.1026 77.4546 38.4337H77.3977V44.3754H74.937V28.4108H77.3188V30.4061H77.364C77.7493 29.7403 78.3077 29.1915 78.9799 28.8181C79.652 28.4446 80.4127 28.2605 81.1811 28.2853C84.2237 28.2853 86.2292 30.692 86.2292 34.4096ZM83.6999 34.4096C83.6999 31.9808 82.4457 30.3841 80.532 30.3841C78.6519 30.3841 77.3873 32.0144 77.3873 34.4096C77.3873 36.8266 78.6519 38.4454 80.532 38.4454C82.4457 38.4454 83.6999 36.8603 83.6999 34.4096Z" fill="white"/>
<path d="M94.9495 35.8223C95.1318 37.4541 96.7157 38.5253 98.8802 38.5253C100.954 38.5253 102.446 37.454 102.446 35.9828C102.446 34.7056 101.547 33.941 99.4157 33.4169L97.2847 32.9032C94.2655 32.1734 92.8638 30.7604 92.8638 28.4675C92.8638 25.6286 95.3361 23.6786 98.8467 23.6786C102.321 23.6786 104.703 25.6286 104.783 28.4675H102.299C102.15 26.8255 100.794 25.8344 98.8117 25.8344C96.8295 25.8344 95.4731 26.8371 95.4731 28.2967C95.4731 29.46 96.3394 30.1445 98.4588 30.6685L100.27 31.1136C103.644 31.912 105.045 33.268 105.045 35.6747C105.045 38.7531 102.595 40.681 98.6979 40.681C95.0515 40.681 92.5897 38.7983 92.4307 35.8222L94.9495 35.8223Z" fill="white"/>
<path d="M110.356 25.5723V28.4111H112.636V30.3611H110.356V36.9744C110.356 38.0018 110.812 38.4805 111.814 38.4805C112.085 38.4759 112.355 38.4568 112.624 38.4236V40.3619C112.173 40.4462 111.715 40.4843 111.257 40.4759C108.83 40.4759 107.884 39.5636 107.884 37.237V30.3611H106.141V28.4111H107.884V25.5723H110.356Z" fill="white"/>
<path d="M113.956 34.4092C113.956 30.6348 116.177 28.2629 119.641 28.2629C123.117 28.2629 125.328 30.6347 125.328 34.4092C125.328 38.1939 123.128 40.5555 119.641 40.5555C116.155 40.5555 113.956 38.1939 113.956 34.4092ZM122.821 34.4092C122.821 31.82 121.635 30.2919 119.641 30.2919C117.647 30.2919 116.463 31.8317 116.463 34.4092C116.463 37.0087 117.647 38.5252 119.641 38.5252C121.635 38.5252 122.821 37.0087 122.821 34.4092Z" fill="white"/>
<path d="M127.356 28.4106H129.703V30.4525H129.76C129.919 29.8149 130.292 29.2512 130.817 28.8565C131.343 28.4619 131.987 28.2601 132.644 28.2852C132.928 28.2842 133.21 28.315 133.487 28.377V30.6802C133.129 30.5708 132.756 30.5206 132.381 30.5314C132.024 30.517 131.667 30.5801 131.336 30.7164C131.006 30.8526 130.708 31.059 130.465 31.3213C130.221 31.5835 130.037 31.8953 129.925 32.2354C129.814 32.5755 129.777 32.9358 129.817 33.2914V40.4068H127.356V28.4106Z" fill="white"/>
<path d="M144.832 36.8833C144.501 39.0609 142.382 40.5555 139.67 40.5555C136.184 40.5555 134.019 38.2173 134.019 34.4661C134.019 30.7033 136.194 28.2629 139.566 28.2629C142.884 28.2629 144.97 30.5429 144.97 34.1801V35.0238H136.503V35.1727C136.463 35.6142 136.519 36.0588 136.665 36.4774C136.81 36.8958 137.044 37.2785 137.348 37.5998C137.653 37.9213 138.023 38.1739 138.433 38.3413C138.844 38.5086 139.284 38.5868 139.727 38.5705C140.308 38.625 140.893 38.4902 141.391 38.1863C141.89 37.8823 142.277 37.4252 142.496 36.8833H144.832ZM136.514 33.3028H142.508C142.529 32.9059 142.469 32.5086 142.33 32.136C142.192 31.7635 141.978 31.4236 141.702 31.1377C141.425 30.8517 141.094 30.6261 140.726 30.4748C140.359 30.3234 139.964 30.2496 139.566 30.2583C139.166 30.2559 138.769 30.3329 138.398 30.485C138.028 30.6369 137.69 30.861 137.407 31.144C137.123 31.427 136.898 31.7636 136.744 32.1341C136.592 32.5047 136.514 32.9019 136.514 33.3028Z" fill="white"/>
<path d="M50.0841 11.5684C50.5999 11.5314 51.1176 11.6094 51.5998 11.7968C52.0818 11.9842 52.5164 12.2763 52.8721 12.6521C53.2277 13.0279 53.4955 13.4779 53.6563 13.9699C53.817 14.4619 53.8666 14.9834 53.8015 15.4968C53.8015 18.0226 52.4375 19.4745 50.0841 19.4745H47.2305V11.5684H50.0841ZM48.4574 18.3565H49.9471C50.3157 18.3785 50.6846 18.3179 51.0269 18.1793C51.3692 18.0407 51.6764 17.8275 51.926 17.5551C52.1755 17.2827 52.3613 16.9581 52.4696 16.6048C52.578 16.2516 52.6064 15.8786 52.5525 15.513C52.6024 15.1488 52.5713 14.778 52.4612 14.4274C52.3512 14.0767 52.1649 13.7547 51.9159 13.4846C51.667 13.2143 51.3613 13.0026 51.0209 12.8645C50.6805 12.7264 50.3137 12.6653 49.9471 12.6857H48.4574V18.3565Z" fill="white"/>
<path d="M55.1881 16.4885C55.1506 16.0965 55.1954 15.701 55.3197 15.3272C55.444 14.9534 55.6449 14.6098 55.9096 14.3183C56.1743 14.0268 56.4971 13.794 56.857 13.6346C57.217 13.4752 57.6063 13.3929 57.9998 13.3929C58.3935 13.3929 58.7827 13.4752 59.1426 13.6346C59.5026 13.794 59.8252 14.0268 60.09 14.3183C60.3547 14.6098 60.5557 14.9534 60.6799 15.3272C60.8042 15.701 60.8489 16.0965 60.8116 16.4885C60.8497 16.8811 60.8055 17.2773 60.6815 17.6516C60.5576 18.0259 60.3567 18.3702 60.092 18.6622C59.8271 18.9542 59.5042 19.1877 59.1439 19.3474C58.7837 19.5072 58.3939 19.5896 57.9998 19.5896C57.6057 19.5896 57.2161 19.5072 56.8557 19.3474C56.4954 19.1877 56.1725 18.9542 55.9076 18.6622C55.6429 18.3702 55.442 18.0259 55.3181 17.6516C55.1942 17.2773 55.1499 16.8811 55.1881 16.4885ZM59.6012 16.4885C59.6012 15.1953 59.0207 14.439 58.0018 14.439C56.979 14.439 56.4036 15.1953 56.4036 16.4887C56.4036 17.7922 56.979 18.5427 58.0018 18.5427C59.0207 18.5427 59.6012 17.787 59.6012 16.4885Z" fill="white"/>
<path d="M68.2862 19.4747H67.0656L65.8333 15.0803H65.7402L64.5131 19.4747H63.304L61.6606 13.5082H62.8541L63.9222 18.0609H64.0101L65.2359 13.5082H66.3647L67.5906 18.0609H67.6836L68.7465 13.5082H69.9231L68.2862 19.4747Z" fill="white"/>
<path d="M71.3057 13.5083H72.4384V14.4561H72.5263C72.6754 14.1157 72.9271 13.8303 73.246 13.6398C73.5649 13.4492 73.9353 13.363 74.3055 13.3931C74.5956 13.3713 74.8869 13.4151 75.1578 13.5212C75.4287 13.6273 75.6723 13.7931 75.8704 14.0063C76.0686 14.2193 76.2164 14.4744 76.3028 14.7524C76.389 15.0304 76.4118 15.3243 76.3692 15.6122V19.4746H75.1925V15.9079C75.1925 14.9491 74.7762 14.4723 73.906 14.4723C73.7089 14.4631 73.5125 14.4967 73.3296 14.5706C73.1468 14.6447 72.9822 14.7573 72.8469 14.9009C72.7118 15.0445 72.6091 15.2156 72.5461 15.4027C72.4832 15.5897 72.4615 15.788 72.4824 15.9842V19.4747H71.3057V13.5083Z" fill="white"/>
<path d="M78.2441 11.1791H79.4217V19.4746H78.2441V11.1791Z" fill="white"/>
<path d="M81.0562 16.4888C81.0187 16.0967 81.0637 15.7011 81.1879 15.3273C81.3122 14.9535 81.5131 14.61 81.778 14.3185C82.0427 14.027 82.3653 13.794 82.7253 13.6348C83.0853 13.4754 83.4746 13.3929 83.8683 13.3929C84.2619 13.3929 84.6512 13.4754 85.0111 13.6348C85.3711 13.794 85.6939 14.027 85.9586 14.3185C86.2233 14.61 86.4243 14.9535 86.5486 15.3273C86.6729 15.7011 86.7177 16.0967 86.6803 16.4888C86.7184 16.8813 86.6741 17.2774 86.5501 17.6519C86.4262 18.0262 86.2253 18.3704 85.9605 18.6625C85.6956 18.9545 85.3727 19.1878 85.0124 19.3476C84.652 19.5073 84.2623 19.5898 83.8683 19.5898C83.4742 19.5898 83.0844 19.5073 82.7241 19.3476C82.3637 19.1878 82.0408 18.9545 81.776 18.6625C81.5111 18.3704 81.3104 18.0262 81.1863 17.6519C81.0625 17.2774 81.0181 16.8813 81.0562 16.4888ZM85.4693 16.4888C85.4693 15.1955 84.8888 14.4392 83.8699 14.4392C82.8471 14.4392 82.2717 15.1955 82.2717 16.4888C82.2717 17.7925 82.8471 18.543 83.8699 18.543C84.8888 18.543 85.4693 17.7873 85.4693 16.4888Z" fill="white"/>
<path d="M87.9194 17.7872C87.9194 16.7131 88.7185 16.094 90.137 16.006L91.752 15.9128V15.3979C91.752 14.7678 91.3355 14.4119 90.5313 14.4119C89.8745 14.4119 89.4193 14.6532 89.2887 15.075H88.1496C88.2698 14.0503 89.2332 13.3929 90.5856 13.3929C92.0803 13.3929 92.9234 14.1376 92.9234 15.3979V19.4744H91.7907V18.636H91.6977C91.5087 18.9367 91.2433 19.1819 90.9286 19.3466C90.6141 19.5111 90.2614 19.5892 89.9068 19.5727C89.6565 19.5988 89.4036 19.5721 89.1641 19.4943C88.9248 19.4165 88.7045 19.2895 88.5171 19.1212C88.3299 18.9529 88.1801 18.7473 88.0771 18.5175C87.974 18.2878 87.9204 18.0389 87.9194 17.7872ZM91.752 17.2773V16.7785L90.2959 16.8717C89.4748 16.9267 89.1025 17.2062 89.1025 17.7322C89.1025 18.2691 89.568 18.5816 90.2081 18.5816C90.3956 18.6006 90.5851 18.5816 90.7651 18.5259C90.9452 18.4701 91.1123 18.3787 91.2563 18.257C91.4003 18.1353 91.5185 17.9858 91.6036 17.8175C91.6888 17.6492 91.7391 17.4655 91.752 17.2773Z" fill="white"/>
<path d="M94.4697 16.4889C94.4697 14.6035 95.4382 13.4092 96.9446 13.4092C97.3172 13.3921 97.687 13.4814 98.0107 13.6668C98.3345 13.8521 98.5988 14.1259 98.7729 14.4559H98.8608V11.1791H100.038V19.4746H98.9099V18.5319H98.8168C98.6293 18.8598 98.3558 19.1301 98.0258 19.3136C97.6957 19.4971 97.3218 19.5869 96.9446 19.5729C95.4278 19.5729 94.4697 18.3786 94.4697 16.4889ZM95.6852 16.4889C95.6852 17.7542 96.2813 18.5157 97.2782 18.5157C98.27 18.5157 98.8828 17.7432 98.8828 16.494C98.8828 15.2505 98.2635 14.4671 97.2782 14.4671C96.2876 14.4671 95.6852 15.2337 95.6852 16.4889Z" fill="white"/>
<path d="M104.906 16.4885C104.868 16.0965 104.913 15.701 105.037 15.3272C105.162 14.9534 105.363 14.6098 105.627 14.3183C105.892 14.0268 106.215 13.794 106.575 13.6346C106.935 13.4752 107.324 13.3929 107.718 13.3929C108.111 13.3929 108.5 13.4752 108.86 13.6346C109.22 13.794 109.543 14.0268 109.808 14.3183C110.072 14.6098 110.273 14.9534 110.398 15.3272C110.522 15.701 110.567 16.0965 110.529 16.4885C110.568 16.8811 110.523 17.2773 110.399 17.6516C110.275 18.0259 110.074 18.3702 109.81 18.6622C109.545 18.9542 109.222 19.1877 108.862 19.3474C108.501 19.5072 108.112 19.5896 107.718 19.5896C107.324 19.5896 106.934 19.5072 106.573 19.3474C106.213 19.1877 105.89 18.9542 105.625 18.6622C105.361 18.3702 105.16 18.0259 105.036 17.6516C104.912 17.2773 104.868 16.8811 104.906 16.4885ZM109.319 16.4885C109.319 15.1953 108.738 14.439 107.72 14.439C106.697 14.439 106.121 15.1953 106.121 16.4887C106.121 17.7922 106.697 18.5427 107.72 18.5427C108.738 18.5427 109.319 17.787 109.319 16.4885Z" fill="white"/>
<path d="M112.108 13.5083H113.241V14.4561H113.328C113.478 14.1157 113.729 13.8303 114.048 13.6398C114.367 13.4492 114.738 13.363 115.108 13.3931C115.398 13.3713 115.689 13.4151 115.96 13.5212C116.231 13.6273 116.474 13.7931 116.673 14.0063C116.871 14.2193 117.019 14.4744 117.105 14.7524C117.191 15.0304 117.214 15.3243 117.171 15.6122V19.4746H115.995V15.9079C115.995 14.9491 115.578 14.4723 114.708 14.4723C114.511 14.4631 114.315 14.4967 114.132 14.5706C113.949 14.6447 113.784 14.7573 113.649 14.9009C113.514 15.0445 113.411 15.2156 113.348 15.4027C113.285 15.5897 113.264 15.788 113.285 15.9842V19.4747H112.108V13.5083Z" fill="white"/>
<path d="M123.82 12.0227V13.5353H125.112V14.5272H123.82V17.5951C123.82 18.2201 124.078 18.4937 124.663 18.4937C124.813 18.4933 124.963 18.4842 125.112 18.4665V19.4473C124.901 19.4852 124.687 19.5053 124.472 19.5075C123.164 19.5075 122.642 19.0469 122.642 17.8965V14.527H121.696V13.5353H122.642V12.0227H123.82Z" fill="white"/>
<path d="M126.719 11.1791H127.886V14.4671H127.979C128.135 14.1233 128.394 13.8364 128.719 13.6452C129.044 13.454 129.421 13.3677 129.797 13.3982C130.085 13.3825 130.374 13.4308 130.641 13.5394C130.909 13.6481 131.15 13.8146 131.346 14.027C131.542 14.2395 131.689 14.4926 131.776 14.7685C131.863 15.0442 131.888 15.3359 131.85 15.6225V19.4746H130.672V15.913C130.672 14.96 130.229 14.4774 129.397 14.4774C129.195 14.4607 128.991 14.4885 128.801 14.5589C128.611 14.6291 128.438 14.7403 128.295 14.8843C128.152 15.0283 128.042 15.202 127.973 15.393C127.904 15.5839 127.878 15.7877 127.896 15.99V19.4745H126.719V11.1791Z" fill="white"/>
<path d="M138.71 17.8636C138.551 18.409 138.204 18.8807 137.733 19.1961C137.261 19.5118 136.692 19.651 136.128 19.5898C135.734 19.6001 135.345 19.5249 134.983 19.3692C134.623 19.2134 134.301 18.981 134.038 18.688C133.776 18.3949 133.581 18.0484 133.466 17.6724C133.351 17.2962 133.32 16.8997 133.373 16.5102C133.322 16.1195 133.353 15.722 133.467 15.3449C133.583 14.9677 133.776 14.6195 134.037 14.324C134.298 14.0284 134.619 13.7923 134.979 13.6317C135.338 13.4711 135.728 13.3897 136.123 13.393C137.782 13.393 138.782 14.5272 138.782 16.4008V16.8117H134.572V16.8777C134.554 17.0967 134.582 17.317 134.653 17.5247C134.725 17.7324 134.839 17.9228 134.989 18.0838C135.138 18.2447 135.32 18.3725 135.521 18.4592C135.723 18.5458 135.94 18.5894 136.16 18.5869C136.442 18.6207 136.727 18.5701 136.979 18.4413C137.232 18.3124 137.44 18.1114 137.579 17.8636H138.71ZM134.572 15.9409H137.584C137.599 15.7405 137.571 15.5394 137.503 15.3503C137.436 15.1613 137.33 14.9883 137.192 14.8429C137.054 14.6972 136.886 14.5822 136.702 14.5051C136.516 14.4281 136.316 14.3906 136.116 14.3953C135.912 14.3926 135.711 14.4309 135.522 14.5076C135.333 14.5845 135.162 14.6982 135.019 14.8423C134.875 14.9864 134.761 15.1577 134.684 15.3464C134.607 15.535 134.57 15.7372 134.572 15.9409Z" fill="white"/>
</g>
</svg>
