<svg width="22" height="26" viewBox="0 0 22 26" fill="none" xmlns="http://www.w3.org/2000/svg">
<path d="M0.697075 5.57105C0.697075 7.75403 0.660665 9.84019 0.729844 11.9175C0.744409 12.3181 1.12672 12.943 1.4362 13.053C7.14531 15.0028 12.8653 16.9085 18.5963 18.7746C19.674 19.1267 20.6134 18.757 20.9885 17.3222C21.3453 15.9622 20.7736 14.8663 19.4447 14.3778C17.9701 13.8365 16.4554 13.4536 15.0099 12.8198C14.4747 12.5821 13.8739 11.9219 13.6882 11.2882C12.8144 8.28217 11.9842 5.24976 11.3252 2.17334C10.9465 0.399672 10.08 -0.0140386 8.60172 0.0431766C8.60172 3.56412 8.60172 7.04104 8.60172 10.7292C7.08706 10.2099 5.80542 9.66854 4.48737 9.34726C3.47153 9.10079 2.84163 8.56385 2.68143 7.29631C2.53215 6.05518 1.89497 5.51384 0.697075 5.57105ZM0.777178 25.8076C7.53126 25.8076 14.2234 25.8076 20.9957 25.8076C20.9957 24.9274 20.9957 24.1264 20.9957 23.2286C14.2453 23.2286 7.55311 23.2286 0.777178 23.2286C0.777178 24.1044 0.777178 24.8966 0.777178 25.8076Z" fill="white"/>
<path d="M0.697091 5.57094C1.89498 5.51372 2.53216 6.05506 2.68509 7.29179C2.84529 8.55933 3.47519 9.09187 4.49103 9.34274C5.80908 9.66403 7.09071 10.2054 8.60538 10.7247C8.60538 7.03212 8.60538 3.5596 8.60538 0.03866C10.0836 -0.0185552 10.9502 0.395155 11.3289 2.16883C11.9879 5.24965 12.818 8.28206 13.6919 11.2837C13.8739 11.9174 14.4783 12.5776 15.0136 12.8153C16.4554 13.4534 17.9737 13.8319 19.4483 14.3733C20.7736 14.8618 21.3453 15.9577 20.9921 17.3177C20.6171 18.7524 19.6777 19.1221 18.6 18.7701C12.869 16.904 7.14897 14.9982 1.43986 13.0485C1.13037 12.9429 0.748065 12.3179 0.733501 11.913C0.660681 9.84007 0.697091 7.75392 0.697091 5.57094Z" fill="black"/>
<path d="M0.7771 25.8075C0.7771 24.9009 0.7771 24.1043 0.7771 23.2285C7.55303 23.2285 14.2452 23.2285 20.9957 23.2285C20.9957 24.1263 20.9957 24.9229 20.9957 25.8075C14.2234 25.8075 7.53118 25.8075 0.7771 25.8075Z" fill="black"/>
</svg>
