<svg width="21" height="18" viewBox="0 0 21 18" fill="none" xmlns="http://www.w3.org/2000/svg">
<path d="M17.1389 6.92308C17.0199 6.92308 16.5073 6.92654 16.3223 6.93649L13.7956 7.00226L7.96893 0H5.22179L8.48415 7.12255L4.22808 7.18486L2.29139 4.84615H0.0122464L0.913671 8.92125C0.920232 8.94462 0.928104 8.96755 0.936852 8.99005C0.937496 8.99216 0.937496 8.99442 0.936852 8.99654C0.927885 9.0189 0.920147 9.04172 0.913671 9.0649L0 13.1538H2.26471L4.25257 10.774L8.48502 10.8679L5.22135 18H7.9768L13.7939 11.0012L16.3206 11.0678C16.5082 11.0778 17.0203 11.0813 17.1367 11.0813C18.2017 11.0813 19.0729 10.9367 19.7264 10.6512C20.8347 10.1683 21 9.40933 21 9C21 7.69933 19.5567 6.92308 17.1389 6.92308Z" fill="black"/>
</svg>
