<svg width="16" height="17" viewBox="0 0 16 17" fill="none" xmlns="http://www.w3.org/2000/svg">
<path d="M2.86403 2.50737C2.86403 2.55752 2.91514 2.60767 2.96624 2.60767H3.22176C3.27287 2.60767 3.32397 2.55752 3.32397 2.50737V0.952802C3.32397 0.902655 3.27287 0.852507 3.22176 0.852507H2.96624C2.91514 0.852507 2.86403 0.902655 2.86403 0.952802V2.50737ZM0.870969 4.06195H15.129V3.56047C15.129 2.85841 14.6691 2.30678 14.0047 2.15634V2.50737C14.0047 3.00885 13.5959 3.46018 13.0338 3.46018H12.7782C12.2672 3.46018 11.8073 3.00885 11.8073 2.50737V2.15634H10.7341V2.50737C10.7341 3.00885 10.3252 3.46018 9.7631 3.46018H9.50758C8.99654 3.46018 8.5366 3.00885 8.5366 2.50737V2.15634H7.46341V2.50737C7.46341 3.00885 7.00347 3.46018 6.49243 3.46018H6.23691C5.72587 3.46018 5.26593 3.00885 5.26593 2.50737V2.15634H4.19274V2.50737C4.19274 3.00885 3.7328 3.46018 3.22176 3.46018H2.96624C2.40409 3.46018 1.99526 3.00885 1.99526 2.50737V2.15634C1.33091 2.30678 0.870969 2.85841 0.870969 3.56047V4.06195ZM15.129 4.91445H0.870969V14.7935C0.870969 15.5457 1.48422 16.1475 2.30189 16.1475H13.7492C14.5158 16.1475 15.129 15.5457 15.129 14.7935V4.91445ZM12.7782 0H13.0338C13.5959 0 14.0047 0.40118 14.0047 0.952802V1.30383C15.129 1.45428 15.9978 2.40708 15.9978 3.56047V14.7935C15.9978 15.9971 14.9757 17 13.7492 17H2.30189C1.02428 17 0.00219727 15.9971 0.00219727 14.7935V3.56047C0.00219727 2.40708 0.870969 1.45428 1.99526 1.30383V0.952802C1.99526 0.40118 2.40409 0 2.96624 0H3.22176C3.7328 0 4.19274 0.40118 4.19274 0.952802V1.30383H5.26593V0.952802C5.26593 0.40118 5.72587 0 6.23691 0H6.49243C7.00347 0 7.46341 0.40118 7.46341 0.952802V1.30383H8.5366V0.952802C8.5366 0.40118 8.99654 0 9.50758 0H9.7631C10.3252 0 10.7341 0.40118 10.7341 0.952802V1.30383H11.8073V0.952802C11.8073 0.40118 12.2672 0 12.7782 0ZM13.0338 0.852507H12.7782C12.7271 0.852507 12.676 0.902655 12.676 0.952802V2.50737C12.676 2.55752 12.7271 2.60767 12.7782 2.60767H13.0338C13.136 2.60767 13.136 2.55752 13.136 2.50737V0.952802C13.136 0.902655 13.136 0.852507 13.0338 0.852507ZM9.7631 0.852507H9.50758C9.45647 0.852507 9.40537 0.902655 9.40537 0.952802V2.50737C9.40537 2.55752 9.45647 2.60767 9.50758 2.60767H9.7631C9.8142 2.60767 9.86531 2.55752 9.86531 2.50737V0.952802C9.86531 0.902655 9.8142 0.852507 9.7631 0.852507ZM6.49243 0.852507H6.23691C6.18581 0.852507 6.1347 0.902655 6.1347 0.952802V2.50737C6.1347 2.55752 6.18581 2.60767 6.23691 2.60767H6.49243C6.54353 2.60767 6.59464 2.55752 6.59464 2.50737V0.952802C6.59464 0.902655 6.54353 0.852507 6.49243 0.852507Z" fill="black"/>
<path fill-rule="evenodd" clip-rule="evenodd" d="M6.90138 6.97052H9.09886C9.30328 6.97052 9.45659 7.07082 9.45659 7.2714V9.47789C9.45659 9.62834 9.30328 9.77878 9.09886 9.77878H6.90138C6.69696 9.77878 6.54365 9.62834 6.54365 9.47789V7.2714C6.54365 7.07082 6.69696 6.97052 6.90138 6.97052ZM11.143 6.97052H13.3916C13.5449 6.97052 13.6982 7.07082 13.6982 7.2714V9.47789C13.6982 9.62834 13.5449 9.77878 13.3916 9.77878H11.143C10.9897 9.77878 10.8364 9.62834 10.8364 9.47789V7.2714C10.8364 7.07082 10.9897 6.97052 11.143 6.97052ZM2.65973 11.3835H4.85721C5.06163 11.3835 5.21494 11.5339 5.21494 11.6844V13.8909C5.21494 14.0413 5.06163 14.1918 4.85721 14.1918H2.65973C2.45531 14.1918 2.302 14.0413 2.302 13.8909V11.6844C2.302 11.5339 2.45531 11.3835 2.65973 11.3835ZM6.90138 11.3835H9.09886C9.30328 11.3835 9.45659 11.5339 9.45659 11.6844V13.8909C9.45659 14.0413 9.30328 14.1918 9.09886 14.1918H6.90138C6.69696 14.1918 6.54365 14.0413 6.54365 13.8909V11.6844C6.54365 11.5339 6.69696 11.3835 6.90138 11.3835ZM11.143 11.3835H13.3916C13.5449 11.3835 13.6982 11.5339 13.6982 11.6844V13.8909C13.6982 14.0413 13.5449 14.1918 13.3916 14.1918H11.143C10.9897 14.1918 10.8364 14.0413 10.8364 13.8909V11.6844C10.8364 11.5339 10.9897 11.3835 11.143 11.3835Z" fill="black"/>
</svg>
