<svg width="37" height="35" viewBox="0 0 37 35" fill="none" xmlns="http://www.w3.org/2000/svg">
<path d="M0 1.25C0 0.918479 0.129941 0.600537 0.361238 0.366117C0.592535 0.131696 0.906241 0 1.23334 0H4.93338C5.20849 7.70287e-05 5.47568 0.0933767 5.69246 0.265062C5.90923 0.436747 6.06315 0.67696 6.12972 0.9475L7.12873 5H35.767C35.9543 5.00005 36.1392 5.04336 36.3076 5.12663C36.4759 5.20991 36.6234 5.33096 36.7387 5.4806C36.854 5.63024 36.9342 5.80454 36.9731 5.99027C37.012 6.176 37.0087 6.36827 36.9633 6.5525L33.2633 21.5525C33.1967 21.823 33.0428 22.0633 32.826 22.2349C32.6093 22.4066 32.3421 22.4999 32.067 22.5H9.86676C9.59164 22.4999 9.32446 22.4066 9.10768 22.2349C8.89091 22.0633 8.73699 21.823 8.67041 21.5525L3.97137 2.5H1.23334C0.906241 2.5 0.592535 2.3683 0.361238 2.13388C0.129941 1.89946 0 1.58152 0 1.25ZM7.7454 7.5L8.97875 12.5H12.3334V7.5H7.7454ZM14.8001 7.5V12.5H19.7335V7.5H14.8001ZM22.2002 7.5V12.5H27.1336V7.5H22.2002ZM29.6003 7.5V12.5H32.955L34.1883 7.5H29.6003ZM32.3383 15H29.6003V20H31.105L32.3383 15ZM27.1336 15H22.2002V20H27.1336V15ZM19.7335 15H14.8001V20H19.7335V15ZM12.3334 15H9.59542L10.8288 20H12.3334V15ZM12.3334 27.5C11.6792 27.5 11.0518 27.7634 10.5892 28.2322C10.1266 28.7011 9.86676 29.337 9.86676 30C9.86676 30.663 10.1266 31.2989 10.5892 31.7678C11.0518 32.2366 11.6792 32.5 12.3334 32.5C12.9877 32.5 13.6151 32.2366 14.0777 31.7678C14.5403 31.2989 14.8001 30.663 14.8001 30C14.8001 29.337 14.5403 28.7011 14.0777 28.2322C13.6151 27.7634 12.9877 27.5 12.3334 27.5ZM7.40007 30C7.40007 28.6739 7.91983 27.4021 8.84502 26.4645C9.77021 25.5268 11.025 25 12.3334 25C13.6419 25 14.8967 25.5268 15.8219 26.4645C16.7471 27.4021 17.2668 28.6739 17.2668 30C17.2668 31.3261 16.7471 32.5979 15.8219 33.5355C14.8967 34.4732 13.6419 35 12.3334 35C11.025 35 9.77021 34.4732 8.84502 33.5355C7.91983 32.5979 7.40007 31.3261 7.40007 30ZM29.6003 27.5C28.9461 27.5 28.3187 27.7634 27.8561 28.2322C27.3935 28.7011 27.1336 29.337 27.1336 30C27.1336 30.663 27.3935 31.2989 27.8561 31.7678C28.3187 32.2366 28.9461 32.5 29.6003 32.5C30.2545 32.5 30.8819 32.2366 31.3445 31.7678C31.8071 31.2989 32.067 30.663 32.067 30C32.067 29.337 31.8071 28.7011 31.3445 28.2322C30.8819 27.7634 30.2545 27.5 29.6003 27.5ZM24.6669 30C24.6669 28.6739 25.1867 27.4021 26.1118 26.4645C27.037 25.5268 28.2919 25 29.6003 25C30.9087 25 32.1635 25.5268 33.0887 26.4645C34.0139 27.4021 34.5336 28.6739 34.5336 30C34.5336 31.3261 34.0139 32.5979 33.0887 33.5355C32.1635 34.4732 30.9087 35 29.6003 35C28.2919 35 27.037 34.4732 26.1118 33.5355C25.1867 32.5979 24.6669 31.3261 24.6669 30Z" fill="white"/>
</svg>
