<svg width="31" height="33" viewBox="0 0 31 33" fill="none" xmlns="http://www.w3.org/2000/svg">
<path d="M27.5556 0.949463H3.44444C1.55 0.949463 0 2.50738 0 4.4115V28.6458C0 30.5516 1.55 32.1078 3.44444 32.1078H15.5V19.9907H12.0556V15.7064H15.5V12.1578C15.5 8.41189 17.5873 5.78074 21.9859 5.78074L25.0911 5.7842V10.2935H23.0296C21.3177 10.2935 20.6667 11.5848 20.6667 12.7827V15.7081H25.0893L24.1111 19.9907H20.6667V32.1078H27.5556C29.45 32.1078 31 30.5516 31 28.6458V4.4115C31 2.50738 29.45 0.949463 27.5556 0.949463Z" fill="black"/>
</svg>
