<svg width="153" height="53" viewBox="0 0 153 53" fill="none" xmlns="http://www.w3.org/2000/svg">
<path d="M37.5556 10.9495H13.4444C11.55 10.9495 10 12.5074 10 14.4115V38.6458C10 40.5516 11.55 42.1078 13.4444 42.1078H25.5V29.9907H22.0556V25.7064H25.5V22.1578C25.5 18.4119 27.5873 15.7807 31.9859 15.7807L35.0911 15.7842V20.2935H33.0296C31.3177 20.2935 30.6667 21.5848 30.6667 22.7827V25.7081H35.0893L34.1111 29.9907H30.6667V42.1078H37.5556C39.45 42.1078 41 40.5516 41 38.6458V14.4115C41 12.5074 39.45 10.9495 37.5556 10.9495Z" fill="black"/>
<path d="M59.4993 21.343C56.643 21.343 54.3403 23.6799 54.3403 26.5286C54.3403 29.3774 56.6651 31.7143 59.4993 31.7143C62.3335 31.7143 64.6584 29.3774 64.6584 26.5286C64.6584 23.6799 62.3335 21.343 59.4993 21.343ZM74.9986 26.5286C74.9986 24.3698 74.9986 22.2555 74.8879 20.0967C74.7772 17.604 74.2015 15.3784 72.3859 13.5757C70.5702 11.7507 68.3782 11.172 65.8983 11.0607C63.7505 10.9495 61.6471 10.9495 59.4993 10.9495C57.3515 10.9495 55.2481 10.9495 53.1003 11.0607C50.6204 11.172 48.4062 11.7507 46.6127 13.5757C44.7971 15.4007 44.2214 17.604 44.1107 20.0967C44 22.2555 44 24.3698 44 26.5286C44 28.6875 44 30.8018 44.1107 32.9606C44.2214 35.4533 44.7971 37.6789 46.6127 39.4816C48.4284 41.3066 50.6204 41.8852 53.1003 41.9965C55.2481 42.1078 57.3515 42.1078 59.4993 42.1078C61.6471 42.1078 63.7505 42.1078 65.8983 41.9965C68.3782 41.8852 70.5924 41.3066 72.3859 39.4816C74.2015 37.6566 74.7772 35.4533 74.8879 32.9606C75.0208 30.824 74.9986 28.6875 74.9986 26.5286ZM59.4993 34.5185C55.0931 34.5185 51.5504 30.9576 51.5504 26.5286C51.5504 22.0997 55.0931 18.5387 59.4993 18.5387C63.9055 18.5387 67.4482 22.0997 67.4482 26.5286C67.4482 30.9576 63.9055 34.5185 59.4993 34.5185ZM67.7804 20.0744C66.7618 20.0744 65.9205 19.2509 65.9205 18.2049C65.9205 17.1589 66.7397 16.3354 67.7804 16.3354C68.821 16.3354 69.6403 17.1589 69.6403 18.2049C69.6459 18.4487 69.6016 18.691 69.5102 18.9169C69.4188 19.1428 69.2822 19.3474 69.1089 19.518C68.9391 19.6922 68.7356 19.8295 68.5109 19.9214C68.2861 20.0133 68.045 20.0578 67.8025 20.0522L67.7804 20.0744Z" fill="black"/>
<path d="M82.4286 10.9495C79.9859 10.9495 78 12.9455 78 15.4007V37.6566C78 40.1117 79.9859 42.1078 82.4286 42.1078H104.571C107.014 42.1078 109 40.1117 109 37.6566V15.4007C109 12.9455 107.014 10.9495 104.571 10.9495H82.4286ZM102.987 16.7917L95.8042 25.0403L104.253 36.2656H97.6379L92.4621 29.4567L86.5319 36.2656H83.2451L90.9259 27.4397L82.823 16.7917H89.6042L94.2888 23.0164L99.7 16.7917H102.987ZM100.371 34.2904L88.6147 18.6625H86.6565L98.5444 34.2904H100.364H100.371Z" fill="black"/>
<path d="M142.684 17.6717C142.684 17.6717 142.382 14.6179 141.45 13.2779C140.27 11.5143 138.948 11.5032 138.344 11.4008C134.009 10.9495 127.499 10.9495 127.499 10.9495H127.487C127.487 10.9495 120.979 10.9495 116.643 11.4008C116.036 11.506 114.717 11.5143 113.537 13.2779C112.605 14.6179 112.308 17.6717 112.308 17.6717C112.308 17.6717 112 21.2544 112 24.8453V28.2037C112 31.7863 112.308 35.3772 112.308 35.3772C112.308 35.3772 112.61 38.431 113.537 39.7738C114.717 41.5375 116.267 41.4793 116.958 41.6676C119.44 42.0054 127.501 42.1078 127.501 42.1078C127.501 42.1078 134.017 42.0912 138.352 41.6482C138.958 41.5458 140.278 41.5347 141.458 39.7711C142.39 38.431 142.692 35.3745 142.692 35.3745C142.692 35.3745 143 31.7918 143 28.2009V24.8425C142.994 21.2599 142.686 17.669 142.686 17.669L142.684 17.6717ZM124.288 32.2763V19.8257L132.663 26.0718L124.288 32.2763Z" fill="black"/>
</svg>
