<svg width="168" height="46" viewBox="0 0 168 46" fill="none" xmlns="http://www.w3.org/2000/svg">
<path d="M90.76 32.922C90.76 34.2447 90.5573 35.4287 90.152 36.474C89.7467 37.498 89.1707 38.362 88.424 39.066C87.6987 39.77 86.824 40.3033 85.8 40.666C84.776 41.0287 83.6347 41.21 82.376 41.21C81.1173 41.21 79.976 41.018 78.952 40.634C77.928 40.25 77.0427 39.706 76.296 39.002C75.5707 38.2767 75.0053 37.402 74.6 36.378C74.1947 35.354 73.992 34.202 73.992 32.922C73.992 31.6633 74.1947 30.522 74.6 29.498C75.0053 28.474 75.5707 27.61 76.296 26.906C77.0427 26.1807 77.928 25.626 78.952 25.242C79.976 24.858 81.1173 24.666 82.376 24.666C83.6347 24.666 84.776 24.8687 85.8 25.274C86.824 25.658 87.6987 26.2127 88.424 26.938C89.1707 27.642 89.7467 28.506 90.152 29.53C90.5573 30.554 90.76 31.6847 90.76 32.922ZM79.56 32.922C79.56 34.2233 79.8053 35.226 80.296 35.93C80.808 36.6127 81.512 36.954 82.408 36.954C83.304 36.954 83.9867 36.602 84.456 35.898C84.9467 35.194 85.192 34.202 85.192 32.922C85.192 31.642 84.9467 30.6607 84.456 29.978C83.9653 29.274 83.272 28.922 82.376 28.922C81.48 28.922 80.7867 29.274 80.296 29.978C79.8053 30.6607 79.56 31.642 79.56 32.922ZM106.534 36.058C106.534 37.6793 105.926 38.9487 104.71 39.866C103.494 40.7833 101.702 41.242 99.334 41.242C98.438 41.242 97.606 41.178 96.838 41.05C96.07 40.922 95.4087 40.73 94.854 40.474C94.3207 40.1967 93.894 39.8553 93.574 39.45C93.2753 39.0447 93.126 38.5647 93.126 38.01C93.126 37.498 93.2327 37.0713 93.446 36.73C93.6593 36.3673 93.9153 36.0687 94.214 35.834C94.8327 36.1753 95.5367 36.4847 96.326 36.762C97.1367 37.018 98.0647 37.146 99.11 37.146C99.7713 37.146 100.273 37.05 100.614 36.858C100.977 36.666 101.158 36.41 101.158 36.09C101.158 35.7913 101.03 35.5567 100.774 35.386C100.518 35.2153 100.091 35.0767 99.494 34.97L98.534 34.778C96.678 34.4153 95.2913 33.85 94.374 33.082C93.478 32.2927 93.03 31.1727 93.03 29.722C93.03 28.9327 93.2007 28.218 93.542 27.578C93.8833 26.938 94.3633 26.4047 94.982 25.978C95.6007 25.5513 96.3367 25.2207 97.19 24.986C98.0647 24.7513 99.0247 24.634 100.07 24.634C100.859 24.634 101.595 24.698 102.278 24.826C102.982 24.9327 103.59 25.1033 104.102 25.338C104.614 25.5727 105.019 25.882 105.318 26.266C105.617 26.6287 105.766 27.066 105.766 27.578C105.766 28.0687 105.67 28.4953 105.478 28.858C105.307 29.1993 105.083 29.4873 104.806 29.722C104.635 29.6153 104.379 29.5087 104.038 29.402C103.697 29.274 103.323 29.1673 102.918 29.082C102.513 28.9753 102.097 28.89 101.67 28.826C101.265 28.762 100.891 28.73 100.55 28.73C99.846 28.73 99.302 28.8153 98.918 28.986C98.534 29.1353 98.342 29.3807 98.342 29.722C98.342 29.9567 98.4487 30.1487 98.662 30.298C98.8753 30.4473 99.2807 30.586 99.878 30.714L100.87 30.938C102.918 31.4073 104.369 32.058 105.222 32.89C106.097 33.7007 106.534 34.7567 106.534 36.058ZM116.133 37.242C116.495 37.242 116.89 37.21 117.317 37.146C117.765 37.0607 118.095 36.954 118.309 36.826V34.266L116.005 34.458C115.407 34.5007 114.917 34.6287 114.533 34.842C114.149 35.0553 113.957 35.3753 113.957 35.802C113.957 36.2287 114.117 36.5807 114.437 36.858C114.778 37.114 115.343 37.242 116.133 37.242ZM115.877 24.666C117.029 24.666 118.074 24.7833 119.013 25.018C119.973 25.2527 120.783 25.6153 121.445 26.106C122.127 26.5753 122.65 27.1833 123.013 27.93C123.375 28.6553 123.557 29.5193 123.557 30.522V37.69C123.557 38.2447 123.397 38.7033 123.077 39.066C122.778 39.4073 122.415 39.706 121.989 39.962C120.602 40.794 118.65 41.21 116.133 41.21C115.002 41.21 113.978 41.1033 113.061 40.89C112.165 40.6767 111.386 40.3567 110.725 39.93C110.085 39.5033 109.583 38.9593 109.221 38.298C108.879 37.6367 108.709 36.8687 108.709 35.994C108.709 34.522 109.146 33.3913 110.021 32.602C110.895 31.8127 112.25 31.322 114.085 31.13L118.277 30.682V30.458C118.277 29.8393 117.999 29.402 117.445 29.146C116.911 28.8687 116.133 28.73 115.109 28.73C114.298 28.73 113.509 28.8153 112.741 28.986C111.973 29.1567 111.279 29.37 110.661 29.626C110.383 29.434 110.149 29.146 109.957 28.762C109.765 28.3567 109.669 27.9407 109.669 27.514C109.669 26.9593 109.797 26.522 110.053 26.202C110.33 25.8607 110.746 25.5727 111.301 25.338C111.919 25.1033 112.645 24.9327 113.477 24.826C114.33 24.7193 115.13 24.666 115.877 24.666ZM142.083 37.882C141.976 38.8847 141.677 39.6527 141.187 40.186C140.717 40.7193 140.024 40.986 139.107 40.986C138.424 40.986 137.816 40.826 137.283 40.506C136.749 40.1647 136.173 39.5993 135.555 38.81L132.387 34.842V40.666C132.152 40.7087 131.8 40.762 131.331 40.826C130.883 40.9113 130.424 40.954 129.955 40.954C129.485 40.954 129.059 40.922 128.675 40.858C128.312 40.794 128.003 40.666 127.747 40.474C127.491 40.282 127.288 40.026 127.139 39.706C127.011 39.3647 126.947 38.9273 126.947 38.394V19.866C127.181 19.802 127.523 19.738 127.971 19.674C128.44 19.5887 128.909 19.546 129.379 19.546C129.848 19.546 130.264 19.578 130.627 19.642C131.011 19.706 131.331 19.834 131.587 20.026C131.843 20.218 132.035 20.4847 132.163 20.826C132.312 21.146 132.387 21.5727 132.387 22.106V30.554L137.891 24.922C139 24.922 139.885 25.1673 140.547 25.658C141.229 26.1487 141.571 26.7673 141.571 27.514C141.571 27.834 141.517 28.1327 141.411 28.41C141.304 28.666 141.133 28.9327 140.899 29.21C140.685 29.4873 140.397 29.786 140.035 30.106C139.693 30.4047 139.288 30.7567 138.819 31.162L136.963 32.762L142.083 37.882ZM151.351 37.242C151.714 37.242 152.109 37.21 152.535 37.146C152.983 37.0607 153.314 36.954 153.527 36.826V34.266L151.223 34.458C150.626 34.5007 150.135 34.6287 149.751 34.842C149.367 35.0553 149.175 35.3753 149.175 35.802C149.175 36.2287 149.335 36.5807 149.655 36.858C149.997 37.114 150.562 37.242 151.351 37.242ZM151.095 24.666C152.247 24.666 153.293 24.7833 154.231 25.018C155.191 25.2527 156.002 25.6153 156.663 26.106C157.346 26.5753 157.869 27.1833 158.231 27.93C158.594 28.6553 158.775 29.5193 158.775 30.522V37.69C158.775 38.2447 158.615 38.7033 158.295 39.066C157.997 39.4073 157.634 39.706 157.207 39.962C155.821 40.794 153.869 41.21 151.351 41.21C150.221 41.21 149.197 41.1033 148.279 40.89C147.383 40.6767 146.605 40.3567 145.943 39.93C145.303 39.5033 144.802 38.9593 144.439 38.298C144.098 37.6367 143.927 36.8687 143.927 35.994C143.927 34.522 144.365 33.3913 145.239 32.602C146.114 31.8127 147.469 31.322 149.303 31.13L153.495 30.682V30.458C153.495 29.8393 153.218 29.402 152.663 29.146C152.13 28.8687 151.351 28.73 150.327 28.73C149.517 28.73 148.727 28.8153 147.959 28.986C147.191 29.1567 146.498 29.37 145.879 29.626C145.602 29.434 145.367 29.146 145.175 28.762C144.983 28.3567 144.887 27.9407 144.887 27.514C144.887 26.9593 145.015 26.522 145.271 26.202C145.549 25.8607 145.965 25.5727 146.519 25.338C147.138 25.1033 147.863 24.9327 148.695 24.826C149.549 24.7193 150.349 24.666 151.095 24.666Z" fill="#FF0000"/>
<path d="M61.891 41.157C61.1927 38.6713 60.5025 36.1775 59.8122 33.6836L47.8931 37.9646C48.0536 38.4845 48.2302 39.11 48.4389 39.8573C49.5706 43.9921 51.1839 45.2268 55.4218 45.235C57.1394 45.2756 58.7688 44.8857 60.358 44.2602C61.7867 43.6915 62.3485 42.8061 61.891 41.157Z" fill="#FF0000"/>
<path d="M72.2452 24.6099C70.7362 23.0258 68.9624 22.5303 66.8756 23.2533C63.8737 24.2931 60.8638 25.3004 57.878 26.3727C57.862 26.3808 57.8539 26.3808 57.8379 26.3889L57.7817 26.4052C55.7992 19.3297 53.7605 12.2706 51.481 5.28451C50.7185 2.95312 49.2336 1.5884 46.9863 0.873548C42.8366 -0.44243 38.7432 -0.198731 34.6417 1.11725C33.8792 1.36095 33.2773 1.694 32.8037 2.16516C32.1696 2.79878 31.9208 3.5055 31.8165 3.81419C30.7811 6.80357 29.1918 11.442 27.2575 17.2014C27.2495 17.2258 27.2414 17.2664 27.2013 17.3152C27.1612 17.3639 27.113 17.3801 27.0889 17.3883C24.5205 18.4849 21.9521 19.5897 19.3836 20.6863L23.7821 20.0527C32.8519 19.3216 37.5152 22.6847 37.6837 22.8146H37.6917L37.9887 21.8398C38.0289 21.7099 38.061 21.588 38.1011 21.4499C38.1733 21.19 38.2536 20.9382 38.3258 20.6782L38.39 20.4589C38.6389 19.6303 38.9037 18.8098 39.1686 17.9813C39.8027 16.0479 40.4769 14.1227 41.119 12.1893C41.2715 12.1893 41.424 12.1893 41.5765 12.1893C42.4273 15.1868 43.2861 18.1762 44.1128 21.1737C44.9395 24.1631 45.1643 24.9998 43.6634 25.2354C43.4627 25.1704 43.262 25.1135 43.0614 25.0486C41.2153 24.4718 39.3773 23.9032 37.5312 23.3264C35.7092 22.7578 33.8792 22.181 32.0572 21.6043C30.1711 21.0031 28.2528 20.8569 26.3425 21.3524C26.1418 21.4012 25.9492 21.458 25.7485 21.5068C23.4048 22.1323 21.0772 22.8309 18.7415 23.5051C18.5248 23.5701 18.1717 23.5701 18.1396 23.8869C18.0994 24.2525 18.4606 24.3337 18.6934 24.4556C20.419 25.3816 22.1527 26.3077 23.8864 27.2256C26.6154 28.6797 29.3524 30.1419 32.0653 31.6284C33.4378 32.3839 34.9066 32.9769 36.2631 33.9842C32.7074 36.0394 29.1918 37.8509 25.4034 39.0857C23.758 39.6218 22.1126 40.0767 20.4511 40.426C17.6178 41.0109 14.7444 41.2708 11.7827 41.0353C8.00227 40.7347 4.42252 39.8249 1.01132 38.1515C0.722372 38.0134 0.433423 37.7291 0 37.9809C0.0722372 38.1271 0.104343 38.2896 0.200659 38.3952C2.44001 40.8728 5.04055 42.8386 8.15477 44.0409C11.574 45.3569 15.0815 45.9174 18.7656 45.6006C20.7 45.4381 22.6102 45.2188 24.5045 44.8532C24.8175 44.7964 25.1225 44.7314 25.4355 44.6583C28.0521 44.0734 30.5884 43.2448 33.1007 42.3431C35.9902 41.2952 38.8475 40.1417 41.729 39.0857C43.6634 38.3789 45.5977 37.6641 47.5321 36.9492C51.5212 35.4708 55.5022 33.968 59.4753 32.4733C62.2123 31.4416 64.9412 30.4099 67.6782 29.3783C69.0106 28.8746 70.4152 28.5497 71.6673 27.8349C73.2244 26.9575 73.417 25.8365 72.2452 24.6099Z" fill="#FF0000"/>
</svg>
