<svg width="20" height="20" viewBox="0 0 20 20" fill="none" xmlns="http://www.w3.org/2000/svg">
    <path fill-rule="evenodd" clip-rule="evenodd" d="M16.667 9.722c0-.764.75-1.39 1.666-1.39V5.556c0-.764-.75-1.389-1.666-1.389H3.333c-.916 0-1.658.625-1.658 1.389v2.778c.917 0 1.658.625 1.658 1.389s-.741 1.389-1.666 1.389v2.777c0 .764.75 1.39 1.666 1.39h13.334c.916 0 1.666-.626 1.666-1.39v-2.777c-.916 0-1.666-.626-1.666-1.39zm-4.18 3.333L10 11.458l-2.486 1.597.75-2.861-2.285-1.868 2.945-.174L10 5.416l1.07 2.743 2.944.174-2.285 1.868.757 2.854z" fill="#1B1B1B"/>
    <mask id="ahid7ns94a" style="mask-type:luminance" maskUnits="userSpaceOnUse" x="1" y="4" width="18" height="12">
        <path fill-rule="evenodd" clip-rule="evenodd" d="M16.667 9.722c0-.764.75-1.39 1.666-1.39V5.556c0-.764-.75-1.389-1.666-1.389H3.333c-.916 0-1.658.625-1.658 1.389v2.778c.917 0 1.658.625 1.658 1.389s-.741 1.389-1.666 1.389v2.777c0 .764.75 1.39 1.666 1.39h13.334c.916 0 1.666-.626 1.666-1.39v-2.777c-.916 0-1.666-.626-1.666-1.39zm-4.18 3.333L10 11.458l-2.486 1.597.75-2.861-2.285-1.868 2.945-.174L10 5.416l1.07 2.743 2.944.174-2.285 1.868.757 2.854z" fill="#fff"/>
    </mask>
</svg>