<svg width="31" height="33" viewBox="0 0 31 33" fill="none" xmlns="http://www.w3.org/2000/svg">
<path d="M15.4993 11.343C12.643 11.343 10.3403 13.6799 10.3403 16.5286C10.3403 19.3774 12.6651 21.7143 15.4993 21.7143C18.3335 21.7143 20.6584 19.3774 20.6584 16.5286C20.6584 13.6799 18.3335 11.343 15.4993 11.343ZM30.9986 16.5286C30.9986 14.3698 30.9986 12.2555 30.8879 10.0967C30.7772 7.60399 30.2015 5.3784 28.3859 3.57567C26.5702 1.75068 24.3782 1.17202 21.8983 1.06074C19.7505 0.949463 17.6471 0.949463 15.4993 0.949463C13.3515 0.949463 11.2481 0.949463 9.10031 1.06074C6.62042 1.17202 4.40623 1.75068 2.61274 3.57567C0.797107 5.40065 0.221419 7.60399 0.110709 10.0967C-1.04308e-07 12.2555 0 14.3698 0 16.5286C0 18.6875 -1.04308e-07 20.8018 0.110709 22.9606C0.221419 25.4533 0.797107 27.6789 2.61274 29.4816C4.42837 31.3066 6.62042 31.8852 9.10031 31.9965C11.2481 32.1078 13.3515 32.1078 15.4993 32.1078C17.6471 32.1078 19.7505 32.1078 21.8983 31.9965C24.3782 31.8852 26.5924 31.3066 28.3859 29.4816C30.2015 27.6566 30.7772 25.4533 30.8879 22.9606C31.0208 20.824 30.9986 18.6875 30.9986 16.5286ZM15.4993 24.5185C11.0931 24.5185 7.55038 20.9576 7.55038 16.5286C7.55038 12.0997 11.0931 8.53874 15.4993 8.53874C19.9055 8.53874 23.4482 12.0997 23.4482 16.5286C23.4482 20.9576 19.9055 24.5185 15.4993 24.5185ZM23.7804 10.0744C22.7618 10.0744 21.9205 9.25094 21.9205 8.20491C21.9205 7.15888 22.7397 6.33541 23.7804 6.33541C24.821 6.33541 25.6403 7.15888 25.6403 8.20491C25.6459 8.44869 25.6016 8.69103 25.5102 8.91691C25.4188 9.14278 25.2822 9.34738 25.1089 9.51801C24.9391 9.69221 24.7356 9.82951 24.5109 9.92139C24.2861 10.0133 24.045 10.0578 23.8025 10.0522L23.7804 10.0744Z" fill="black"/>
</svg>
