<svg width="168" height="46" viewBox="0 0 168 46" fill="none" xmlns="http://www.w3.org/2000/svg">
<path d="M90.76 33.224C90.76 34.5467 90.5573 35.7307 90.152 36.776C89.7467 37.8 89.1707 38.664 88.424 39.368C87.6987 40.072 86.824 40.6053 85.8 40.968C84.776 41.3307 83.6347 41.512 82.376 41.512C81.1173 41.512 79.976 41.32 78.952 40.936C77.928 40.552 77.0427 40.008 76.296 39.304C75.5707 38.5787 75.0053 37.704 74.6 36.68C74.1947 35.656 73.992 34.504 73.992 33.224C73.992 31.9653 74.1947 30.824 74.6 29.8C75.0053 28.776 75.5707 27.912 76.296 27.208C77.0427 26.4827 77.928 25.928 78.952 25.544C79.976 25.16 81.1173 24.968 82.376 24.968C83.6347 24.968 84.776 25.1707 85.8 25.576C86.824 25.96 87.6987 26.5147 88.424 27.24C89.1707 27.944 89.7467 28.808 90.152 29.832C90.5573 30.856 90.76 31.9867 90.76 33.224ZM79.56 33.224C79.56 34.5253 79.8053 35.528 80.296 36.232C80.808 36.9147 81.512 37.256 82.408 37.256C83.304 37.256 83.9867 36.904 84.456 36.2C84.9467 35.496 85.192 34.504 85.192 33.224C85.192 31.944 84.9467 30.9627 84.456 30.28C83.9653 29.576 83.272 29.224 82.376 29.224C81.48 29.224 80.7867 29.576 80.296 30.28C79.8053 30.9627 79.56 31.944 79.56 33.224ZM106.534 36.36C106.534 37.9813 105.926 39.2507 104.71 40.168C103.494 41.0853 101.702 41.544 99.334 41.544C98.438 41.544 97.606 41.48 96.838 41.352C96.07 41.224 95.4087 41.032 94.854 40.776C94.3207 40.4987 93.894 40.1573 93.574 39.752C93.2753 39.3467 93.126 38.8667 93.126 38.312C93.126 37.8 93.2327 37.3733 93.446 37.032C93.6593 36.6693 93.9153 36.3707 94.214 36.136C94.8327 36.4773 95.5367 36.7867 96.326 37.064C97.1367 37.32 98.0647 37.448 99.11 37.448C99.7713 37.448 100.273 37.352 100.614 37.16C100.977 36.968 101.158 36.712 101.158 36.392C101.158 36.0933 101.03 35.8587 100.774 35.688C100.518 35.5173 100.091 35.3787 99.494 35.272L98.534 35.08C96.678 34.7173 95.2913 34.152 94.374 33.384C93.478 32.5947 93.03 31.4747 93.03 30.024C93.03 29.2347 93.2007 28.52 93.542 27.88C93.8833 27.24 94.3633 26.7067 94.982 26.28C95.6007 25.8533 96.3367 25.5227 97.19 25.288C98.0647 25.0533 99.0247 24.936 100.07 24.936C100.859 24.936 101.595 25 102.278 25.128C102.982 25.2347 103.59 25.4053 104.102 25.64C104.614 25.8747 105.019 26.184 105.318 26.568C105.617 26.9307 105.766 27.368 105.766 27.88C105.766 28.3707 105.67 28.7973 105.478 29.16C105.307 29.5013 105.083 29.7893 104.806 30.024C104.635 29.9173 104.379 29.8107 104.038 29.704C103.697 29.576 103.323 29.4693 102.918 29.384C102.513 29.2773 102.097 29.192 101.67 29.128C101.265 29.064 100.891 29.032 100.55 29.032C99.846 29.032 99.302 29.1173 98.918 29.288C98.534 29.4373 98.342 29.6827 98.342 30.024C98.342 30.2587 98.4487 30.4507 98.662 30.6C98.8753 30.7493 99.2807 30.888 99.878 31.016L100.87 31.24C102.918 31.7093 104.369 32.36 105.222 33.192C106.097 34.0027 106.534 35.0587 106.534 36.36ZM116.133 37.544C116.495 37.544 116.89 37.512 117.317 37.448C117.765 37.3627 118.095 37.256 118.309 37.128V34.568L116.005 34.76C115.407 34.8027 114.917 34.9307 114.533 35.144C114.149 35.3573 113.957 35.6773 113.957 36.104C113.957 36.5307 114.117 36.8827 114.437 37.16C114.778 37.416 115.343 37.544 116.133 37.544ZM115.877 24.968C117.029 24.968 118.074 25.0853 119.013 25.32C119.973 25.5547 120.783 25.9173 121.445 26.408C122.127 26.8773 122.65 27.4853 123.013 28.232C123.375 28.9573 123.557 29.8213 123.557 30.824V37.992C123.557 38.5467 123.397 39.0053 123.077 39.368C122.778 39.7093 122.415 40.008 121.989 40.264C120.602 41.096 118.65 41.512 116.133 41.512C115.002 41.512 113.978 41.4053 113.061 41.192C112.165 40.9787 111.386 40.6587 110.725 40.232C110.085 39.8053 109.583 39.2613 109.221 38.6C108.879 37.9387 108.709 37.1707 108.709 36.296C108.709 34.824 109.146 33.6933 110.021 32.904C110.895 32.1147 112.25 31.624 114.085 31.432L118.277 30.984V30.76C118.277 30.1413 117.999 29.704 117.445 29.448C116.911 29.1707 116.133 29.032 115.109 29.032C114.298 29.032 113.509 29.1173 112.741 29.288C111.973 29.4587 111.279 29.672 110.661 29.928C110.383 29.736 110.149 29.448 109.957 29.064C109.765 28.6587 109.669 28.2427 109.669 27.816C109.669 27.2613 109.797 26.824 110.053 26.504C110.33 26.1627 110.746 25.8747 111.301 25.64C111.919 25.4053 112.645 25.2347 113.477 25.128C114.33 25.0213 115.13 24.968 115.877 24.968ZM142.083 38.184C141.976 39.1867 141.677 39.9547 141.187 40.488C140.717 41.0213 140.024 41.288 139.107 41.288C138.424 41.288 137.816 41.128 137.283 40.808C136.749 40.4667 136.173 39.9013 135.555 39.112L132.387 35.144V40.968C132.152 41.0107 131.8 41.064 131.331 41.128C130.883 41.2133 130.424 41.256 129.955 41.256C129.485 41.256 129.059 41.224 128.675 41.16C128.312 41.096 128.003 40.968 127.747 40.776C127.491 40.584 127.288 40.328 127.139 40.008C127.011 39.6667 126.947 39.2293 126.947 38.696V20.168C127.181 20.104 127.523 20.04 127.971 19.976C128.44 19.8907 128.909 19.848 129.379 19.848C129.848 19.848 130.264 19.88 130.627 19.944C131.011 20.008 131.331 20.136 131.587 20.328C131.843 20.52 132.035 20.7867 132.163 21.128C132.312 21.448 132.387 21.8747 132.387 22.408V30.856L137.891 25.224C139 25.224 139.885 25.4693 140.547 25.96C141.229 26.4507 141.571 27.0693 141.571 27.816C141.571 28.136 141.517 28.4347 141.411 28.712C141.304 28.968 141.133 29.2347 140.899 29.512C140.685 29.7893 140.397 30.088 140.035 30.408C139.693 30.7067 139.288 31.0587 138.819 31.464L136.963 33.064L142.083 38.184ZM151.351 37.544C151.714 37.544 152.109 37.512 152.535 37.448C152.983 37.3627 153.314 37.256 153.527 37.128V34.568L151.223 34.76C150.626 34.8027 150.135 34.9307 149.751 35.144C149.367 35.3573 149.175 35.6773 149.175 36.104C149.175 36.5307 149.335 36.8827 149.655 37.16C149.997 37.416 150.562 37.544 151.351 37.544ZM151.095 24.968C152.247 24.968 153.293 25.0853 154.231 25.32C155.191 25.5547 156.002 25.9173 156.663 26.408C157.346 26.8773 157.869 27.4853 158.231 28.232C158.594 28.9573 158.775 29.8213 158.775 30.824V37.992C158.775 38.5467 158.615 39.0053 158.295 39.368C157.997 39.7093 157.634 40.008 157.207 40.264C155.821 41.096 153.869 41.512 151.351 41.512C150.221 41.512 149.197 41.4053 148.279 41.192C147.383 40.9787 146.605 40.6587 145.943 40.232C145.303 39.8053 144.802 39.2613 144.439 38.6C144.098 37.9387 143.927 37.1707 143.927 36.296C143.927 34.824 144.365 33.6933 145.239 32.904C146.114 32.1147 147.469 31.624 149.303 31.432L153.495 30.984V30.76C153.495 30.1413 153.218 29.704 152.663 29.448C152.13 29.1707 151.351 29.032 150.327 29.032C149.517 29.032 148.727 29.1173 147.959 29.288C147.191 29.4587 146.498 29.672 145.879 29.928C145.602 29.736 145.367 29.448 145.175 29.064C144.983 28.6587 144.887 28.2427 144.887 27.816C144.887 27.2613 145.015 26.824 145.271 26.504C145.549 26.1627 145.965 25.8747 146.519 25.64C147.138 25.4053 147.863 25.2347 148.695 25.128C149.549 25.0213 150.349 24.968 151.095 24.968Z" fill="#FF0000"/>
<path d="M61.891 41.4591C61.1927 38.9734 60.5025 36.4795 59.8122 33.9857L47.8931 38.2667C48.0536 38.7866 48.2302 39.4121 48.4389 40.1594C49.5706 44.2942 51.1839 45.5289 55.4218 45.5371C57.1394 45.5777 58.7688 45.1877 60.358 44.5623C61.7867 43.9936 62.3485 43.1082 61.891 41.4591Z" fill="#FF0000"/>
<path d="M72.2452 24.9119C70.7362 23.3279 68.9624 22.8324 66.8756 23.5553C63.8737 24.5951 60.8638 25.6024 57.878 26.6747C57.862 26.6828 57.8539 26.6828 57.8379 26.6909L57.7817 26.7072C55.7992 19.6318 53.7605 12.5726 51.481 5.58654C50.7185 3.25515 49.2336 1.89043 46.9863 1.17558C42.8366 -0.140398 38.7432 0.103302 34.6417 1.41928C33.8792 1.66298 33.2773 1.99604 32.8037 2.46719C32.1696 3.10081 31.9208 3.80754 31.8165 4.11622C30.7811 7.10561 29.1918 11.744 27.2575 17.5035C27.2495 17.5278 27.2414 17.5684 27.2013 17.6172C27.1612 17.6659 27.113 17.6822 27.0889 17.6903C24.5205 18.7869 21.9521 19.8917 19.3836 20.9884L23.7821 20.3547C32.8519 19.6236 37.5152 22.9867 37.6837 23.1167H37.6917L37.9887 22.1419C38.0289 22.0119 38.061 21.8901 38.1011 21.752C38.1733 21.492 38.2536 21.2402 38.3258 20.9802L38.39 20.7609C38.6389 19.9323 38.9037 19.1119 39.1686 18.2833C39.8027 16.3499 40.4769 14.4247 41.119 12.4914C41.2715 12.4914 41.424 12.4914 41.5765 12.4914C42.4273 15.4889 43.2861 18.4783 44.1128 21.4758C44.9395 24.4651 45.1643 25.3018 43.6634 25.5374C43.4627 25.4724 43.262 25.4156 43.0614 25.3506C41.2153 24.7738 39.3773 24.2052 37.5312 23.6284C35.7092 23.0598 33.8792 22.4831 32.0572 21.9063C30.1711 21.3052 28.2528 21.159 26.3425 21.6545C26.1418 21.7032 25.9492 21.7601 25.7485 21.8088C23.4048 22.4343 21.0772 23.1329 18.7415 23.8072C18.5248 23.8721 18.1717 23.8721 18.1396 24.189C18.0994 24.5545 18.4606 24.6357 18.6934 24.7576C20.419 25.6836 22.1527 26.6097 23.8864 27.5276C26.6154 28.9817 29.3524 30.4439 32.0653 31.9305C33.4378 32.686 34.9066 33.279 36.2631 34.2862C32.7074 36.3414 29.1918 38.1529 25.4034 39.3877C23.758 39.9238 22.1126 40.3787 20.4511 40.728C17.6178 41.3129 14.7444 41.5729 11.7827 41.3373C8.00227 41.0367 4.42252 40.1269 1.01132 38.4535C0.722372 38.3154 0.433423 38.0311 0 38.2829C0.0722372 38.4291 0.104343 38.5916 0.200659 38.6972C2.44001 41.1748 5.04055 43.1407 8.15477 44.3429C11.574 45.6589 15.0815 46.2194 18.7656 45.9026C20.7 45.7401 22.6102 45.5208 24.5045 45.1553C24.8175 45.0984 25.1225 45.0334 25.4355 44.9603C28.0521 44.3754 30.5884 43.5468 33.1007 42.6451C35.9902 41.5972 38.8475 40.4437 41.729 39.3877C43.6633 38.681 45.5977 37.9661 47.5321 37.2513C51.5212 35.7728 55.5022 34.27 59.4753 32.7753C62.2122 31.7436 64.9412 30.712 67.6782 29.6803C69.0106 29.1767 70.4152 28.8517 71.6673 28.1369C73.2244 27.2596 73.417 26.1386 72.2452 24.9119Z" fill="#FF0000"/>
</svg>
