<svg width="15" height="9" viewBox="0 0 15 9" fill="none" xmlns="http://www.w3.org/2000/svg">
<path d="M14.75 3.6C14.6562 3.45937 13.7309 3.09966 13.7309 3.09966C13.8919 3.02484 14.0019 3.00937 14.0019 2.7C14.0019 2.3625 14 2.25 13.75 2.25H12.9019C12.8984 2.24325 12.8947 2.23622 12.8912 2.22919C12.3438 1.15312 12.2703 0.881156 11.4537 0.514969C10.3584 0.0247499 8.305 0 7.5 0C6.695 0 4.64156 0.0247499 3.54719 0.514969C2.72969 0.880594 2.75 1.06875 2.10969 2.22919C2.10969 2.23228 2.10313 2.24044 2.09719 2.25H1.24812C1 2.25 0.998125 2.3625 0.998125 2.7C0.998125 3.00937 1.10812 3.02484 1.26906 3.09966C1.26906 3.09966 0.375 3.4875 0.25 3.6C0.125 3.7125 0 4.5 0 5.85C0 7.2 0.125 8.55 0.125 8.55H0.498125C0.498125 8.94375 0.5625 9 0.75 9H3.25C3.4375 9 3.5 8.94375 3.5 8.55H11.5C11.5 8.94375 11.5625 9 11.75 9H14.3125C14.4375 9 14.5 8.91562 14.5 8.55H14.875C14.875 8.55 15 7.17188 15 5.85C15 4.52812 14.8438 3.74062 14.75 3.6ZM3.41438 4.86394C2.84522 4.91994 2.27317 4.94867 1.70062 4.95C1.0625 4.95 1.04062 4.98684 0.995625 4.62825C0.978697 4.46412 0.984048 4.29875 1.01156 4.13578L1.03125 4.05H1.125C1.5 4.05 1.85219 4.06434 2.51719 4.24069C2.85541 4.33203 3.17354 4.47533 3.4575 4.66425C3.59375 4.75312 3.625 4.8375 3.625 4.8375L3.41438 4.86394ZM11.1381 6.88894L11 7.2H4C4 7.2 4.01219 7.18284 3.84375 6.88556C3.71875 6.66563 3.875 6.525 4.12219 6.44513C4.60094 6.28988 6 5.85 7.5 5.85C9 5.85 10.4269 6.22913 10.8906 6.44513C11.0625 6.525 11.2759 6.58125 11.1381 6.89062V6.88894ZM3.10687 3.04903C3.00593 3.05427 2.90476 3.05493 2.80375 3.051C2.88531 2.9205 2.93062 2.77509 3.01031 2.62322C3.26031 2.14509 3.54625 1.60397 4.05531 1.37587C4.79094 1.04625 6.31563 0.89775 7.5 0.89775C8.68437 0.89775 10.2091 1.04512 10.9447 1.37587C11.4538 1.60397 11.7384 2.14538 11.9897 2.62322C12.07 2.7765 12.1147 2.92303 12.1984 3.05438C12.1359 3.05747 12.0641 3.05437 11.8925 3.04903H3.10687ZM13.9731 4.62712C13.9062 4.97812 13.9688 4.95 13.2994 4.95C12.7268 4.94867 12.1548 4.91994 11.5856 4.86394C11.4966 4.84959 11.4712 4.71431 11.5425 4.66425C11.825 4.47323 12.1436 4.32973 12.4828 4.24069C13.1478 4.06434 13.5222 4.04072 13.8919 4.05253C13.9167 4.05338 13.9403 4.06247 13.9581 4.07805C13.976 4.09363 13.9868 4.11459 13.9884 4.13691C14.0061 4.30062 14.001 4.46568 13.9731 4.62825V4.62712Z" fill="black"/>
</svg>
