<svg width="10" height="10" viewBox="0 0 10 10" fill="none" xmlns="http://www.w3.org/2000/svg">
<path d="M5 5C5.53249 5 6.05302 4.85338 6.49577 4.57867C6.93851 4.30397 7.28359 3.91352 7.48737 3.45671C7.69114 2.99989 7.74446 2.49723 7.64058 2.01227C7.53669 1.52732 7.28027 1.08187 6.90375 0.732234C6.52722 0.382603 6.0475 0.144501 5.52524 0.0480379C5.00299 -0.0484251 4.46165 0.00108321 3.9697 0.190302C3.47774 0.379521 3.05726 0.699952 2.76143 1.11108C2.46559 1.5222 2.30769 2.00555 2.30769 2.5C2.30769 3.16304 2.59135 3.79893 3.09625 4.26777C3.60116 4.73661 4.28596 5 5 5ZM5 5.71429C3.33125 5.71429 0 6.67143 0 8.57143V10H10V8.57143C10 6.67143 6.66875 5.71429 5 5.71429Z" fill="black"/>
</svg>
