<svg width="13" height="13" viewBox="0 0 13 13" fill="none" xmlns="http://www.w3.org/2000/svg">
<path d="M4.87493 7.65556C4.87493 8.05278 4.87493 8.41389 4.87493 8.81111C4.40548 8.81111 3.97215 8.81111 3.53882 8.81111C3.53882 8.775 3.53882 8.70278 3.53882 8.66667C3.53882 6.53611 3.53882 4.36944 3.53882 2.23889C3.53882 1.26389 4.18882 0.469444 5.12771 0.288888C6.13882 0.108332 7.22215 0.866666 7.33048 1.91389C7.3666 2.09444 7.3666 2.31111 7.3666 2.49167C6.89715 2.49167 6.46382 2.49167 5.99437 2.49167C5.99437 2.38333 5.99437 2.31111 5.99437 2.20278C5.99437 1.91389 5.77771 1.66111 5.48882 1.625C5.19993 1.58889 4.94715 1.76944 4.87493 2.05833C4.87493 2.09444 4.87493 2.09444 4.87493 2.13055C4.87493 2.6 4.87493 3.06944 4.87493 3.575C6.0666 3.575 7.22215 3.575 8.44993 3.575C8.44993 3.53889 8.44993 3.50278 8.44993 3.43055C8.44993 3.03333 8.44993 2.63611 8.44993 2.23889C8.44993 1.19167 9.20826 0.36111 10.2916 0.288888C11.3027 0.216666 12.2416 1.08333 12.2777 2.09444C12.2777 2.23889 12.2777 2.34722 12.2777 2.49167C11.8444 2.49167 11.3749 2.49167 10.9416 2.49167C10.9416 2.38333 10.9416 2.31111 10.9416 2.23889C10.9416 1.87778 10.6888 1.66111 10.3638 1.66111C10.0388 1.66111 9.82215 1.91389 9.82215 2.275C9.82215 4.44167 9.82215 6.57222 9.82215 8.73889C9.82215 8.775 9.82215 8.84722 9.82215 8.88333C9.38882 8.88333 8.91937 8.88333 8.48604 8.88333C8.48604 8.84722 8.48604 8.81111 8.48604 8.73889C8.48604 8.41389 8.48604 8.125 8.48604 7.8C8.48604 7.72778 8.48604 7.69167 8.37771 7.69167C7.22215 7.69167 6.10271 7.69167 4.94715 7.69167C4.91104 7.65556 4.91104 7.65556 4.87493 7.65556ZM4.87493 4.91111C4.87493 5.34444 4.87493 5.81389 4.87493 6.24722C6.0666 6.24722 7.22215 6.24722 8.41382 6.24722C8.41382 5.81389 8.41382 5.34444 8.41382 4.91111C7.22215 4.91111 6.0666 4.91111 4.87493 4.91111Z" fill="black"/>
<path d="M1.69725 8.95555C2.27503 8.95555 2.78058 9.17222 3.1778 9.53333C3.68336 10.0028 4.44169 10.0389 4.94725 9.64166C5.05558 9.53333 5.16392 9.46111 5.27225 9.35277C6.1028 8.73889 7.22225 8.81111 7.94447 9.53333C8.34169 9.89444 8.81114 10.0389 9.31669 9.85833C9.53336 9.78611 9.6778 9.67777 9.85836 9.53333C10.6889 8.775 11.9528 8.775 12.7472 9.53333C12.9278 9.71389 12.9639 9.96666 12.7834 10.1111C12.6389 10.2917 12.3861 10.2917 12.2056 10.1111C12.025 9.93055 11.8445 9.82222 11.5917 9.75C11.1584 9.67777 10.7611 9.78611 10.4722 10.075C10.1834 10.3639 9.82225 10.5806 9.42503 10.6528C8.66669 10.7972 8.0528 10.6167 7.47503 10.1111C7.0778 9.75 6.64447 9.60555 6.13892 9.78611C5.95836 9.85833 5.81391 9.96666 5.66947 10.075C4.8028 10.8694 3.61114 10.9056 2.74447 10.075C2.23891 9.60555 1.44447 9.56944 0.938915 10.0389C0.79447 10.1833 0.577804 10.2194 0.361137 10.1472C0.108359 10.0389 0.0361372 9.71388 0.252804 9.49722C0.650026 9.17222 1.11947 8.95555 1.69725 8.95555Z" fill="black"/>
<path d="M1.73337 11.1944C2.27503 11.1944 2.78059 11.4111 3.17781 11.7722C3.64726 12.2056 4.29726 12.3139 4.80281 11.9889C4.91114 11.9167 4.98337 11.8444 5.05559 11.7722C5.92226 10.9778 7.11392 10.9778 7.98059 11.7722C8.48615 12.2417 9.20837 12.3139 9.71392 11.9167C9.78615 11.8444 9.85837 11.8083 9.93059 11.7361C10.5806 11.1583 11.5556 11.0139 12.2417 11.4111C12.4223 11.5194 12.5667 11.7 12.7473 11.8444C12.8917 11.9889 12.8556 12.2417 12.7111 12.3861C12.5667 12.5306 12.3139 12.5306 12.1695 12.3861C11.9528 12.2056 11.7361 12.0611 11.4473 12.025C11.0139 11.9528 10.6528 12.0972 10.3278 12.3861C10.0389 12.675 9.67781 12.8556 9.28059 12.9639C8.55837 13.1083 7.94448 12.8917 7.40281 12.4222C7.18615 12.2417 6.96948 12.0972 6.68059 12.025C6.24726 11.9528 5.85003 12.0972 5.56114 12.4222C5.27226 12.7111 4.94726 12.8917 4.58614 12.9639C3.86392 13.1083 3.25003 12.9278 2.70837 12.4583C2.27503 12.025 1.80559 11.9167 1.26392 12.0972C1.08337 12.1694 0.938922 12.2778 0.794478 12.3861C0.650034 12.4944 0.505589 12.4944 0.361145 12.4222C0.2167 12.3139 0.144478 12.2056 0.180589 12.025C0.2167 11.9528 0.252811 11.8444 0.325034 11.7722C0.686145 11.375 1.1917 11.1944 1.73337 11.1944Z" fill="black"/>
</svg>
