<svg width="12" height="9" viewBox="0 0 12 9" fill="none" xmlns="http://www.w3.org/2000/svg">
<path d="M6.1532 8.99851C4.64031 8.99851 3.12741 8.99851 1.61601 9C1.42262 9 1.29171 8.90628 1.21584 8.73967C1.16973 8.63851 1.14295 8.52843 1.11022 8.41984C0.861794 7.60463 0.614852 6.78942 0.36791 5.97422C0.254852 5.59934 0.137331 5.22446 0.0287363 4.8481C-0.0367182 4.61901 0.00790986 4.41223 0.180472 4.23669C0.501794 3.91091 0.823116 3.58364 1.14295 3.25785C1.52527 2.8681 1.90907 2.47835 2.29138 2.08859C2.66774 1.70479 3.0456 1.32099 3.42196 0.93719C3.68527 0.669422 3.94708 0.401653 4.21039 0.133884C4.29518 0.0461158 4.39634 0.00148758 4.5213 0.00148758C6.57419 0.00297518 8.62708 0.00297521 10.68 0C10.8972 0 11.037 0.124959 11.1069 0.290083C11.1396 0.367438 11.153 0.447769 11.153 0.531074C11.153 1.23471 11.153 1.93686 11.153 2.6405C11.153 4.58331 11.153 6.52612 11.153 8.46893C11.153 8.64744 11.095 8.80215 10.9522 8.91669C10.8823 8.97322 10.8005 8.99851 10.7097 8.99703C9.19088 8.99851 7.67204 8.99851 6.1532 8.99851ZM1.38989 3.88116C4.44989 3.88116 7.49948 3.88116 10.5535 3.88116C10.5535 3.86479 10.5535 3.84992 10.5535 3.83653C10.5535 2.82645 10.5535 1.81636 10.555 0.806281C10.555 0.773554 10.5476 0.761653 10.5119 0.761653C8.96923 0.763141 7.42659 0.761653 5.88543 0.76314C5.65931 0.76314 5.4332 0.782479 5.21155 0.824132C4.3889 0.981818 3.68824 1.36264 3.11998 1.97851C2.59931 2.5438 2.08609 3.11504 1.56989 3.68479C1.51188 3.74727 1.45386 3.81124 1.38989 3.88116ZM9.83948 4.25752C9.65799 4.25752 9.47651 4.25752 9.29502 4.25752C9.19535 4.25752 9.12841 4.32446 9.12841 4.42413C9.12841 4.52826 9.12841 4.6324 9.12841 4.73653C9.12841 4.84066 9.19386 4.9076 9.29948 4.9076C9.66097 4.9076 10.021 4.9076 10.3825 4.9076C10.4896 4.9076 10.555 4.84066 10.555 4.73504C10.555 4.63388 10.555 4.53124 10.555 4.43008C10.555 4.32298 10.4896 4.25901 10.3825 4.25752C10.201 4.25752 10.021 4.25752 9.83948 4.25752Z" fill="black"/>
</svg>
