<svg width="15" height="11" viewBox="0 0 15 11" fill="none" xmlns="http://www.w3.org/2000/svg">
<path d="M10.1772 6.93817C9.34223 6.19598 8.26395 5.78601 7.14683 5.78601C6.02971 5.78601 4.95143 6.19598 4.11649 6.93817C4.04594 6.99922 3.98822 7.07367 3.94669 7.15722C3.90515 7.24076 3.88063 7.33172 3.87455 7.42482C3.86846 7.51792 3.88093 7.6113 3.91124 7.69954C3.94155 7.78777 3.98908 7.86911 4.05109 7.93882C4.11309 8.00854 4.18833 8.06524 4.27243 8.10563C4.35653 8.14602 4.44782 8.1693 4.54099 8.17412C4.63416 8.17893 4.72736 8.16519 4.81518 8.13369C4.903 8.10218 4.98368 8.05354 5.05254 7.99059C5.6296 7.47773 6.3748 7.19444 7.14683 7.19444C7.91886 7.19444 8.66405 7.47773 9.24111 7.99059C9.38076 8.11472 9.564 8.17829 9.75052 8.16731C9.93704 8.15634 10.1116 8.07172 10.2357 7.93207C10.3598 7.79242 10.4234 7.60918 10.4124 7.42266C10.4014 7.23614 10.3168 7.06162 10.1772 6.9375V6.93817Z" fill="black"/>
<path d="M7.14602 2.89353C5.25505 2.89092 3.43429 3.60963 2.05493 4.90313C1.9851 4.96569 1.92845 5.04156 1.88832 5.1263C1.8482 5.21104 1.82539 5.30294 1.82125 5.3966C1.8171 5.49027 1.8317 5.58382 1.86419 5.67177C1.89667 5.75972 1.94639 5.8403 2.01043 5.90879C2.07447 5.97727 2.15154 6.03227 2.23712 6.07058C2.32269 6.10889 2.41506 6.12972 2.50879 6.13186C2.60253 6.134 2.69575 6.1174 2.78298 6.08303C2.87022 6.04867 2.94971 5.99724 3.01681 5.93175C4.1368 4.88464 5.61278 4.30214 7.14602 4.30214C8.67925 4.30214 10.1552 4.88464 11.2752 5.93175C11.3423 5.99724 11.4218 6.04867 11.5091 6.08303C11.5963 6.1174 11.6895 6.134 11.7832 6.13186C11.877 6.12972 11.9693 6.10889 12.0549 6.07058C12.1405 6.03227 12.2176 5.97727 12.2816 5.90879C12.3456 5.8403 12.3954 5.75972 12.4278 5.67177C12.4603 5.58382 12.4749 5.49027 12.4708 5.3966C12.4666 5.30294 12.4438 5.21104 12.4037 5.1263C12.3636 5.04156 12.3069 4.96569 12.2371 4.90313C10.8577 3.60963 9.03698 2.89092 7.14602 2.89353Z" fill="black"/>
<path d="M14.0458 2.63056C12.1469 0.936334 9.6911 0 7.14631 0C4.60152 0 2.14569 0.936334 0.246856 2.63056C0.175492 2.69151 0.117032 2.76612 0.0749107 2.84999C0.0327895 2.93387 0.00785697 3.02531 0.00157795 3.11896C-0.00470107 3.2126 0.00780018 3.30656 0.0383471 3.3953C0.068894 3.48405 0.11687 3.56579 0.179457 3.63573C0.242044 3.70567 0.317979 3.7624 0.402799 3.80258C0.48762 3.84276 0.579616 3.86558 0.67338 3.8697C0.767145 3.87382 0.860788 3.85916 0.948806 3.82657C1.03682 3.79399 1.11744 3.74414 1.18592 3.67996C2.82648 2.21682 4.94791 1.40825 7.14614 1.40825C9.34437 1.40825 11.4658 2.21682 13.1064 3.67996C13.2456 3.80449 13.4286 3.8686 13.6151 3.85819C13.8017 3.84778 13.9764 3.76371 14.1009 3.62446C14.2255 3.48521 14.2896 3.30219 14.2792 3.11567C14.2688 2.92916 14.1847 2.75441 14.0454 2.62988L14.0458 2.63056Z" fill="black"/>
<path d="M7.14622 11C7.73894 11 8.21944 10.5195 8.21944 9.92676C8.21944 9.33404 7.73894 8.85355 7.14622 8.85355C6.55349 8.85355 6.073 9.33404 6.073 9.92676C6.073 10.5195 6.55349 11 7.14622 11Z" fill="black"/>
</svg>
