<svg width="31" height="33" viewBox="0 0 31 33" fill="none" xmlns="http://www.w3.org/2000/svg">
<path d="M4.42857 0.949463C1.98594 0.949463 0 2.94554 0 5.40065V27.6566C0 30.1117 1.98594 32.1078 4.42857 32.1078H26.5714C29.0141 32.1078 31 30.1117 31 27.6566V5.40065C31 2.94554 29.0141 0.949463 26.5714 0.949463H4.42857ZM24.9868 6.79165L17.8042 15.0403L26.2531 26.2656H19.6379L14.4621 19.4567L8.53192 26.2656H5.24509L12.9259 17.4397L4.82299 6.79165H11.6042L16.2888 13.0164L21.7 6.79165H24.9868ZM22.3712 24.2904L10.6147 8.66254H8.65647L20.5444 24.2904H22.3643H22.3712Z" fill="black"/>
</svg>
