<svg width="31" height="33" viewBox="0 0 31 33" fill="none" xmlns="http://www.w3.org/2000/svg">
<path d="M30.6842 7.67174C30.6842 7.67174 30.3819 4.61792 29.4499 3.27789C28.2699 1.51427 26.9484 1.50319 26.3439 1.40075C22.0094 0.949463 15.499 0.949463 15.499 0.949463H15.4874C15.4874 0.949463 8.97894 0.949463 4.64254 1.40075C4.03606 1.50596 2.71654 1.51427 1.53653 3.27789C0.604538 4.61792 0.308082 7.67174 0.308082 7.67174C0.308082 7.67174 0 11.2544 0 14.8453V18.2037C0 21.7863 0.308082 25.3772 0.308082 25.3772C0.308082 25.3772 0.610351 28.431 1.53653 29.7738C2.71654 31.5375 4.26664 31.4793 4.95837 31.6676C7.44046 32.0054 15.501 32.1078 15.501 32.1078C15.501 32.1078 22.0172 32.0912 26.3516 31.6482C26.9581 31.5458 28.2776 31.5347 29.4577 29.7711C30.3897 28.431 30.6919 25.3745 30.6919 25.3745C30.6919 25.3745 31 21.7918 31 18.2009V14.8425C30.9942 11.2599 30.6861 7.66897 30.6861 7.66897L30.6842 7.67174ZM12.2884 22.2763V9.82574L20.6628 16.0718L12.2884 22.2763Z" fill="black"/>
</svg>
